<svg width="345" height="230" viewBox="0 0 345 230" fill="none" xmlns="http://www.w3.org/2000/svg">
<path d="M361.596 194.21H176.944V264.38H361.596V194.21Z" fill="#338FEB"/>
<path d="M269.27 211.88C320.26 211.88 361.596 203.969 361.596 194.21C361.596 184.451 320.26 176.539 269.27 176.539C218.28 176.539 176.944 184.451 176.944 194.21C176.944 203.969 218.28 211.88 269.27 211.88Z" fill="#A0B2F2"/>
<path d="M353.995 127.256H184.545V189.081H353.995V127.256Z" fill="#357ABF"/>
<path d="M269.27 204.648C316.062 204.648 353.995 197.678 353.995 189.079C353.995 180.481 316.062 173.511 269.27 173.511C222.478 173.511 184.545 180.481 184.545 189.079C184.545 197.678 222.478 204.648 269.27 204.648Z" fill="#357ABF"/>
<path d="M361.596 107.217H176.944V177.388H361.596V107.217Z" fill="#338FEB"/>
<path d="M269.27 195.058C320.26 195.058 361.596 187.147 361.596 177.388C361.596 167.629 320.26 159.718 269.27 159.718C218.28 159.718 176.944 167.629 176.944 177.388C176.944 187.147 218.28 195.058 269.27 195.058Z" fill="#338FEB"/>
<path d="M269.27 124.887C320.26 124.887 361.596 116.976 361.596 107.217C361.596 97.458 320.26 89.5468 269.27 89.5468C218.28 89.5468 176.944 97.458 176.944 107.217C176.944 116.976 218.28 124.887 269.27 124.887Z" fill="#A0B2F2"/>
<path d="M353.995 40.2625H184.545V102.087H353.995V40.2625Z" fill="#357ABF"/>
<path d="M269.27 117.655C316.062 117.655 353.995 110.685 353.995 102.087C353.995 93.4884 316.062 86.5181 269.27 86.5181C222.478 86.5181 184.545 93.4884 184.545 102.087C184.545 110.685 222.478 117.655 269.27 117.655Z" fill="#357ABF"/>
<path d="M361.596 17.6702H176.944V87.841H361.596V17.6702Z" fill="#338FEB"/>
<path d="M269.27 105.511C320.26 105.511 361.596 97.6 361.596 87.8409C361.596 78.0819 320.26 70.1707 269.27 70.1707C218.28 70.1707 176.944 78.0819 176.944 87.8409C176.944 97.6 218.28 105.511 269.27 105.511Z" fill="#338FEB"/>
<path d="M269.27 35.3406C320.26 35.3406 361.596 27.4293 361.596 17.6703C361.596 7.91126 320.26 0 269.27 0C218.28 0 176.944 7.91126 176.944 17.6703C176.944 27.4293 218.28 35.3406 269.27 35.3406Z" fill="#D7E2FF"/>
<path d="M269.27 31.207C308.333 31.207 340 25.1464 340 17.6702C340 10.194 308.333 4.13342 269.27 4.13342C230.206 4.13342 198.539 10.194 198.539 17.6702C198.539 25.1464 230.206 31.207 269.27 31.207Z" fill="#1E4B78"/>
<path d="M130.956 245.088H87.592C88.059 236.29 102.42 234.902 102.88 212.664L109.274 213.728L115.668 212.664C116.129 234.902 130.489 236.29 130.956 245.088Z" fill="#1E1E1E"/>
<path d="M204.776 216.743H13.7727C6.16657 216.743 0 210.576 0 202.97V90.8589C0 83.2527 6.16657 77.0862 13.7727 77.0862H204.776C212.382 77.0862 218.548 83.2527 218.548 90.8589V202.97C218.548 210.576 212.382 216.743 204.776 216.743Z" fill="#383736"/>
<path d="M205.547 66.2036H13.0024C5.82109 66.2036 0 72.0247 0 79.206V191.155H218.548V79.206C218.548 72.0247 212.727 66.2036 205.547 66.2036Z" fill="#383736"/>
<path d="M114.709 202.999C114.709 206 112.276 208.434 109.275 208.434C106.275 208.434 103.842 206.001 103.842 202.999C103.842 199.998 106.275 197.566 109.275 197.566C112.276 197.566 114.709 199.998 114.709 202.999Z" fill="#1E1E1E"/>
<path d="M210.429 191.155H8.93869V76.3098C8.93869 74.5957 10.3278 73.2079 12.0406 73.2079H207.328C209.042 73.2079 210.429 74.5969 210.429 76.3098V191.155Z" fill="#0073E6"/>
<path d="M204.886 84.4865H15.1979C13.7583 84.4865 12.5907 83.3189 12.5907 81.8793V79.8751C12.5907 78.4355 13.7583 77.2679 15.1979 77.2679H204.886C206.326 77.2679 207.494 78.4355 207.494 79.8751V81.8793C207.492 83.3189 206.326 84.4865 204.886 84.4865Z" fill="#CCE3FA"/>
<path d="M188.929 80.8779C188.929 81.7493 188.222 82.4559 187.351 82.4559C186.48 82.4559 185.773 81.7493 185.773 80.8779C185.773 80.0064 186.48 79.2998 187.351 79.2998C188.222 79.2998 188.929 80.0052 188.929 80.8779Z" fill="#D7E2FF"/>
<path d="M193.926 80.8779C193.926 81.7493 193.219 82.4559 192.346 82.4559C191.474 82.4559 190.768 81.7493 190.768 80.8779C190.768 80.0064 191.475 79.2998 192.346 79.2998C193.218 79.2998 193.926 80.0052 193.926 80.8779Z" fill="#D7E2FF"/>
<path d="M198.922 80.8779C198.922 81.7493 198.216 82.4559 197.343 82.4559C196.47 82.4559 195.765 81.7493 195.765 80.8779C195.765 80.0064 196.471 79.2998 197.343 79.2998C198.214 79.2998 198.922 80.0052 198.922 80.8779Z" fill="#D7E2FF"/>
<path d="M45.0318 134.428C54.3332 130.576 58.7501 119.912 54.8973 110.611C51.0444 101.309 40.3809 96.8923 31.0795 100.745C21.7781 104.598 17.3612 115.262 21.2141 124.563C25.0669 133.864 35.7305 138.281 45.0318 134.428Z" fill="#CCE3FA"/>
<path d="M54.2122 152.606H21.8676C20.7325 152.606 19.8117 151.685 19.8117 150.55V148.97C19.8117 147.835 20.7325 146.914 21.8676 146.914H54.2122C55.3473 146.914 56.2681 147.835 56.2681 148.97V150.55C56.2681 151.687 55.3473 152.606 54.2122 152.606Z" fill="#3A79B8"/>
<path d="M56.2681 157.245H19.8105V173.269H56.2681V157.245Z" fill="#CCE3FA"/>
<path d="M120.609 106.128H73.6038C72.2533 106.128 71.1591 105.034 71.1591 103.683V101.804C71.1591 100.454 72.2533 99.3595 73.6038 99.3595H120.609C121.96 99.3595 123.054 100.454 123.054 101.804V103.683C123.054 105.033 121.96 106.128 120.609 106.128Z" fill="#3A79B8"/>
<path d="M158.967 120.972H73.605C72.2544 120.972 71.1603 119.878 71.1603 118.527V116.648C71.1603 115.298 72.2544 114.203 73.605 114.203H158.967C160.317 114.203 161.411 115.298 161.411 116.648V118.527C161.411 119.878 160.316 120.972 158.967 120.972Z" fill="#CCE3FA"/>
<path d="M123.054 129.047H71.1591V162.083H123.054V129.047Z" fill="#CCE3FA"/>
<path d="M120.609 173.764H73.6038C72.2533 173.764 71.1591 172.67 71.1591 171.319V169.44C71.1591 168.09 72.2533 166.995 73.6038 166.995H120.609C121.96 166.995 123.054 168.09 123.054 169.44V171.319C123.054 172.67 121.96 173.764 120.609 173.764Z" fill="#3A79B8"/>
<path d="M187.133 129.047H135.238V162.083H187.133V129.047Z" fill="#CCE3FA"/>
<path d="M184.687 173.764H137.682C136.331 173.764 135.237 172.67 135.237 171.319V169.44C135.237 168.09 136.331 166.995 137.682 166.995H184.687C186.038 166.995 187.132 168.09 187.132 169.44V171.319C187.132 172.67 186.038 173.764 184.687 173.764Z" fill="#3A79B8"/>
<path opacity="0.2" d="M45.4517 66.2036L71.3986 191.155H121.383L90.5772 66.2036H45.4517Z" fill="white"/>
<path opacity="0.2" d="M108.034 66.2036L133.983 191.155H161.403L130.598 66.2036H108.034Z" fill="white"/>
</svg>
