<svg width="255" height="242" viewBox="0 0 255 242" fill="none" xmlns="http://www.w3.org/2000/svg">
<g clip-path="url(#clip0_19_703)">
<path d="M152.267 269.558C152.267 284.583 119.682 296.755 79.484 296.755C39.2864 296.755 6.70097 284.575 6.70097 269.558C6.70097 254.54 39.2864 242.36 79.484 242.36C119.682 242.36 152.267 254.54 152.267 269.558Z" stroke="white" stroke-width="1.26" stroke-miterlimit="10"/>
<path d="M92.5467 245.946C65.967 241.274 48.0425 269.398 21.4628 264.717C18.031 251.704 14.5992 238.681 11.1674 225.668C37.7471 230.339 55.6716 202.216 82.2513 206.896C85.6831 219.91 89.1149 232.924 92.5467 245.946Z" fill="#4A632E"/>
<path d="M90.7467 245.23C65.3362 240.912 48.0846 267.529 22.674 263.211C19.4357 250.938 16.1973 238.665 12.9674 226.391C38.3779 230.71 55.6295 204.093 81.0401 208.411C84.2784 220.684 87.5168 232.957 90.7467 245.23Z" fill="#678240"/>
<path d="M85.0775 234.203C83.6223 228.69 82.1672 223.167 80.712 217.654C76.4391 217.469 72.3428 214.952 71.2998 210.97C54.7043 213.748 40.8761 227.006 24.2722 229.775C25.3068 233.706 22.9096 237.595 18.6366 237.41C20.0918 242.924 21.5469 248.446 23.0021 253.96C27.275 254.145 31.3713 256.662 32.4143 260.643C49.0098 257.865 62.8464 244.607 79.4419 241.838C78.4073 237.907 80.8046 234.018 85.0775 234.203Z" fill="#A2AD89"/>
<path d="M83.0924 234.296C81.7214 229.11 80.3588 223.917 78.9877 218.731C74.9671 218.555 71.1147 216.189 70.1306 212.452C54.5192 215.061 41.5154 227.528 25.904 230.137C26.8797 233.833 24.6255 237.494 20.6049 237.318C21.9759 242.503 23.3385 247.697 24.7096 252.882C28.7302 253.059 32.5741 255.424 33.5667 259.17C49.1781 256.561 62.1819 244.094 77.7933 241.484C76.8176 237.789 79.0718 234.127 83.0924 234.304V234.296Z" fill="#AEB992"/>
<path d="M65.7988 229.119C68.3727 238.883 64.1334 249.465 56.5464 253.614C48.9678 257.764 40.5144 252.402 37.9069 242.503C35.3331 232.738 39.5724 222.157 47.1593 218.007C54.7379 213.858 63.1913 219.22 65.7988 229.127V229.119Z" fill="#678240"/>
<path d="M47.1509 224.152C47.8827 223.765 48.6145 223.378 49.3547 222.991C49.4893 223.496 49.6239 223.992 49.75 224.498C50.0192 224.43 50.65 224.388 51.6426 224.363C51.7435 224.178 51.8108 223.976 51.8444 223.774C51.9117 223.428 52.0463 223.201 52.2566 223.092C52.4753 222.982 52.6856 222.873 52.9043 222.755C52.98 222.713 53.0557 222.662 53.1314 222.62C53.266 222.57 53.3837 222.662 53.4847 222.881C53.4847 222.898 53.5519 223.024 53.6697 223.243C54.166 224.262 54.6622 225.28 55.1585 226.299C55.1837 226.349 55.2258 226.434 55.2847 226.551C55.6211 227.174 55.8062 227.57 55.8482 227.738C55.9071 227.949 55.68 228.176 55.1921 228.429C54.7043 228.673 54.4183 228.807 54.3258 228.816C54.2333 228.824 54.023 228.673 53.7118 228.344C52.4753 227.073 51.3314 226.442 50.2799 226.45C50.7594 228.26 51.2388 230.07 51.7099 231.88C54.2585 232.191 56.0333 232.755 57.0174 233.555C58.0099 234.355 58.6997 235.5 59.095 236.989C59.4483 238.319 59.4819 239.523 59.1875 240.592C58.9015 241.661 58.4726 242.579 57.9006 243.336C57.3286 244.094 56.4707 244.826 55.3183 245.533C55.5202 246.291 55.7136 247.04 55.9155 247.798C55.1837 248.185 54.4519 248.572 53.7202 248.959C53.5015 248.126 53.2828 247.293 53.0641 246.468C52.2734 246.527 51.7435 246.535 51.4659 246.493C51.222 246.451 51.037 246.459 50.9276 246.518C50.7342 246.619 50.6164 246.906 50.5743 247.377C50.5407 247.663 50.4818 247.865 50.3893 247.966C50.2968 248.067 49.9855 248.261 49.4472 248.53C49.279 248.614 49.1108 248.454 48.9257 248.042C48.236 246.552 47.5379 245.054 46.8481 243.564C46.7388 243.328 46.6715 243.185 46.6631 243.143C46.579 242.823 46.8229 242.52 47.4117 242.225C47.8659 241.99 48.1771 241.905 48.3369 241.956C48.4967 242.015 48.8332 242.284 49.3715 242.781C50.6753 243.993 51.7351 244.574 52.5678 244.549C52.0043 242.419 51.4491 240.298 50.8856 238.168C46.8313 237.924 44.4089 236.291 43.6434 233.403C43.3827 232.41 43.307 231.51 43.4163 230.701C43.5257 229.893 43.8789 229.018 44.4761 228.083C45.0733 227.141 46.0911 226.282 47.521 225.482C47.4033 225.045 47.2855 224.599 47.1678 224.161L47.1509 224.152ZM49.136 231.745C48.7154 230.154 48.2949 228.563 47.8743 226.972C47.2771 227.284 46.8565 227.73 46.6042 228.302C46.3519 228.875 46.2846 229.388 46.4023 229.826C46.6715 230.836 47.5799 231.476 49.136 231.745ZM53.4594 238.513C53.9304 240.298 54.4015 242.091 54.8725 243.875C56.109 242.983 56.5632 241.905 56.2267 240.626C55.9239 239.49 54.9987 238.782 53.4594 238.513Z" fill="#AEB992"/>
<g style="mix-blend-mode:multiply">
<path d="M46.4949 216.4C35.434 222.225 24.3647 227.999 11.159 225.676L21.4544 264.726C34.6601 267.049 45.7294 261.275 56.7903 255.449L46.4949 216.4Z" fill="#C0C3C0"/>
</g>
<path d="M101.109 258.53C76.4223 247.621 52.2902 270.635 27.6031 259.725C27.3844 246.265 27.1657 232.806 26.947 219.346C51.6342 230.255 75.7662 207.249 100.453 218.159C100.672 231.619 100.891 245.079 101.109 258.539V258.53Z" fill="#4A632E"/>
<path d="M99.5365 257.402C75.9008 247.124 52.7781 268.825 29.1423 258.539C28.9321 245.845 28.7302 233.151 28.5283 220.465C52.1641 230.743 75.2868 209.042 98.9225 219.329C99.1244 232.023 99.3347 244.717 99.5365 257.411V257.402Z" fill="#678240"/>
<path d="M96.6683 245.339C96.5758 239.632 96.4832 233.933 96.3907 228.226C92.286 227.023 88.9131 223.597 88.8458 219.48C72.0652 218.192 55.4697 227.755 38.6892 226.467C38.7565 230.533 35.4929 233.731 31.3882 232.528C31.4807 238.235 31.5732 243.934 31.6657 249.641C35.7704 250.845 39.1434 254.271 39.2107 258.387C55.9912 259.675 72.5867 250.112 89.3673 251.4C89.3 247.335 92.5636 244.136 96.6683 245.339Z" fill="#A2AD89"/>
<path d="M94.7253 244.952C94.6327 239.59 94.5486 234.22 94.4645 228.858C90.6037 227.721 87.4327 224.497 87.3738 220.634C71.5942 219.43 55.9828 228.412 40.2032 227.208C40.2621 231.029 37.2004 234.043 33.3396 232.907C33.4237 238.269 33.5162 243.631 33.6003 249.001C37.4611 250.138 40.6322 253.353 40.6911 257.225C56.4707 258.429 72.082 249.447 87.8616 250.651C87.8028 246.829 90.8645 243.816 94.7337 244.952H94.7253Z" fill="#AEB992"/>
<path d="M79.1644 235.785C79.3242 245.887 72.6792 255.138 64.3184 257.352C55.966 259.566 49.0435 252.326 48.8837 242.09C48.7239 231.989 55.3688 222.738 63.7212 220.524C72.0736 218.31 78.9961 225.55 79.1559 235.785H79.1644Z" fill="#678240"/>
<path d="M62.2492 226.492C63.0567 226.29 63.8558 226.097 64.6633 225.895C64.6633 226.416 64.6801 226.93 64.6885 227.452C64.9661 227.452 65.5885 227.561 66.5642 227.78C66.7072 227.62 66.8166 227.443 66.9007 227.258C67.0437 226.938 67.2371 226.745 67.4642 226.694C67.6998 226.635 67.9353 226.576 68.1708 226.526C68.2549 226.501 68.339 226.475 68.4231 226.45C68.5661 226.433 68.6586 226.551 68.7007 226.787C68.7007 226.804 68.7344 226.938 68.7932 227.182C69.0287 228.294 69.2643 229.396 69.4998 230.507C69.5082 230.566 69.5334 230.651 69.5587 230.777C69.7269 231.459 69.8194 231.888 69.8194 232.065C69.8194 232.284 69.5587 232.452 69.0119 232.578C68.482 232.704 68.1708 232.763 68.0699 232.755C67.9773 232.747 67.8175 232.545 67.5904 232.149C66.6904 230.617 65.7315 229.733 64.7137 229.489C64.7474 231.358 64.7726 233.235 64.8063 235.104C67.2035 236.013 68.7932 236.989 69.5587 238.008C70.3325 239.026 70.7278 240.306 70.7531 241.838C70.7783 243.218 70.5175 244.388 69.9876 245.365C69.4493 246.341 68.8185 247.116 68.0783 247.713C67.3465 248.311 66.3287 248.816 65.0502 249.228C65.067 250.011 65.0754 250.786 65.0923 251.569C64.2932 251.771 63.4857 251.964 62.6782 252.166C62.6614 251.308 62.653 250.449 62.6362 249.582C61.8539 249.447 61.3324 249.329 61.0717 249.22C60.8445 249.127 60.6679 249.094 60.5417 249.119C60.3315 249.17 60.1548 249.414 59.995 249.868C59.8941 250.138 59.7931 250.314 59.6754 250.399C59.566 250.474 59.2128 250.584 58.624 250.727C58.4473 250.769 58.3127 250.567 58.2286 250.129C57.9174 248.513 57.5978 246.897 57.2782 245.281C57.2277 245.028 57.2025 244.877 57.2025 244.826C57.2025 244.498 57.5137 244.262 58.1445 244.11C58.6492 243.993 58.9688 243.984 59.1034 244.077C59.238 244.169 59.5072 244.523 59.9109 245.129C60.8866 246.611 61.7782 247.444 62.5857 247.612C62.552 245.415 62.51 243.21 62.4763 241.013C58.5987 239.809 56.6389 237.637 56.5884 234.649C56.5716 233.622 56.7146 232.73 57.0174 231.972C57.3202 231.215 57.8669 230.457 58.6744 229.683C59.4819 228.908 60.6679 228.319 62.2492 227.89C62.2492 227.435 62.2324 226.98 62.224 226.517L62.2492 226.492ZM62.3586 234.338C62.3333 232.696 62.3081 231.046 62.2745 229.405C61.6184 229.565 61.1053 229.893 60.7268 230.39C60.3483 230.886 60.1548 231.366 60.1632 231.821C60.1801 232.864 60.9118 233.706 62.3586 234.338ZM64.9324 241.947C64.9661 243.799 64.9913 245.643 65.025 247.494C66.4381 246.922 67.1362 245.979 67.1194 244.658C67.1026 243.479 66.3708 242.57 64.9409 241.947H64.9324Z" fill="#AEB992"/>
<g style="mix-blend-mode:multiply">
<path d="M63.4689 218.798C51.3398 221.803 39.2107 224.758 26.947 219.337L27.6031 259.717C39.8668 265.138 51.9959 262.183 64.125 259.178L63.4689 218.798Z" fill="#C0C3C0"/>
</g>
<path d="M53.6529 251.998C53.6529 260.887 46.4528 268.101 37.562 268.101C28.6713 268.101 21.4712 260.896 21.4712 251.998C21.4712 243.101 28.6797 235.895 37.562 235.895C46.4444 235.895 53.6529 243.101 53.6529 251.998Z" fill="#FDB724"/>
<path d="M51.6173 251.998C51.6173 259.759 45.3257 266.056 37.5705 266.056C29.8152 266.056 23.5236 259.759 23.5236 251.998C23.5236 244.237 29.8152 237.94 37.5705 237.94C45.3257 237.94 51.6173 244.237 51.6173 251.998Z" fill="#F47529"/>
<path d="M52.7192 251.998C52.7192 260.374 45.9313 267.159 37.5704 267.159C29.2096 267.159 22.4217 260.374 22.4217 251.998C22.4217 243.623 29.2012 236.838 37.5704 236.838C45.9397 236.838 52.7192 243.623 52.7192 251.998Z" stroke="#FFDE17" stroke-width="0.42" stroke-miterlimit="10"/>
<path d="M50.8351 251.998C50.8351 259.33 44.8883 265.281 37.562 265.281C30.2358 265.281 24.289 259.338 24.289 251.998C24.289 244.658 30.2274 238.715 37.562 238.715C44.8967 238.715 50.8351 244.658 50.8351 251.998Z" fill="#FDB724"/>
<path d="M37.1078 241.51H39.0593V242.764C39.278 242.815 39.7826 243.025 40.5649 243.395C40.6826 243.294 40.7752 243.176 40.8425 243.042C40.9602 242.815 41.12 242.697 41.2967 242.697H42.0789C42.1967 242.697 42.264 242.806 42.2976 243.008C42.2976 243.025 42.3228 243.134 42.3649 243.345L42.8948 246.148C42.8948 246.19 42.9201 246.274 42.9369 246.375C43.0715 246.956 43.1303 247.318 43.1303 247.453C43.1303 247.629 42.9116 247.714 42.4743 247.714C42.0369 247.714 41.7929 247.697 41.7172 247.672C41.6415 247.646 41.5154 247.453 41.3387 247.091C40.6322 245.685 39.8752 244.784 39.0509 244.389V248.917C40.9686 250.13 42.2387 251.215 42.8443 252.175C43.45 253.135 43.7528 254.229 43.7528 255.475C43.7528 256.586 43.5341 257.487 43.0883 258.168C42.6425 258.85 42.121 259.364 41.5238 259.7C40.9266 260.037 40.1023 260.248 39.0593 260.323V262.209H37.1078V260.13C36.477 259.869 36.0648 259.667 35.8546 259.532C35.6695 259.414 35.5265 259.347 35.4256 259.347C35.2574 259.347 35.106 259.515 34.9798 259.844C34.8957 260.046 34.8031 260.163 34.719 260.206C34.6265 260.248 34.3405 260.264 33.8695 260.264C33.7265 260.264 33.6256 260.079 33.5583 259.709L32.8601 255.643C32.8181 255.433 32.8013 255.298 32.8013 255.264C32.8013 254.995 33.062 254.86 33.5751 254.86C33.9788 254.86 34.2396 254.911 34.3489 255.012C34.4583 255.113 34.6686 255.441 34.9882 256.013C35.7536 257.394 36.4602 258.236 37.1163 258.53V253.21C34.0041 251.468 32.4564 249.397 32.4564 246.981C32.4564 246.156 32.5826 245.466 32.8349 244.911C33.0872 244.355 33.5414 243.841 34.1975 243.379C34.8536 242.916 35.8293 242.663 37.1078 242.629V241.527V241.51ZM37.0994 247.831V243.85C36.5695 243.85 36.1489 244.01 35.8377 244.338C35.5265 244.666 35.3667 245.012 35.3667 245.382C35.3667 246.224 35.9471 247.04 37.0994 247.831ZM39.0761 254.456V258.926C40.2284 258.749 40.8004 258.126 40.8004 257.066C40.8004 256.114 40.2284 255.247 39.0761 254.456Z" fill="#F58428" stroke="#CF6122" stroke-width="0.42" stroke-miterlimit="10"/>
<g style="mix-blend-mode:soft-light" opacity="0.6">
<path d="M50.7762 250.634C48.9762 256.325 42.5415 259.355 36.3929 257.411C30.2442 255.458 26.7283 249.271 28.5283 243.58C30.3283 237.89 36.7714 234.86 42.9116 236.804C49.0603 238.749 52.5762 244.944 50.7762 250.634Z" fill="white"/>
</g>
<g style="mix-blend-mode:soft-light" opacity="0.6">
<path d="M48.9005 248.303C47.479 252.781 42.4238 255.163 37.5873 253.631C32.7592 252.099 29.9835 247.234 31.3966 242.755C32.8097 238.277 37.8817 235.895 42.7098 237.427C47.5463 238.959 50.3136 243.825 48.9005 248.303Z" fill="white"/>
</g>
<g style="mix-blend-mode:soft-light" opacity="0.6">
<path d="M47.4117 245.676C46.335 249.077 42.4911 250.887 38.8238 249.725C35.1564 248.564 33.0536 244.868 34.1302 241.468C35.2069 238.067 39.0509 236.265 42.7182 237.427C46.3855 238.589 48.4883 242.284 47.4117 245.685V245.676Z" fill="white"/>
</g>
<g style="mix-blend-mode:soft-light" opacity="0.6">
<path d="M45.8051 242.857C45.0986 245.096 42.5668 246.291 40.1443 245.525C37.7303 244.759 36.3424 242.326 37.049 240.087C37.7555 237.848 40.2873 236.653 42.7014 237.427C45.1154 238.193 46.5033 240.626 45.7967 242.865L45.8051 242.857Z" fill="white"/>
</g>
<path d="M94.5907 247.554C94.5907 254.086 86.5158 259.372 76.5653 259.372C66.6147 259.372 58.5398 254.077 58.5398 247.554C58.5398 241.03 66.6063 235.735 76.5653 235.735C86.5242 235.735 94.5907 241.03 94.5907 247.554Z" fill="#FFCB1F"/>
<path d="M93.1608 247.091C93.1608 252.84 85.7336 257.512 76.5653 257.512C67.3969 257.512 59.9698 252.848 59.9698 247.091C59.9698 241.333 67.3969 236.669 76.5653 236.669C85.7336 236.669 93.1608 241.333 93.1608 247.091Z" fill="#FDB724"/>
<g style="mix-blend-mode:multiply" opacity="0.5">
<path d="M76.5569 237.84C83.6308 237.84 89.7205 240.466 92.4626 244.237C90.3766 239.784 84.0513 236.543 76.5569 236.543C69.0624 236.543 62.7371 239.784 60.6511 244.237C63.3932 240.466 69.4829 237.84 76.5569 237.84Z" fill="#CE9A8F"/>
</g>
<path d="M64.8904 248.261V245.971H66.3623C66.4212 245.71 66.6736 245.121 67.1025 244.212C66.9848 244.077 66.8502 243.968 66.682 243.892C66.4128 243.749 66.2782 243.572 66.2782 243.353V242.68L66.2614 242.436C66.2782 242.301 66.4044 242.217 66.6399 242.183C66.6567 242.183 66.7913 242.158 67.0353 242.099L70.3157 241.476C70.3661 241.476 70.4587 241.451 70.5848 241.425C71.2661 241.274 71.6867 241.198 71.8465 241.198C72.0568 241.198 72.1577 241.451 72.1577 241.964C72.1577 242.478 72.1409 242.764 72.1073 242.856C72.0736 242.949 71.8465 243.092 71.426 243.303C69.7858 244.128 68.7343 245.02 68.2633 245.979H73.5624C74.9755 243.732 76.2456 242.242 77.3643 241.535C78.483 240.819 79.77 240.466 81.2251 240.466C82.5289 240.466 83.5719 240.727 84.371 241.249C85.17 241.771 85.7672 242.385 86.1626 243.084C86.5579 243.791 86.8018 244.75 86.8943 245.971H89.0981V248.261H86.6672C86.3644 248.993 86.1289 249.49 85.9691 249.725C85.8261 249.944 85.7504 250.104 85.7504 250.222C85.7504 250.416 85.9439 250.592 86.3308 250.744C86.5663 250.845 86.7093 250.946 86.7598 251.055C86.8102 251.165 86.8355 251.493 86.8355 252.049C86.8355 252.217 86.6168 252.343 86.1878 252.411L81.427 253.236C81.1747 253.278 81.0317 253.303 80.9812 253.303C80.67 253.303 80.5102 253 80.5102 252.402C80.5102 251.922 80.569 251.628 80.6868 251.493C80.8046 251.367 81.1915 251.114 81.856 250.744C83.4709 249.843 84.4551 249.018 84.7999 248.252H78.5672C76.5316 251.897 74.1008 253.715 71.2746 253.715C70.3073 253.715 69.4998 253.564 68.8437 253.269C68.196 252.975 67.5904 252.436 67.0521 251.67C66.5053 250.895 66.2109 249.767 66.1773 248.269H64.882L64.8904 248.261ZM72.2923 248.269H67.6409C67.6409 248.892 67.8343 249.38 68.2128 249.751C68.5913 250.121 69.0035 250.306 69.4325 250.306C70.4166 250.306 71.3755 249.633 72.3007 248.269H72.2923ZM80.0391 245.954H85.271C85.0607 244.607 84.3373 243.934 83.0924 243.934C81.9821 243.934 80.9644 244.607 80.0391 245.954Z" fill="#F58428" stroke="#CF6122" stroke-width="0.42" stroke-miterlimit="10"/>
<g style="mix-blend-mode:soft-light" opacity="0.6">
<path d="M91.1841 245.079C91.3944 249.54 84.7747 253.48 76.397 253.875C68.0194 254.263 61.0632 250.963 60.853 246.501C60.6427 242.04 67.2708 238.1 75.64 237.713C84.0177 237.318 90.9738 240.626 91.1841 245.087V245.079Z" fill="white"/>
</g>
<g style="mix-blend-mode:soft-light" opacity="0.6">
<path d="M87.8953 243.993C88.0551 247.503 82.8485 250.601 76.2625 250.904C69.6764 251.215 64.2006 248.623 64.0324 245.104C63.8726 241.594 69.0792 238.496 75.6652 238.185C82.2513 237.873 87.7271 240.474 87.8953 243.985V243.993Z" fill="white"/>
</g>
<g style="mix-blend-mode:soft-light" opacity="0.6">
<path d="M84.9429 242.595C85.0607 245.264 81.1074 247.612 76.1111 247.848C71.1063 248.084 66.9512 246.114 66.825 243.446C66.6988 240.777 70.6605 238.429 75.6569 238.193C80.6532 237.966 84.8168 239.927 84.9429 242.595Z" fill="white"/>
</g>
<g style="mix-blend-mode:soft-light" opacity="0.6">
<path d="M81.7803 241.089C81.8644 242.848 79.2569 244.397 75.9681 244.548C72.6792 244.708 69.9372 243.404 69.8615 241.644C69.7773 239.893 72.3848 238.345 75.6737 238.185C78.9709 238.033 81.7046 239.329 81.7887 241.08L81.7803 241.089Z" fill="white"/>
</g>
<path d="M58.5398 241.03V247.091H58.5567C58.952 253.168 66.8586 258.025 76.5653 258.025C86.2719 258.025 94.1785 253.168 94.5739 247.091H94.5907V241.03H58.5398Z" fill="#EC951A"/>
<g style="mix-blend-mode:multiply" opacity="0.5">
<path d="M63.6455 241.03H58.5314V247.091H58.5483C58.7333 249.995 60.6427 252.621 63.6455 254.574V241.03Z" fill="#CE9A8F"/>
</g>
<g style="mix-blend-mode:multiply" opacity="0.5">
<path d="M69.7269 241.03H68.7596V256.897C69.0792 256.998 69.3988 257.083 69.7269 257.167V241.021V241.03Z" fill="#CE9A8F"/>
</g>
<g style="mix-blend-mode:multiply" opacity="0.5">
<path d="M71.8381 241.03H70.2568V257.301C70.7783 257.427 71.3082 257.529 71.8381 257.621V241.03Z" fill="#CE9A8F"/>
</g>
<g style="mix-blend-mode:multiply" opacity="0.5">
<path d="M75.1858 241.03H73.6886V257.874C74.1765 257.924 74.6811 257.958 75.1858 257.983V241.021V241.03Z" fill="#CE9A8F"/>
</g>
<g style="mix-blend-mode:multiply" opacity="0.5">
<path d="M77.3055 241.03H76.2456V258.017C76.355 258.017 76.4559 258.017 76.5653 258.017C76.8092 258.017 77.0615 258.017 77.3055 258.008V241.03Z" fill="#CE9A8F"/>
</g>
<g style="mix-blend-mode:multiply" opacity="0.5">
<path d="M87.6934 241.03H86.7261V256.039C87.0626 255.895 87.3822 255.744 87.6934 255.584V241.03Z" fill="#CE9A8F"/>
</g>
<g style="mix-blend-mode:multiply" opacity="0.5">
<path d="M91.571 241.03H90.957V253.471C91.1673 253.295 91.3692 253.109 91.571 252.916V241.021V241.03Z" fill="#CE9A8F"/>
</g>
<g style="mix-blend-mode:multiply" opacity="0.5">
<path d="M92.4542 241.03V251.99C93.7075 250.517 94.4561 248.858 94.5739 247.082H94.5907V241.021H92.4542V241.03Z" fill="#CE9A8F"/>
</g>
<path d="M94.5907 240.281C94.5907 246.813 86.5158 252.099 76.5653 252.099C66.6147 252.099 58.5398 246.804 58.5398 240.281C58.5398 233.757 66.6063 228.462 76.5653 228.462C86.5242 228.462 94.5907 233.757 94.5907 240.281Z" fill="#FFCB1F"/>
<path d="M93.1608 239.818C93.1608 245.567 85.7336 250.239 76.5653 250.239C67.3969 250.239 59.9698 245.575 59.9698 239.818C59.9698 234.06 67.3969 229.396 76.5653 229.396C85.7336 229.396 93.1608 234.06 93.1608 239.818Z" fill="#FDB724"/>
<g style="mix-blend-mode:multiply" opacity="0.5">
<path d="M76.5569 230.575C83.6308 230.575 89.7205 233.201 92.4626 236.972C90.3766 232.519 84.0513 229.279 76.5569 229.279C69.0624 229.279 62.7371 232.519 60.6511 236.972C63.3932 233.201 69.4829 230.575 76.5569 230.575Z" fill="#CE9A8F"/>
</g>
<path d="M64.8904 240.996V238.707H66.3623C66.4212 238.446 66.6736 237.856 67.1025 236.947C66.9848 236.813 66.8502 236.703 66.682 236.627C66.4128 236.484 66.2782 236.308 66.2782 236.089V235.415L66.2614 235.171C66.2782 235.036 66.4044 234.952 66.6399 234.919C66.6567 234.919 66.7913 234.893 67.0353 234.834L70.3157 234.212C70.3661 234.203 70.4587 234.186 70.5848 234.161C71.2661 234.01 71.6867 233.934 71.8465 233.934C72.0568 233.934 72.1577 234.186 72.1577 234.7C72.1577 235.213 72.1409 235.499 72.1073 235.584C72.0736 235.676 71.8465 235.819 71.426 236.03C69.7858 236.855 68.7343 237.747 68.2633 238.707H73.5624C74.9755 236.451 76.2456 234.969 77.3643 234.254C78.483 233.538 79.77 233.185 81.2251 233.185C82.5289 233.185 83.5719 233.446 84.371 233.967C85.17 234.489 85.7672 235.104 86.1626 235.802C86.5579 236.51 86.8018 237.469 86.8943 238.69H89.0981V240.979H86.6672C86.3644 241.712 86.1289 242.2 85.9691 242.444C85.8261 242.663 85.7504 242.823 85.7504 242.941C85.7504 243.143 85.9439 243.311 86.3308 243.463C86.5663 243.564 86.7093 243.665 86.7598 243.774C86.8102 243.884 86.8355 244.212 86.8355 244.767C86.8355 244.936 86.6168 245.062 86.1878 245.129L81.427 245.954C81.1747 245.996 81.0317 246.022 80.9812 246.022C80.67 246.022 80.5102 245.719 80.5102 245.121C80.5102 244.641 80.569 244.346 80.6868 244.212C80.8046 244.077 81.1915 243.833 81.856 243.463C83.4709 242.562 84.4551 241.737 84.7999 240.971H78.5672C76.5316 244.616 74.1008 246.434 71.2746 246.434C70.3073 246.434 69.4998 246.291 68.8437 245.988C68.196 245.693 67.5904 245.155 67.0521 244.389C66.5053 243.614 66.2109 242.478 66.1773 240.979H64.882L64.8904 240.996ZM72.2923 241.013H67.6409C67.6409 241.628 67.8343 242.124 68.2128 242.495C68.5913 242.865 69.0035 243.05 69.4325 243.05C70.4166 243.05 71.3755 242.377 72.3007 241.021L72.2923 241.013ZM80.0391 238.698H85.271C85.0607 237.351 84.3373 236.678 83.0924 236.678C81.9821 236.678 80.9644 237.351 80.0391 238.698Z" fill="#F58428" stroke="#CF6122" stroke-width="0.42" stroke-miterlimit="10"/>
<g style="mix-blend-mode:soft-light" opacity="0.6">
<path d="M91.1841 237.806C91.3944 242.267 84.7747 246.207 76.397 246.602C68.0194 246.99 61.0632 243.69 60.853 239.229C60.6427 234.767 67.2708 230.828 75.64 230.432C84.0177 230.036 90.9738 233.345 91.1841 237.806Z" fill="white"/>
</g>
<g style="mix-blend-mode:soft-light" opacity="0.6">
<path d="M87.8953 236.72C88.0551 240.23 82.8485 243.328 76.2625 243.631C69.6764 243.942 64.2006 241.35 64.0324 237.831C63.8726 234.321 69.0792 231.223 75.6652 230.912C82.2513 230.609 87.7271 233.201 87.8953 236.712V236.72Z" fill="white"/>
</g>
<g style="mix-blend-mode:soft-light" opacity="0.6">
<path d="M84.9429 235.323C85.0607 237.991 81.1074 240.34 76.1111 240.575C71.1063 240.811 66.9512 238.841 66.825 236.173C66.6988 233.505 70.6605 231.156 75.6569 230.92C80.6532 230.693 84.8168 232.654 84.9429 235.323Z" fill="white"/>
</g>
<g style="mix-blend-mode:soft-light" opacity="0.6">
<path d="M81.7803 233.816C81.8644 235.575 79.2569 237.124 75.9681 237.275C72.6792 237.427 69.9372 236.131 69.8615 234.371C69.7773 232.62 72.3848 231.072 75.6737 230.912C78.9709 230.76 81.7046 232.057 81.7887 233.807L81.7803 233.816Z" fill="white"/>
</g>
<path d="M58.5398 233.765V239.826H58.5567C58.952 245.904 66.8586 250.761 76.5653 250.761C86.2719 250.761 94.1785 245.904 94.5739 239.826H94.5907V233.765H58.5398Z" fill="#EC951A"/>
<g style="mix-blend-mode:multiply" opacity="0.5">
<path d="M63.6455 233.765H58.5314V239.826H58.5483C58.7333 242.73 60.6427 245.357 63.6455 247.309V233.774V233.765Z" fill="#CE9A8F"/>
</g>
<g style="mix-blend-mode:multiply" opacity="0.5">
<path d="M69.7269 233.765H68.7596V249.633C69.0792 249.734 69.3988 249.818 69.7269 249.902V233.757V233.765Z" fill="#CE9A8F"/>
</g>
<g style="mix-blend-mode:multiply" opacity="0.5">
<path d="M71.8381 233.765H70.2568V250.037C70.7783 250.163 71.3082 250.264 71.8381 250.357V233.765Z" fill="#CE9A8F"/>
</g>
<g style="mix-blend-mode:multiply" opacity="0.5">
<path d="M75.1858 233.765H73.6886V250.609C74.1765 250.66 74.6811 250.693 75.1858 250.719V233.757V233.765Z" fill="#CE9A8F"/>
</g>
<g style="mix-blend-mode:multiply" opacity="0.5">
<path d="M77.3055 233.765H76.2456V250.752C76.355 250.752 76.4559 250.761 76.5653 250.761C76.8092 250.761 77.0615 250.761 77.3055 250.752V233.765Z" fill="#CE9A8F"/>
</g>
<g style="mix-blend-mode:multiply" opacity="0.5">
<path d="M87.6934 233.765H86.7261V248.766C87.0626 248.623 87.3822 248.471 87.6934 248.311V233.757V233.765Z" fill="#CE9A8F"/>
</g>
<g style="mix-blend-mode:multiply" opacity="0.5">
<path d="M91.571 233.765H90.957V246.207C91.1673 246.03 91.3692 245.845 91.571 245.651V233.765Z" fill="#CE9A8F"/>
</g>
<g style="mix-blend-mode:multiply" opacity="0.5">
<path d="M92.4542 233.765V244.725C93.7075 243.252 94.4561 241.594 94.5739 239.826H94.5907V233.765H92.4542Z" fill="#CE9A8F"/>
</g>
<path d="M94.5907 233.008C94.5907 239.54 86.5158 244.826 76.5653 244.826C66.6147 244.826 58.5398 239.531 58.5398 233.008C58.5398 226.484 66.6063 221.189 76.5653 221.189C86.5242 221.189 94.5907 226.484 94.5907 233.008Z" fill="#FFCB1F"/>
<path d="M93.1608 232.545C93.1608 238.302 85.7336 242.966 76.5653 242.966C67.3969 242.966 59.9698 238.302 59.9698 232.545C59.9698 226.787 67.3969 222.124 76.5653 222.124C85.7336 222.124 93.1608 226.787 93.1608 232.545Z" fill="#FDB724"/>
<g style="mix-blend-mode:multiply" opacity="0.5">
<path d="M76.5569 223.302C83.6308 223.302 89.7205 225.928 92.4626 229.699C90.3766 225.246 84.0513 222.006 76.5569 222.006C69.0624 222.006 62.7371 225.246 60.6511 229.699C63.3932 225.928 69.4829 223.302 76.5569 223.302Z" fill="#CE9A8F"/>
</g>
<g style="mix-blend-mode:soft-light">
<path d="M76.5653 243.665C68.8353 243.665 62.3333 240.39 59.1875 234.876C60.2558 240.71 68.3811 244.599 76.5653 244.599C84.7495 244.599 92.8664 240.979 93.943 234.876C90.8981 241.013 84.2953 243.665 76.5653 243.665Z" fill="white"/>
</g>
<path d="M64.8904 233.723V231.434H66.3623C66.4212 231.173 66.6736 230.583 67.1025 229.674C66.9848 229.54 66.8502 229.43 66.682 229.354C66.4128 229.211 66.2782 229.035 66.2782 228.816V228.142L66.2614 227.898C66.2782 227.764 66.4044 227.679 66.6399 227.646C66.6567 227.646 66.7913 227.62 67.0353 227.561L70.3157 226.939C70.3661 226.93 70.4587 226.913 70.5848 226.888C71.2661 226.737 71.6867 226.661 71.8465 226.661C72.0568 226.661 72.1577 226.913 72.1577 227.427C72.1577 227.94 72.1409 228.227 72.1073 228.311C72.0736 228.403 71.8465 228.546 71.426 228.757C69.7858 229.582 68.7343 230.474 68.2633 231.434H73.5624C74.9755 229.186 76.2456 227.696 77.3643 226.981C78.483 226.265 79.77 225.912 81.2251 225.912C82.5289 225.912 83.5719 226.173 84.371 226.694C85.17 227.216 85.7672 227.831 86.1626 228.53C86.5579 229.237 86.8018 230.196 86.8943 231.417H89.0981V233.706H86.6672C86.3644 234.439 86.1289 234.927 85.9691 235.171C85.8261 235.382 85.7504 235.55 85.7504 235.668C85.7504 235.87 85.9439 236.038 86.3308 236.19C86.5663 236.291 86.7093 236.392 86.7598 236.501C86.8102 236.611 86.8355 236.939 86.8355 237.494C86.8355 237.663 86.6168 237.789 86.1878 237.856L81.427 238.681C81.1747 238.723 81.0317 238.749 80.9812 238.749C80.67 238.749 80.5102 238.446 80.5102 237.848C80.5102 237.368 80.569 237.065 80.6868 236.939C80.8046 236.813 81.1915 236.56 81.856 236.19C83.4709 235.289 84.4551 234.464 84.7999 233.698H78.5672C76.5316 237.343 74.1008 239.161 71.2746 239.161C70.3073 239.161 69.4998 239.01 68.8437 238.715C68.196 238.42 67.5904 237.882 67.0521 237.116C66.5053 236.341 66.2109 235.205 66.1773 233.706H64.882L64.8904 233.723ZM72.2923 233.74H67.6409C67.6409 234.363 67.8343 234.851 68.2128 235.222C68.5913 235.592 69.0035 235.777 69.4325 235.777C70.4166 235.777 71.3755 235.104 72.3007 233.749L72.2923 233.74ZM80.0391 231.425H85.271C85.0607 230.078 84.3373 229.405 83.0924 229.405C81.9821 229.405 80.9644 230.078 80.0391 231.425Z" fill="#F58428" stroke="#CF6122" stroke-width="0.42" stroke-miterlimit="10"/>
<g style="mix-blend-mode:soft-light" opacity="0.6">
<path d="M91.1841 230.541C91.3944 235.003 84.7747 238.942 76.397 239.338C68.0194 239.725 61.0632 236.425 60.853 231.964C60.6427 227.502 67.2708 223.563 75.64 223.167C84.0177 222.772 90.9738 226.08 91.1841 230.541Z" fill="white"/>
</g>
<g style="mix-blend-mode:soft-light" opacity="0.6">
<path d="M87.8953 229.447C88.0551 232.957 82.8485 236.055 76.2625 236.358C69.6764 236.669 64.2006 234.068 64.0324 230.558C63.8726 227.048 69.0792 223.95 75.6652 223.639C82.2513 223.336 87.7271 225.928 87.8953 229.439V229.447Z" fill="white"/>
</g>
<g style="mix-blend-mode:soft-light" opacity="0.6">
<path d="M84.9429 228.05C85.0607 230.718 81.1074 233.066 76.1111 233.302C71.1063 233.538 66.9512 231.568 66.825 228.9C66.6988 226.231 70.6605 223.883 75.6569 223.647C80.6532 223.42 84.8168 225.381 84.9429 228.05Z" fill="white"/>
</g>
<g style="mix-blend-mode:soft-light" opacity="0.6">
<path d="M81.7803 226.543C81.8644 228.302 79.2569 229.851 75.9681 230.003C72.6792 230.162 69.9372 228.858 69.8615 227.098C69.7773 225.348 72.3848 223.799 75.6737 223.639C78.9709 223.487 81.7046 224.784 81.7887 226.534L81.7803 226.543Z" fill="white"/>
</g>
<path d="M58.5398 226.492V232.553H58.5567C58.952 238.631 66.8586 243.488 76.5653 243.488C86.2719 243.488 94.1785 238.631 94.5739 232.553H94.5907V226.492H58.5398Z" fill="#EC951A"/>
<g style="mix-blend-mode:multiply" opacity="0.5">
<path d="M63.6455 226.492H58.5314V232.553H58.5483C58.7333 235.457 60.6427 238.084 63.6455 240.037V226.492Z" fill="#CE9A8F"/>
</g>
<g style="mix-blend-mode:multiply" opacity="0.5">
<path d="M69.7269 226.492H68.7596V242.36C69.0792 242.461 69.3988 242.545 69.7269 242.629V226.484V226.492Z" fill="#CE9A8F"/>
</g>
<g style="mix-blend-mode:multiply" opacity="0.5">
<path d="M71.8381 226.492H70.2568V242.764C70.7783 242.89 71.3082 242.991 71.8381 243.084V226.492Z" fill="#CE9A8F"/>
</g>
<g style="mix-blend-mode:multiply" opacity="0.5">
<path d="M75.1858 226.492H73.6886V243.336C74.1765 243.387 74.6811 243.42 75.1858 243.446V226.484V226.492Z" fill="#CE9A8F"/>
</g>
<g style="mix-blend-mode:multiply" opacity="0.5">
<path d="M77.3055 226.492H76.2456V243.479C76.355 243.479 76.4559 243.488 76.5653 243.488C76.8092 243.488 77.0615 243.488 77.3055 243.479V226.492Z" fill="#CE9A8F"/>
</g>
<g style="mix-blend-mode:multiply" opacity="0.5">
<path d="M87.6934 226.492H86.7261V241.501C87.0626 241.358 87.3822 241.207 87.6934 241.047V226.492Z" fill="#CE9A8F"/>
</g>
<g style="mix-blend-mode:multiply" opacity="0.5">
<path d="M91.571 226.492H90.957V238.934C91.1673 238.757 91.3692 238.572 91.571 238.378V226.492Z" fill="#CE9A8F"/>
</g>
<g style="mix-blend-mode:multiply" opacity="0.5">
<path d="M92.4542 226.492V237.452C93.7075 235.979 94.4561 234.321 94.5739 232.545H94.5907V226.484H92.4542V226.492Z" fill="#CE9A8F"/>
</g>
<path d="M94.5907 225.735C94.5907 232.267 86.5158 237.553 76.5653 237.553C66.6147 237.553 58.5398 232.258 58.5398 225.735C58.5398 219.211 66.6063 213.916 76.5653 213.916C86.5242 213.916 94.5907 219.211 94.5907 225.735Z" fill="#FFCB1F"/>
<path d="M93.1608 225.272C93.1608 231.029 85.7336 235.693 76.5653 235.693C67.3969 235.693 59.9698 231.029 59.9698 225.272C59.9698 219.514 67.3969 214.851 76.5653 214.851C85.7336 214.851 93.1608 219.514 93.1608 225.272Z" fill="#FDB724"/>
<g style="mix-blend-mode:multiply" opacity="0.5">
<path d="M76.5569 216.029C83.6308 216.029 89.7205 218.655 92.4626 222.426C90.3766 217.973 84.0513 214.733 76.5569 214.733C69.0624 214.733 62.7371 217.973 60.6511 222.426C63.3932 218.655 69.4829 216.029 76.5569 216.029Z" fill="#CE9A8F"/>
</g>
<g style="mix-blend-mode:soft-light">
<path d="M76.5653 236.392C68.8353 236.392 62.3333 233.117 59.1875 227.604C60.2558 233.437 68.3811 237.326 76.5653 237.326C84.7495 237.326 92.8664 233.706 93.943 227.604C90.8981 233.74 84.2953 236.392 76.5653 236.392Z" fill="white"/>
</g>
<path d="M64.8904 226.45V224.161H66.3623C66.4212 223.9 66.6736 223.31 67.1025 222.393C66.9848 222.258 66.8502 222.149 66.682 222.073C66.4128 221.93 66.2782 221.753 66.2782 221.534V220.861L66.2614 220.617C66.2782 220.482 66.4044 220.398 66.6399 220.364C66.6567 220.364 66.7913 220.339 67.0353 220.28L70.3157 219.666C70.3661 219.657 70.4587 219.64 70.5848 219.615C71.2661 219.463 71.6867 219.388 71.8465 219.388C72.0568 219.388 72.1577 219.64 72.1577 220.154C72.1577 220.667 72.1409 220.953 72.1073 221.046C72.0736 221.139 71.8465 221.282 71.426 221.492C69.7858 222.317 68.7343 223.209 68.2633 224.169H73.5624C74.9755 221.913 76.2456 220.432 77.3643 219.716C78.483 219.001 79.77 218.647 81.2251 218.647C82.5289 218.647 83.5719 218.908 84.371 219.43C85.17 219.952 85.7672 220.566 86.1626 221.265C86.5579 221.972 86.8018 222.932 86.8943 224.152H89.0981V226.442H86.6672C86.3644 227.183 86.1289 227.662 85.9691 227.906C85.8261 228.125 85.7504 228.285 85.7504 228.403C85.7504 228.597 85.9439 228.773 86.3308 228.925C86.5663 229.026 86.7093 229.127 86.7598 229.236C86.8102 229.346 86.8355 229.674 86.8355 230.23C86.8355 230.398 86.6168 230.524 86.1878 230.592L81.427 231.417C81.1747 231.459 81.0317 231.484 80.9812 231.484C80.67 231.484 80.5102 231.181 80.5102 230.583C80.5102 230.103 80.569 229.8 80.6868 229.674C80.8046 229.548 81.1915 229.295 81.856 228.925C83.4709 228.024 84.4551 227.199 84.7999 226.433H78.5672C76.5316 230.078 74.1008 231.896 71.2746 231.896C70.3073 231.896 69.4998 231.745 68.8437 231.45C68.196 231.156 67.5904 230.617 67.0521 229.851C66.5053 229.077 66.2109 227.949 66.1773 226.45H64.882H64.8904ZM72.2923 226.467H67.6409C67.6409 227.082 67.8343 227.578 68.2128 227.949C68.5913 228.319 69.0035 228.504 69.4325 228.504C70.4166 228.504 71.3755 227.831 72.3007 226.475L72.2923 226.467ZM80.0391 224.152H85.271C85.0607 222.805 84.3373 222.132 83.0924 222.132C81.9821 222.132 80.9644 222.805 80.0391 224.152Z" fill="#F58428" stroke="#CF6122" stroke-width="0.42" stroke-miterlimit="10"/>
<g style="mix-blend-mode:soft-light" opacity="0.6">
<path d="M91.1841 223.268C91.3944 227.73 84.7747 231.669 76.397 232.065C68.0194 232.452 61.0632 229.152 60.853 224.691C60.6427 220.23 67.2708 216.29 75.64 215.894C84.0177 215.499 90.9738 218.807 91.1841 223.268Z" fill="white"/>
</g>
<g style="mix-blend-mode:soft-light" opacity="0.6">
<path d="M87.8953 222.174C88.0551 225.684 82.8485 228.782 76.2625 229.085C69.6764 229.396 64.2006 226.795 64.0324 223.285C63.8726 219.775 69.0792 216.677 75.6652 216.366C82.2513 216.054 87.7271 218.655 87.8953 222.166V222.174Z" fill="white"/>
</g>
<g style="mix-blend-mode:soft-light" opacity="0.6">
<path d="M84.9429 220.777C85.0607 223.445 81.1074 225.794 76.1111 226.029C71.1063 226.265 66.9512 224.295 66.825 221.627C66.6988 218.958 70.6605 216.61 75.6569 216.374C80.6532 216.138 84.8168 218.108 84.9429 220.777Z" fill="white"/>
</g>
<g style="mix-blend-mode:soft-light" opacity="0.6">
<path d="M81.7803 219.278C81.8644 221.038 79.2569 222.586 75.9681 222.738C72.6792 222.889 69.9372 221.593 69.8615 219.834C69.7773 218.083 72.3848 216.534 75.6737 216.374C78.9709 216.223 81.7046 217.519 81.7887 219.27L81.7803 219.278Z" fill="white"/>
</g>
<path d="M58.5398 219.219V225.28H58.5567C58.952 231.358 66.8586 236.215 76.5653 236.215C86.2719 236.215 94.1785 231.358 94.5739 225.28H94.5907V219.219H58.5398Z" fill="#EC951A"/>
<g style="mix-blend-mode:multiply" opacity="0.5">
<path d="M63.6455 219.219H58.5314V225.28H58.5483C58.7333 228.184 60.6427 230.811 63.6455 232.764V219.219Z" fill="#CE9A8F"/>
</g>
<g style="mix-blend-mode:multiply" opacity="0.5">
<path d="M69.7269 219.219H68.7596V235.087C69.0792 235.179 69.3988 235.272 69.7269 235.356V219.211V219.219Z" fill="#CE9A8F"/>
</g>
<g style="mix-blend-mode:multiply" opacity="0.5">
<path d="M71.8381 219.219H70.2568V235.491C70.7783 235.617 71.3082 235.718 71.8381 235.811V219.219Z" fill="#CE9A8F"/>
</g>
<g style="mix-blend-mode:multiply" opacity="0.5">
<path d="M75.1858 219.219H73.6886V236.063C74.1765 236.114 74.6811 236.147 75.1858 236.173V219.211V219.219Z" fill="#CE9A8F"/>
</g>
<g style="mix-blend-mode:multiply" opacity="0.5">
<path d="M77.3055 219.219H76.2456V236.206C76.355 236.206 76.4559 236.206 76.5653 236.206C76.8092 236.206 77.0615 236.206 77.3055 236.198V219.211V219.219Z" fill="#CE9A8F"/>
</g>
<g style="mix-blend-mode:multiply" opacity="0.5">
<path d="M87.6934 219.219H86.7261V234.228C87.0626 234.085 87.3822 233.934 87.6934 233.774V219.219Z" fill="#CE9A8F"/>
</g>
<g style="mix-blend-mode:multiply" opacity="0.5">
<path d="M91.571 219.219H90.957V231.661C91.1673 231.484 91.3692 231.299 91.571 231.105V219.211V219.219Z" fill="#CE9A8F"/>
</g>
<g style="mix-blend-mode:multiply" opacity="0.5">
<path d="M92.4542 219.219V230.179C93.7075 228.706 94.4561 227.048 94.5739 225.272H94.5907V219.211H92.4542V219.219Z" fill="#CE9A8F"/>
</g>
<path d="M94.5907 218.462C94.5907 224.994 86.5158 230.289 76.5653 230.289C66.6147 230.289 58.5398 224.994 58.5398 218.462C58.5398 211.93 66.6063 206.643 76.5653 206.643C86.5242 206.643 94.5907 211.938 94.5907 218.462Z" fill="#FFCB1F"/>
<path d="M93.1608 217.999C93.1608 223.748 85.7336 228.42 76.5653 228.42C67.3969 228.42 59.9698 223.757 59.9698 217.999C59.9698 212.241 67.3969 207.578 76.5653 207.578C85.7336 207.578 93.1608 212.241 93.1608 217.999Z" fill="#FDB724"/>
<g style="mix-blend-mode:multiply" opacity="0.5">
<path d="M76.5569 208.756C83.6308 208.756 89.7205 211.382 92.4626 215.154C90.3766 210.701 84.0513 207.46 76.5569 207.46C69.0624 207.46 62.7371 210.701 60.6511 215.154C63.3932 211.382 69.4829 208.756 76.5569 208.756Z" fill="#CE9A8F"/>
</g>
<g style="mix-blend-mode:soft-light">
<path d="M76.5653 229.127C68.8353 229.127 62.3333 225.852 59.1875 220.339C60.2558 226.172 68.3811 230.061 76.5653 230.061C84.7495 230.061 92.8664 226.442 93.943 220.339C90.8981 226.475 84.2953 229.127 76.5653 229.127Z" fill="white"/>
</g>
<path d="M64.8904 219.177V216.888H66.3623C66.4212 216.627 66.6736 216.038 67.1025 215.12C66.9848 214.985 66.8502 214.876 66.682 214.8C66.4128 214.657 66.2782 214.48 66.2782 214.261V213.588L66.2614 213.344C66.2782 213.209 66.4044 213.125 66.6399 213.091C66.6567 213.091 66.7913 213.066 67.0353 213.007L70.3157 212.384C70.3661 212.376 70.4587 212.359 70.5848 212.334C71.2661 212.182 71.6867 212.106 71.8465 212.106C72.0568 212.106 72.1577 212.359 72.1577 212.872C72.1577 213.386 72.1409 213.672 72.1073 213.765C72.0736 213.857 71.8465 214 71.426 214.211C69.7858 215.036 68.7343 215.928 68.2633 216.888H73.5624C74.9755 214.632 76.2456 213.15 77.3643 212.435C78.483 211.719 79.77 211.366 81.2251 211.366C82.5289 211.366 83.5719 211.627 84.371 212.149C85.17 212.67 85.7672 213.285 86.1626 213.984C86.5579 214.691 86.8018 215.65 86.8943 216.871H89.0981V219.161H86.6672C86.3644 219.893 86.1289 220.39 85.9691 220.625C85.8261 220.844 85.7504 221.004 85.7504 221.122C85.7504 221.315 85.9439 221.492 86.3308 221.644C86.5663 221.745 86.7093 221.846 86.7598 221.955C86.8102 222.065 86.8355 222.393 86.8355 222.948C86.8355 223.117 86.6168 223.243 86.1878 223.31L81.427 224.135C81.1747 224.177 81.0317 224.203 80.9812 224.203C80.67 224.203 80.5102 223.9 80.5102 223.302C80.5102 222.831 80.569 222.528 80.6868 222.393C80.8046 222.267 81.1915 222.014 81.856 221.644C83.4709 220.743 84.4551 219.918 84.7999 219.152H78.5672C76.5316 222.797 74.1008 224.615 71.2746 224.615C70.3073 224.615 69.4998 224.464 68.8437 224.169C68.196 223.874 67.5904 223.336 67.0521 222.57C66.5053 221.795 66.2109 220.667 66.1773 219.169H64.882L64.8904 219.177ZM72.2923 219.194H67.6409C67.6409 219.817 67.8343 220.305 68.2128 220.676C68.5913 221.046 69.0035 221.231 69.4325 221.231C70.4166 221.231 71.3755 220.549 72.3007 219.203L72.2923 219.194ZM80.0391 216.879H85.271C85.0607 215.532 84.3373 214.859 83.0924 214.859C81.9821 214.859 80.9644 215.532 80.0391 216.879Z" fill="#F58428" stroke="#CF6122" stroke-width="0.42" stroke-miterlimit="10"/>
<g style="mix-blend-mode:soft-light" opacity="0.6">
<path d="M91.1841 215.996C91.3944 220.457 84.7747 224.396 76.397 224.792C68.0194 225.179 61.0632 221.879 60.853 217.418C60.6427 212.957 67.2708 209.017 75.64 208.63C84.0177 208.234 90.9738 211.543 91.1841 216.004V215.996Z" fill="white"/>
</g>
<g style="mix-blend-mode:soft-light" opacity="0.6">
<path d="M87.8953 214.901C88.0551 218.411 82.8485 221.509 76.2625 221.812C69.6764 222.124 64.2006 219.531 64.0324 216.012C63.8726 212.502 69.0792 209.404 75.6652 209.093C82.2513 208.781 87.7271 211.383 87.8953 214.893V214.901Z" fill="white"/>
</g>
<g style="mix-blend-mode:soft-light" opacity="0.6">
<path d="M84.9429 213.504C85.0607 216.172 81.1074 218.521 76.1111 218.757C71.1063 218.992 66.9512 217.022 66.825 214.354C66.6988 211.686 70.6605 209.337 75.6569 209.101C80.6532 208.866 84.8168 210.835 84.9429 213.504Z" fill="white"/>
</g>
<g style="mix-blend-mode:soft-light" opacity="0.6">
<path d="M81.7803 212.005C81.8644 213.765 79.2569 215.314 75.9681 215.465C72.6792 215.625 69.9372 214.32 69.8615 212.561C69.7773 210.802 72.3848 209.261 75.6737 209.101C78.9709 208.95 81.7046 210.246 81.7887 211.997L81.7803 212.005Z" fill="white"/>
</g>
<path d="M58.5398 211.947V218.007H58.5567C58.952 224.085 66.8586 228.942 76.5653 228.942C86.2719 228.942 94.1785 224.085 94.5739 218.007H94.5907V211.947H58.5398Z" fill="#EC951A"/>
<g style="mix-blend-mode:multiply" opacity="0.5">
<path d="M63.6455 211.947H58.5314V218.007H58.5483C58.7333 220.911 60.6427 223.538 63.6455 225.491V211.947Z" fill="#CE9A8F"/>
</g>
<g style="mix-blend-mode:multiply" opacity="0.5">
<path d="M69.7269 211.947H68.7596V227.814C69.0792 227.915 69.3988 227.999 69.7269 228.083V211.938V211.947Z" fill="#CE9A8F"/>
</g>
<g style="mix-blend-mode:multiply" opacity="0.5">
<path d="M71.8381 211.947H70.2568V228.218C70.7783 228.344 71.3082 228.445 71.8381 228.538V211.947Z" fill="#CE9A8F"/>
</g>
<g style="mix-blend-mode:multiply" opacity="0.5">
<path d="M75.1858 211.947H73.6886V228.791C74.1765 228.841 74.6811 228.875 75.1858 228.9V211.938V211.947Z" fill="#CE9A8F"/>
</g>
<g style="mix-blend-mode:multiply" opacity="0.5">
<path d="M77.3055 211.947H76.2456V228.933C76.355 228.933 76.4559 228.942 76.5653 228.942C76.8092 228.942 77.0615 228.942 77.3055 228.933V211.947Z" fill="#CE9A8F"/>
</g>
<g style="mix-blend-mode:multiply" opacity="0.5">
<path d="M87.6934 211.947H86.7261V226.955C87.0626 226.812 87.3822 226.661 87.6934 226.501V211.947Z" fill="#CE9A8F"/>
</g>
<g style="mix-blend-mode:multiply" opacity="0.5">
<path d="M91.571 211.947H90.957V224.388C91.1673 224.211 91.3692 224.026 91.571 223.832V211.938V211.947Z" fill="#CE9A8F"/>
</g>
<g style="mix-blend-mode:multiply" opacity="0.5">
<path d="M92.4542 211.947V222.907C93.7075 221.433 94.4561 219.775 94.5739 217.999H94.5907V211.938H92.4542V211.947Z" fill="#CE9A8F"/>
</g>
<path d="M94.5907 211.189C94.5907 217.721 86.5158 223.007 76.5653 223.007C66.6147 223.007 58.5398 217.713 58.5398 211.189C58.5398 204.665 66.6063 199.362 76.5653 199.362C86.5242 199.362 94.5907 204.657 94.5907 211.189Z" fill="#FFCB1F"/>
<path d="M93.1608 210.726C93.1608 216.484 85.7336 221.147 76.5653 221.147C67.3969 221.147 59.9698 216.484 59.9698 210.726C59.9698 204.968 67.3969 200.305 76.5653 200.305C85.7336 200.305 93.1608 204.968 93.1608 210.726Z" fill="#FDB724"/>
<g style="mix-blend-mode:multiply" opacity="0.5">
<path d="M76.5569 201.483C83.6308 201.483 89.7205 204.11 92.4626 207.881C90.3766 203.428 84.0513 200.187 76.5569 200.187C69.0624 200.187 62.7371 203.428 60.6511 207.881C63.3932 204.11 69.4829 201.483 76.5569 201.483Z" fill="#CE9A8F"/>
</g>
<g style="mix-blend-mode:soft-light">
<path d="M76.5653 221.854C68.8353 221.854 62.3333 218.58 59.1875 213.066C60.2558 218.9 68.3811 222.789 76.5653 222.789C84.7495 222.789 92.8664 219.169 93.943 213.066C90.8981 219.203 84.2953 221.854 76.5653 221.854Z" fill="white"/>
</g>
<path d="M64.8904 211.905V209.615H66.3623C66.4212 209.354 66.6736 208.765 67.1025 207.847C66.9848 207.713 66.8502 207.603 66.682 207.527C66.4128 207.384 66.2782 207.207 66.2782 206.989V206.315L66.2614 206.071C66.2782 205.936 66.4044 205.852 66.6399 205.819C66.6567 205.819 66.7913 205.793 67.0353 205.734L70.3157 205.111C70.3661 205.103 70.4587 205.086 70.5848 205.061C71.2661 204.909 71.6867 204.834 71.8465 204.834C72.0568 204.834 72.1577 205.086 72.1577 205.6C72.1577 206.113 72.1409 206.399 72.1073 206.484C72.0736 206.576 71.8465 206.719 71.426 206.93C69.7858 207.755 68.7343 208.647 68.2633 209.607H73.5624C74.9755 207.351 76.2456 205.869 77.3643 205.154C78.483 204.438 79.77 204.084 81.2251 204.084C82.5289 204.084 83.5719 204.345 84.371 204.867C85.17 205.389 85.7672 206.004 86.1626 206.702C86.5579 207.409 86.8018 208.369 86.8943 209.59H89.0981V211.879H86.6672C86.3644 212.62 86.1289 213.108 85.9691 213.344C85.8261 213.563 85.7504 213.723 85.7504 213.841C85.7504 214.034 85.9439 214.211 86.3308 214.363C86.5663 214.464 86.7093 214.565 86.7598 214.674C86.8102 214.783 86.8355 215.112 86.8355 215.667C86.8355 215.836 86.6168 215.962 86.1878 216.029L81.427 216.846C81.1747 216.888 81.0317 216.913 80.9812 216.913C80.67 216.913 80.5102 216.61 80.5102 216.012C80.5102 215.533 80.569 215.238 80.6868 215.103C80.8046 214.977 81.1915 214.724 81.856 214.354C83.4709 213.453 84.4551 212.628 84.7999 211.862H78.5672C76.5316 215.507 74.1008 217.326 71.2746 217.326C70.3073 217.326 69.4998 217.174 68.8437 216.879C68.196 216.585 67.5904 216.046 67.0521 215.28C66.5053 214.506 66.2109 213.369 66.1773 211.871H64.882L64.8904 211.905ZM72.2923 211.921H67.6409C67.6409 212.544 67.8343 213.033 68.2128 213.403C68.5913 213.773 69.0035 213.958 69.4325 213.958C70.4166 213.958 71.3755 213.285 72.3007 211.93L72.2923 211.921ZM80.0391 209.607H85.271C85.0607 208.26 84.3373 207.586 83.0924 207.586C81.9821 207.586 80.9644 208.26 80.0391 209.607Z" fill="#F58428" stroke="#CF6122" stroke-width="0.42" stroke-miterlimit="10"/>
<g style="mix-blend-mode:soft-light" opacity="0.6">
<path d="M91.1841 208.723C91.3944 213.184 84.7747 217.124 76.397 217.519C68.0194 217.906 61.0632 214.607 60.853 210.145C60.6427 205.684 67.2708 201.744 75.64 201.349C84.0177 200.953 90.9738 204.261 91.1841 208.723Z" fill="white"/>
</g>
<g style="mix-blend-mode:soft-light" opacity="0.6">
<path d="M87.8953 207.628C88.0551 211.139 82.8485 214.236 76.2625 214.539C69.6764 214.851 64.2006 212.258 64.0324 208.74C63.8726 205.229 69.0792 202.132 75.6652 201.82C82.2513 201.517 87.7271 204.11 87.8953 207.62V207.628Z" fill="white"/>
</g>
<g style="mix-blend-mode:soft-light" opacity="0.6">
<path d="M84.9429 206.231C85.0607 208.899 81.1074 211.248 76.1111 211.484C71.1063 211.719 66.9512 209.75 66.825 207.081C66.6988 204.413 70.6605 202.064 75.6569 201.828C80.6532 201.601 84.8168 203.563 84.9429 206.231Z" fill="white"/>
</g>
<g style="mix-blend-mode:soft-light" opacity="0.6">
<path d="M81.7803 204.733C81.8644 206.492 79.2569 208.041 75.9681 208.192C72.6792 208.352 69.9372 207.047 69.8615 205.288C69.7773 203.537 72.3848 201.988 75.6737 201.828C78.9709 201.677 81.7046 202.973 81.7887 204.724L81.7803 204.733Z" fill="white"/>
</g>
<path d="M136.942 246.771L102.22 276.553L59.9109 265.719L104.39 241.897L136.942 246.771Z" fill="#4A632E"/>
<path d="M136.942 244.582L102.22 274.364L59.9109 263.539L104.39 239.708L136.942 244.582Z" fill="#4A632E"/>
<path d="M135.125 245.171L102.043 273.548L61.7277 263.227L104.112 240.533L135.125 245.171Z" fill="#678240"/>
<path d="M116.452 244.767C116.452 251.299 108.377 256.586 98.4262 256.586C88.4757 256.586 80.4008 251.291 80.4008 244.767C80.4008 238.244 88.4757 232.94 98.4262 232.94C108.377 232.94 116.452 238.235 116.452 244.767Z" fill="#FFCB1F"/>
<path d="M115.022 244.304C115.022 250.054 107.595 254.726 98.4262 254.726C89.2579 254.726 81.8307 250.062 81.8307 244.304C81.8307 238.547 89.2579 233.883 98.4262 233.883C107.595 233.883 115.022 238.547 115.022 244.304Z" fill="#FDB724"/>
<g style="mix-blend-mode:multiply" opacity="0.5">
<path d="M98.4178 235.062C105.492 235.062 111.582 237.688 114.324 241.459C112.238 237.006 105.904 233.765 98.4178 233.765C90.9318 233.765 84.5981 237.006 82.5121 241.459C85.2541 237.688 91.3355 235.062 98.4178 235.062Z" fill="#CE9A8F"/>
</g>
<path d="M86.7513 245.483V243.193H88.2149C88.2822 242.932 88.5261 242.343 88.9551 241.425C88.8374 241.291 88.7028 241.181 88.5345 241.106C88.2654 240.962 88.1308 240.786 88.1308 240.567V239.893L88.114 239.649C88.1308 239.515 88.257 239.43 88.4925 239.397C88.5093 239.397 88.6439 239.372 88.8794 239.313L92.1598 238.69C92.2103 238.681 92.3028 238.664 92.429 238.639C93.1103 238.488 93.5309 238.412 93.6991 238.412C93.901 238.412 94.0103 238.664 94.0103 239.178C94.0103 239.691 93.9935 239.978 93.9598 240.07C93.9262 240.163 93.6991 240.306 93.2785 240.516C91.6383 241.341 90.5869 242.234 90.1159 243.193H95.415C96.8365 240.937 98.0982 239.456 99.2253 238.74C100.344 238.025 101.631 237.671 103.086 237.671C104.381 237.671 105.433 237.932 106.232 238.454C107.031 238.976 107.628 239.59 108.024 240.289C108.419 240.996 108.663 241.956 108.747 243.176H110.951V245.466H108.52C108.217 246.198 107.981 246.695 107.822 246.931C107.679 247.149 107.603 247.309 107.603 247.427C107.603 247.629 107.796 247.798 108.183 247.949C108.419 248.05 108.553 248.151 108.604 248.261C108.654 248.37 108.68 248.698 108.68 249.254C108.68 249.422 108.469 249.549 108.032 249.616L103.271 250.441C103.019 250.483 102.876 250.508 102.825 250.508C102.514 250.508 102.354 250.205 102.354 249.607C102.354 249.136 102.413 248.833 102.531 248.698C102.649 248.564 103.036 248.32 103.7 247.949C105.315 247.048 106.299 246.224 106.652 245.458H100.42C98.3842 249.102 95.9533 250.921 93.1271 250.921C92.1598 250.921 91.3523 250.778 90.7047 250.474C90.057 250.18 89.4514 249.641 88.9131 248.875C88.3663 248.101 88.0719 246.973 88.0383 245.466H86.7429L86.7513 245.483ZM94.1449 245.5H89.4934C89.4934 246.123 89.6869 246.611 90.0654 246.981C90.4439 247.352 90.8561 247.537 91.285 247.537C92.2692 247.537 93.2281 246.855 94.1533 245.5H94.1449ZM101.892 243.185H107.124C106.922 241.838 106.19 241.164 104.945 241.164C103.835 241.164 102.817 241.838 101.892 243.185Z" fill="#F58428" stroke="#CF6122" stroke-width="0.42" stroke-miterlimit="10"/>
<g style="mix-blend-mode:soft-light" opacity="0.6">
<path d="M113.045 242.293C113.255 246.754 106.636 250.693 98.258 251.089C89.8803 251.476 82.9242 248.176 82.7139 243.715C82.5036 239.254 89.1233 235.314 97.501 234.919C105.879 234.523 112.835 237.831 113.045 242.293Z" fill="white"/>
</g>
<g style="mix-blend-mode:soft-light" opacity="0.6">
<path d="M109.756 241.207C109.916 244.717 104.709 247.814 98.1234 248.118C91.5374 248.429 86.0616 245.828 85.9018 242.318C85.742 238.808 90.9486 235.71 97.5346 235.398C104.121 235.087 109.596 237.688 109.765 241.198L109.756 241.207Z" fill="white"/>
</g>
<g style="mix-blend-mode:soft-light" opacity="0.6">
<path d="M106.812 239.809C106.938 242.478 102.977 244.826 97.9804 245.062C92.9757 245.298 88.8205 243.328 88.6944 240.659C88.5682 237.991 92.5299 235.643 97.5262 235.407C102.531 235.18 106.686 237.141 106.812 239.809Z" fill="white"/>
</g>
<g style="mix-blend-mode:soft-light" opacity="0.6">
<path d="M103.641 238.302C103.725 240.062 101.118 241.611 97.829 241.762C94.5402 241.922 91.7981 240.617 91.714 238.858C91.6299 237.107 94.2374 235.558 97.5262 235.398C100.823 235.247 103.557 236.543 103.641 238.294V238.302Z" fill="white"/>
</g>
<g opacity="0.6">
<path opacity="0.3" d="M130.793 158.494C115.097 142.105 39.2864 144.327 27.8133 158.932C18.359 170.961 3 262.251 3 270.324C3 278.396 26.6694 299.238 77.1036 299.238C127.538 299.238 155.968 280.105 155.968 270.324C155.968 260.542 139.692 167.787 130.793 158.494Z" fill="white"/>
<path opacity="0.3" d="M127.79 265.003C120.035 261.342 112.313 257.091 105.567 251.746C99.0403 246.577 93.3122 240.449 88.257 233.849C77.8185 220.221 68.8353 204.387 66.1521 187.249C64.7053 178.015 64.495 168.621 64.8399 159.302C64.9745 155.548 64.9408 151.583 65.2941 147.694C63.4773 147.846 61.6857 148.014 59.9361 148.216C59.9025 149.874 59.8941 151.507 59.8436 153.065C59.4987 163.932 59.4314 174.808 60.9791 185.599C65.6979 218.664 85.4476 248.479 109.866 270.526C117.276 277.218 125.141 283.32 133.316 288.977C144.201 284.389 151.535 279.002 154.496 274.473C145.344 272.125 136.378 269.069 127.799 265.02L127.79 265.003Z" fill="white"/>
<path opacity="0.3" d="M80.67 286.561C68.5829 277.335 59.8015 264.599 52.9884 251.14C46.4023 238.109 41.1032 224.506 38.4116 210.111C34.9125 191.424 34.6517 170.405 40.7836 151.895C34.6517 153.746 30.0255 156.112 27.8049 158.932C18.359 170.961 3 262.251 3 270.323C3 278.396 26.6694 299.238 77.1036 299.238C85.8513 299.238 94.0271 298.599 101.564 297.496C94.1449 294.743 86.9869 291.376 80.67 286.553V286.561Z" fill="white"/>
<path d="M132.299 161.945C132.299 169.934 108.646 176.407 79.484 176.407C50.322 176.407 26.661 169.934 26.661 161.945C26.661 153.957 50.3136 147.484 79.484 147.484C108.654 147.484 132.299 153.957 132.299 161.945Z" fill="white"/>
</g>
<g opacity="0.6">
<path d="M130.793 158.494C115.097 142.105 39.2864 144.327 27.8133 158.932C18.359 170.961 3 262.251 3 270.324C3 278.396 26.6694 299.238 77.1036 299.238C127.538 299.238 155.968 280.105 155.968 270.324C155.968 260.542 139.692 167.787 130.793 158.494Z" stroke="white" stroke-width="1.26" stroke-miterlimit="10"/>
<path d="M132.299 161.945C132.299 169.934 108.646 176.407 79.484 176.407C50.322 176.407 26.661 169.934 26.661 161.945C26.661 153.957 50.3136 147.484 79.484 147.484C108.654 147.484 132.299 153.957 132.299 161.945Z" stroke="white" stroke-width="1.26" stroke-miterlimit="10"/>
</g>
<path d="M113.508 154.841C113.508 160.565 98.2748 165.203 79.484 165.203C60.6931 165.203 45.4518 160.565 45.4518 154.841C45.4518 149.117 60.6847 144.487 79.484 144.487C98.2832 144.487 113.508 149.125 113.508 154.841Z" stroke="white" stroke-width="1.32" stroke-miterlimit="10"/>
<path d="M42.8528 140.396V152.374H42.8864C43.6855 157.694 59.6754 161.937 79.2905 161.937C98.9057 161.937 114.896 157.694 115.695 152.374H115.728V140.396H42.8528Z" fill="#754C29"/>
<g style="mix-blend-mode:soft-light" opacity="0.4">
<path d="M45.2752 140.396H42.8528V152.374H42.8864C43.0546 153.485 43.8873 154.546 45.2752 155.531V140.387V140.396Z" fill="white"/>
</g>
<g style="mix-blend-mode:soft-light" opacity="0.4">
<path d="M50.6753 140.396H49.4977V157.703C49.8762 157.846 50.2715 157.989 50.6753 158.132V140.396Z" fill="white"/>
</g>
<g style="mix-blend-mode:soft-light" opacity="0.4">
<path d="M51.8528 140.396V158.519C52.122 158.604 52.3996 158.688 52.6772 158.772V140.396H51.8528Z" fill="white"/>
</g>
<g style="mix-blend-mode:multiply">
<path d="M82.613 140.396C82.3018 142.408 82.7223 144.504 84.1018 146.061C85.128 147.223 86.5158 147.905 87.7355 148.822C88.9047 149.706 89.7458 150.691 90.385 152.021C91.3019 153.923 91.3187 156.827 89.5691 158.258C88.8962 158.806 87.9289 158.974 87.0962 159.05C85.4897 159.193 83.8831 159.302 82.285 159.428C78.4073 159.748 74.5129 159.984 70.6185 160.085C66.7661 160.186 62.9053 160.22 59.0529 160.253C64.8399 161.314 71.8045 161.937 79.2989 161.937C98.9141 161.937 114.904 157.694 115.703 152.374H115.737V140.396H82.613Z" fill="#CFC3BC"/>
</g>
<path d="M79.2989 150.977C98.9677 150.977 114.912 146.511 114.912 141.002C114.912 135.493 98.9677 131.027 79.2989 131.027C59.6302 131.027 43.6855 135.493 43.6855 141.002C43.6855 146.511 59.6302 150.977 79.2989 150.977Z" fill="#A97C50"/>
<path d="M115.737 139.983C115.737 145.497 99.4188 149.958 79.2905 149.958C59.1623 149.958 42.8443 145.489 42.8443 139.983C42.8443 134.478 59.1623 130 79.2905 130C99.4188 130 115.737 134.47 115.737 139.983Z" fill="#603913"/>
<path d="M112.01 139.234C112.01 143.771 97.358 147.45 79.2905 147.45C61.223 147.45 46.5706 143.771 46.5706 139.234C46.5706 134.697 61.2146 131.027 79.2905 131.027C97.3664 131.027 112.01 134.705 112.01 139.234Z" fill="#8B5E3C"/>
<g style="mix-blend-mode:multiply">
<path d="M79.2989 131.027C77.8774 131.027 76.4727 131.052 75.1017 131.094C78.4494 131.97 81.5195 133.493 84.2953 135.564C86.0953 136.911 88.3159 138.973 88.3243 141.431C88.3243 144.209 86.1205 146.103 83.5887 147.374C99.6291 146.844 112.019 143.401 112.019 139.234C112.019 134.697 97.3664 131.027 79.2989 131.027Z" fill="#CFC3BC"/>
</g>
<g style="mix-blend-mode:soft-light">
<path d="M73.6718 144.478C60.2305 144.478 49.3295 141.743 49.3295 138.367C49.3295 134.992 87.1215 144.478 73.6718 144.478Z" fill="white"/>
</g>
<g style="mix-blend-mode:soft-light" opacity="0.4">
<path d="M77.398 174.892C47.3612 173.368 30.4545 165.7 30.4545 161.322C30.4545 160.279 31.2452 156.457 40.8256 153.225C34.1134 171.331 90.6878 175.574 77.4064 174.9L77.398 174.892Z" fill="white"/>
</g>
<path d="M79.77 133.3C92.7991 133.3 104.171 134.941 110.219 137.382C105.744 134.251 93.8 132.003 79.77 132.003C65.7399 132.003 53.8043 134.243 49.321 137.382C55.3688 134.941 66.7324 133.3 79.77 133.3Z" fill="#603913"/>
<path d="M79.2401 159.723C64.2511 159.723 50.036 156.819 43.6855 152.618C47.4537 156.819 63.0988 161.011 79.2401 161.011C95.3814 161.011 111.354 157.425 114.912 152.972C109.268 156.448 94.229 159.723 79.2401 159.723Z" fill="#A97C50"/>
<g style="mix-blend-mode:multiply">
<path d="M96.6683 136.078H67.4726V140.404H96.6683V136.078Z" fill="#92766E"/>
</g>
<path d="M107.069 102.618C113.088 113.795 108.908 127.73 97.7471 133.755C86.5779 139.78 72.6538 135.597 66.6348 124.42C60.6157 113.243 64.7963 99.308 75.9655 93.2834C87.1347 87.2589 101.059 91.4414 107.078 102.61L107.069 102.618Z" fill="#FDB724"/>
<g style="mix-blend-mode:multiply" opacity="0.5">
<path d="M108.756 111.466C106.301 118.467 101.278 125.449 94.0902 128.143C87.4613 130.632 77.5055 130.587 71.6294 126.071C68.7399 123.849 66.5177 120.856 65.057 117.509C64.8338 116.991 64.6115 116.455 64.3977 115.92C64.6884 118.804 65.5362 121.668 66.9992 124.382C72.942 135.42 86.7005 139.551 97.7389 133.603C106.579 128.837 110.978 119.046 109.322 109.669C109.143 110.282 108.957 110.887 108.755 111.483L108.756 111.466Z" fill="#CE9A8F"/>
</g>
<path d="M104.505 104.006C109.754 113.765 106.112 125.935 96.3595 131.197C86.6074 136.451 74.4472 132.808 69.1898 123.048C63.9409 113.289 67.5828 101.119 77.3354 95.8571C87.0874 90.6034 99.2477 94.247 104.505 104.006Z" fill="#F47529"/>
<path d="M105.887 103.259C111.547 113.783 107.624 126.907 97.1063 132.58C86.5895 138.246 73.4769 134.312 67.8077 123.796C62.1474 113.271 66.0711 100.148 76.5885 94.474C87.1054 88.8085 100.218 92.734 105.887 103.259Z" stroke="#FFDE17" stroke-width="0.6" stroke-miterlimit="10"/>
<path d="M103.523 104.532C108.482 113.752 105.039 125.25 95.8341 130.215C86.6209 135.179 75.1318 131.734 70.1723 122.514C65.2128 113.294 68.6564 101.796 77.8696 96.8319C87.0832 91.8594 98.5719 95.313 103.532 104.524L103.523 104.532Z" fill="#FDB724"/>
<g style="mix-blend-mode:multiply" opacity="0.5">
<path d="M105.025 111.742C102.973 117.586 98.7824 123.418 92.7823 125.665C87.2466 127.744 78.9332 127.709 74.0261 123.931C71.6128 122.073 69.7585 119.573 68.5359 116.78C68.3499 116.348 68.1648 115.899 67.9882 115.45C68.2306 117.85 68.9447 120.252 70.1555 122.513C75.115 131.733 86.6126 135.178 95.8173 130.214C103.197 126.233 106.872 118.062 105.49 110.226C105.344 110.732 105.188 111.237 105.016 111.742L105.025 111.742Z" fill="#E6D2C8"/>
</g>
<path d="M79.1849 100.659L81.6364 99.3313L82.4819 100.906C82.7983 100.822 83.5692 100.748 84.803 100.684C84.8821 100.477 84.9193 100.269 84.9065 100.049C84.9024 99.6775 85.0175 99.4311 85.2524 99.3012L85.9738 98.9123L86.2269 98.7581C86.3819 98.6994 86.546 98.7762 86.7179 99.0137C86.7253 99.0309 86.8362 99.1553 87.0337 99.3858L89.5999 102.55C89.6391 102.603 89.7098 102.692 89.8128 102.807C90.3741 103.454 90.6964 103.861 90.7876 104.034C90.91 104.252 90.6931 104.51 90.1454 104.807C89.6065 105.097 89.2774 105.255 89.1668 105.274C89.0562 105.293 88.762 105.133 88.3005 104.803C86.4697 103.519 84.8954 102.906 83.6034 102.959L86.6657 108.656C89.8969 108.874 92.2272 109.378 93.6393 110.175C95.0519 110.963 96.1812 112.141 97.0192 113.698C97.7735 115.098 98.0969 116.373 97.9973 117.531C97.8976 118.688 97.5882 119.683 97.0607 120.513C96.5332 121.343 95.6442 122.16 94.3851 122.965L95.6573 125.331L93.2064 126.65L91.7964 124.041C90.8304 124.137 90.1716 124.167 89.8194 124.139C89.5091 124.113 89.2894 124.125 89.1591 124.194C88.9504 124.308 88.8739 124.616 88.9296 125.117C88.9628 125.422 88.934 125.631 88.8428 125.753C88.7522 125.865 88.4108 126.09 87.8196 126.411C87.637 126.51 87.3853 126.344 87.0551 125.929L83.4188 121.287C83.2222 121.04 83.1123 120.898 83.09 120.847C82.9071 120.507 83.1372 120.166 83.7802 119.824C84.2928 119.549 84.6532 119.435 84.8524 119.488C85.0604 119.534 85.5499 119.815 86.3302 120.315C88.2242 121.527 89.6823 122.107 90.7056 122.039L87.1016 115.35C82.0175 115.271 78.6603 113.714 77.0219 110.678C76.4658 109.643 76.15 108.681 76.098 107.818C76.0381 106.946 76.2691 105.998 76.7745 104.965C77.2882 103.932 78.3376 102.963 79.9224 102.058L79.1756 100.675L79.1849 100.659ZM83.4496 108.616L80.7605 103.615C80.0998 103.974 79.6759 104.464 79.5056 105.087C79.327 105.709 79.3719 106.251 79.6153 106.712C80.1867 107.773 81.4651 108.402 83.4496 108.616ZM90.4154 115.598L93.44 121.217C94.7605 120.221 95.0631 119.05 94.3474 117.711C93.7076 116.519 92.3915 115.812 90.4154 115.598Z" fill="#F58428" stroke="#CF6122" stroke-width="0.6" stroke-miterlimit="10"/>
<g style="mix-blend-mode:soft-light" opacity="0.6">
<path d="M102.523 102.865C104.11 111.235 98.0673 119.406 89.0305 121.126C79.9853 122.845 71.3792 117.448 69.7918 109.078C68.2045 100.708 74.2477 92.528 83.284 90.8168C92.3208 89.0972 100.935 94.4949 102.523 102.865Z" fill="white"/>
</g>
<g style="mix-blend-mode:soft-light" opacity="0.6">
<path d="M98.5905 101.199C99.8417 107.78 95.0859 114.212 87.9743 115.56C80.8706 116.918 74.0941 112.679 72.8433 106.09C71.601 99.5017 76.3479 93.0776 83.46 91.7205C90.5716 90.3719 97.3398 94.6105 98.5905 101.199Z" fill="white"/>
</g>
<g style="mix-blend-mode:soft-light" opacity="0.6">
<path d="M94.9461 98.9175C95.8916 103.912 92.2854 108.799 86.8856 109.824C81.4859 110.848 76.3446 107.63 75.3996 102.627C74.454 97.6323 78.0597 92.7535 83.46 91.7205C88.8593 90.7043 94.001 93.9145 94.9466 98.9091L94.9461 98.9175Z" fill="white"/>
</g>
<g style="mix-blend-mode:soft-light" opacity="0.6">
<path d="M91.0252 96.4599C91.6462 99.7582 89.2727 102.97 85.7211 103.645C82.1695 104.319 78.7768 102.204 78.1559 98.9055C77.5261 95.6151 79.9079 92.4035 83.4595 91.729C87.0111 91.0544 90.4034 93.1784 91.0252 96.4599Z" fill="white"/>
</g>
<path d="M180.844 90.3874C180.844 90.3874 168.748 92.2784 166.721 93.9842C162.253 97.7346 162.474 100.361 151.875 107.463C139.848 115.53 126.359 118.21 123.442 120.025C120.524 121.841 109.548 124.192 100.449 128.766C91.8538 133.091 85.8128 119.341 96.8117 112.016C107.811 104.692 126.993 92.1429 128.225 86.0413C129.449 79.9308 116.061 78.1817 108.861 80.0397C106.698 80.591 98.7014 85.793 96.2113 92.5311C85.6275 87.6873 75.2337 93.7055 75.2337 93.7055C75.2337 93.7055 93.293 56.4979 98.1538 54.5826C103.015 52.6589 144.493 52.3234 148.193 52.0114C154.593 51.4654 162.786 44.5883 162.786 44.5883L180.852 90.3879L180.844 90.3874Z" fill="#FAB38E"/>
<g style="mix-blend-mode:multiply">
<path d="M96.1945 92.5302C93.9284 91.4905 91.6673 90.957 89.5222 90.7506C95.3401 80.3151 109.398 72.676 121.112 75.2908C127.068 76.6166 136.429 82.6807 128.801 88.7974C127.521 89.829 126.037 90.731 124.442 91.5254C126.516 89.4261 127.904 87.5322 128.208 86.0403C129.432 79.9299 116.044 78.1808 108.844 80.0388C106.681 80.5901 98.6845 85.792 96.1945 92.5302Z" fill="#E8D6D3"/>
</g>
<g style="mix-blend-mode:soft-light" opacity="0.6">
<path d="M158.558 54.3303C154.305 56.9715 149.445 59.1651 144.547 60.252C132.174 63.0041 119.442 60.677 107.073 62.915C101.753 63.8766 96.709 65.7478 93.0125 69.8541C89.316 73.9604 86.12 78.4493 82.9804 82.9837C80.5384 86.5122 78.0721 90.0225 75.3896 93.335C77.2966 89.4387 93.5517 56.3946 98.1281 54.5896C102.989 52.6659 144.468 52.3304 148.167 52.0184C154.567 51.4724 162.761 44.5954 162.761 44.5954L164.513 49.0373C162.991 51.1934 160.776 52.9559 158.549 54.3382L158.558 54.3303Z" fill="white"/>
</g>
<g style="mix-blend-mode:soft-light" opacity="0.6">
<path d="M116.797 98.0881C115.72 103.541 112.436 108.531 108.039 112.066C104.949 114.546 101.713 115.904 97.9782 117.125C95.5831 117.908 93.1194 118.712 91.0331 120.136C91.5565 117.307 93.3263 114.339 96.8028 112.025C102.486 108.242 110.347 103.058 116.797 98.0965L116.797 98.0881Z" fill="white"/>
</g>
<g style="mix-blend-mode:multiply">
<path d="M93.8963 124.152C101.074 126.078 108.699 123.106 114.943 119.685C122.674 115.454 129.683 109.994 136.362 104.27C143.837 97.8661 150.765 90.723 159.415 85.8703C164.02 83.2827 169.032 81.8145 173.656 79.3208C174.308 78.9701 175.143 78.5118 175.94 77.967L180.844 90.3875C180.844 90.3875 168.748 92.2785 166.721 93.9842C162.253 97.7346 162.474 100.361 151.875 107.464C139.848 115.53 126.359 118.21 123.442 120.026C120.524 121.841 109.548 124.192 100.449 128.766C95.5056 131.25 91.4159 127.763 90.9147 122.953C91.8467 123.453 92.8343 123.864 93.9047 124.152L93.8963 124.152Z" fill="#E8D6D3"/>
</g>
<path d="M181.803 30.0286L152.817 41.4855L174.343 96.039L203.329 84.5821L181.803 30.0286Z" fill="#D1D3D4"/>
<path d="M181.798 30.0397L152.812 41.4966L164.073 70.0338L193.059 58.577L181.798 30.0397Z" fill="white"/>
<path d="M200.609 79.4313L275.729 62.8087L280.044 -12.9375L182.646 30.7878L200.609 79.4313Z" fill="#79BA6E"/>
</g>
<defs>
<clipPath id="clip0_19_703">
<rect width="267" height="330" fill="white"/>
</clipPath>
</defs>
</svg>
