<svg width="225" height="196" viewBox="0 0 225 196" fill="none" xmlns="http://www.w3.org/2000/svg">
<path d="M130.634 64.0352C170.156 64.6482 203.137 79.6404 229.108 109.628C232.655 113.723 232.221 119.406 228.263 122.803C224.49 126.044 218.879 125.633 215.41 121.604C205.969 110.642 195.023 101.566 182.197 94.834C141.982 73.7298 93.8812 78.9034 59.2373 108.214C54.4628 112.253 50.2132 116.938 45.9096 121.502C42.1814 125.455 36.6806 126.088 32.7402 122.692C28.8483 119.339 28.5535 113.628 32.1039 109.513C53.8696 84.2873 81.2546 69.376 114.261 64.8154C116.846 64.4577 119.452 64.1808 122.057 64.0622C124.912 63.9363 127.775 64.0352 130.634 64.0352Z" fill="#263238"/>
<path d="M133.898 100.682C158.88 101.329 182.364 112 200.846 133.355C204.491 137.567 204.063 143.003 200.019 146.48C196.166 149.789 190.59 149.343 187.033 145.225C177.39 134.062 165.702 125.875 151.452 122.028C122.413 114.189 97.3057 121.338 76.2806 142.832C75.4986 143.632 74.776 144.49 74.0335 145.328C70.5641 149.236 64.9501 149.761 61.1571 146.528C57.1574 143.12 56.7422 137.488 60.2403 133.364C68.4753 123.657 78.2795 115.938 89.6873 110.277C102.614 103.862 116.316 100.741 133.898 100.682Z" fill="#263238"/>
<path d="M174.999 163.182C174.996 166.985 172.696 170.351 169.16 171.729C165.601 173.117 161.646 172.193 158.98 169.175C155.053 164.726 150.523 161.129 145.029 158.801C130.031 152.446 113.486 156.394 102.334 168.992C99.6875 171.979 96.387 173.063 92.5707 171.906C88.8999 170.793 86.7823 168.149 86.216 164.361C85.817 161.693 86.6205 159.324 88.3372 157.255C107.439 134.222 142.581 130.961 165.562 150.163C168.174 152.346 170.626 154.787 172.786 157.409C174.057 158.952 174.605 161.089 175.479 162.959C175.319 163.032 175.159 163.108 174.999 163.182Z" fill="#263238"/>
<path d="M130.603 211.164C120.355 211.169 112.217 203.039 112.224 192.801C112.23 182.725 120.418 174.535 130.522 174.496C140.673 174.456 148.912 182.716 148.885 192.907C148.86 203.053 140.744 211.158 130.603 211.164Z" fill="#263238"/>
<path d="M130.716 0C58.6387 0 0 58.6387 0 130.715C0 202.792 58.6387 261.431 130.716 261.431C202.792 261.431 261.431 202.792 261.431 130.715C261.433 58.6387 202.794 0 130.716 0ZM17.9781 130.715C17.9781 68.549 68.5526 17.9763 130.718 17.9763C160.059 17.9763 186.81 29.251 206.887 47.6857L47.6875 206.886C29.2528 186.808 17.9781 160.057 17.9781 130.715ZM130.716 243.455C104.354 243.455 80.097 234.335 60.8749 219.118L219.118 60.8749C234.335 80.0952 243.455 104.352 243.455 130.715C243.457 192.88 192.882 243.455 130.716 243.455Z" fill="#F55B3F"/>
</svg>
