<?xml version="1.0" encoding="UTF-8"?>
<svg version="1.1" xmlns="http://www.w3.org/2000/svg" width="294" height="220">
<path d="M0 0 C11.11888437 8.2745186 17.36559513 19.8709041 19.6796875 33.4609375 C22.73926777 57.71370794 9.8006232 81.65048088 -2 102 C6.4985791 105.73105889 15.13682184 108.82759661 23.95016479 111.70626831 C27.8818127 112.99125481 31.80772825 114.2935779 35.734375 115.59375 C36.55900742 115.86642197 37.38363983 116.13909393 38.23326111 116.42002869 C47.25743021 119.40789906 56.26054186 122.45708392 65.25796509 125.52444458 C67.02190384 126.12550928 68.78619772 126.72553295 70.5508728 127.32443237 C103.72303075 138.58454613 103.72303075 138.58454613 108 145 C108.64007169 150.22477122 108.87996173 155.24007653 106.5 160 C99.61658464 165.50673229 91.07447969 167.77652989 82.8125 170.4375 C80.1116464 171.31927491 77.41294048 172.20748471 74.71484375 173.09765625 C73.65743988 173.44618652 73.65743988 173.44618652 72.57867432 173.80175781 C65.08044715 176.28477938 57.63578951 178.91551031 50.19125366 181.55429077 C37.43631882 186.07369765 24.66172763 190.53104657 11.83404541 194.84014893 C10.30513269 195.35426437 8.77690554 195.87042422 7.24945068 196.38885498 C-4.87346455 200.49838084 -16.8787721 204.55615805 -29.8125 204.4375 C-30.57369141 204.45748047 -31.33488281 204.47746094 -32.11914062 204.49804688 C-48.24983583 204.48492182 -64.41859542 197.31766067 -79.4375 192.125 C-81.64008384 191.36883774 -83.84288657 190.61331279 -86.04589844 189.85839844 C-90.52175657 188.32377659 -94.9964347 186.78578592 -99.47021484 185.24511719 C-105.60748206 183.13286938 -111.74990359 181.03603849 -117.89453125 178.9453125 C-119.7500828 178.31364351 -121.60563297 177.68197043 -123.46118164 177.05029297 C-124.34597198 176.7491156 -125.23076233 176.44793823 -126.1423645 176.13763428 C-127.00288422 175.84471497 -127.86340393 175.55179565 -128.75 175.25 C-130.00053665 174.82439789 -130.00053665 174.82439789 -131.27633667 174.39019775 C-135.83006677 172.83939605 -140.38159758 171.28248536 -144.92910767 169.71353149 C-146.31109633 169.2373636 -147.69372952 168.7630623 -149.07699585 168.2906189 C-151.02094159 167.62560252 -152.96194904 166.95263982 -154.90234375 166.27734375 C-155.99281006 165.90085693 -157.08327637 165.52437012 -158.20678711 165.13647461 C-162.46433231 163.40420707 -165.88844438 161.22311124 -168 157 C-168.47286232 151.75200342 -168.88970106 146.77940213 -166.5 142 C-159.50594917 136.40475934 -150.74380803 134.09585188 -142.35351562 131.36972046 C-138.35765711 130.0708216 -134.36882007 128.75061598 -130.37890625 127.43359375 C-129.12123947 127.01932884 -129.12123947 127.01932884 -127.83816528 126.59669495 C-118.03524327 123.36274069 -108.26706701 120.02786306 -98.5 116.6875 C-96.83732343 116.1199472 -95.17464445 115.55240147 -93.51196289 114.98486328 C-81.98810979 111.0463467 -70.48986478 107.03650689 -59 103 C-59 99.53710125 -59.62713832 98.76173557 -61.5 95.9375 C-66.18444752 88.36689998 -69.56249182 80.19101327 -73 72 C-73.64001953 70.47632812 -73.64001953 70.47632812 -74.29296875 68.921875 C-81.08233187 51.54526748 -82.28987127 34.72859536 -74.90234375 17.4296875 C-68.31634631 4.61489926 -57.52288956 -3.18350401 -44.2890625 -8.2734375 C-28.81441737 -13.18518493 -12.94424468 -9.23637356 0 0 Z M-43.75 25.125 C-47.75555266 30.24320617 -50.91075676 36.18441263 -50.5078125 42.88671875 C-49.23405652 48.18750326 -46.41097949 53.10991114 -42.1015625 56.48828125 C-35.99728768 59.80582191 -30.00257196 60.81334866 -23.3125 58.875 C-18.08940142 56.88824477 -15.23691616 53.94372539 -12.25 49.25 C-9.86004625 43.03612026 -9.2919266 38.10760553 -11.5625 31.75 C-13.67117987 27.09934988 -15.67363639 24.71458109 -20 22 C-28.76123627 18.7145364 -36.33411701 19.39454496 -43.75 25.125 Z " fill="#A0A0A1" transform="translate(180,13)"/>
<path d="M0 0 C11.11888437 8.2745186 17.36559513 19.8709041 19.6796875 33.4609375 C22.08611442 52.53627282 14.24073602 70.59131496 6 87.375 C5.69223633 88.0047876 5.38447266 88.6345752 5.06738281 89.28344727 C2.88792083 93.59663641 0.35652819 97.56872909 -2.35839844 101.56347656 C-5.3763106 106.04276916 -8.23614435 110.6243506 -11.125 115.1875 C-18.40147248 126.67382121 -18.40147248 126.67382121 -22 132 C-20.15535156 132.36351562 -20.15535156 132.36351562 -18.2734375 132.734375 C-16.64048232 133.0722278 -15.00767754 133.41080808 -13.375 133.75 C-12.56675781 133.90726563 -11.75851563 134.06453125 -10.92578125 134.2265625 C-5.77418877 135.31551701 -2.09133594 136.63371094 2 140 C2.875 142.75 2.875 142.75 3 145 C-7.4730137 154.49116867 -22.55159755 154.59221802 -35.93701172 154.10498047 C-45.60504476 153.61299772 -55.85180252 152.14819748 -63 145 C-63 142.625 -63 142.625 -62 140 C-55.30323661 134.16179602 -46.55624953 132.97188822 -38 132 C-38.71285156 130.90042969 -39.42570312 129.80085937 -40.16015625 128.66796875 C-44.95915631 121.26087123 -49.75211735 113.85164927 -54.4609375 106.38671875 C-55.90102053 104.15349354 -57.41143758 101.98734297 -58.9375 99.8125 C-71.02774175 81.67713738 -82.56539715 56.1764331 -80 34 C-76.93380633 19.06466954 -70.56221076 6.75748849 -57.625 -1.8125 C-38.76135423 -13.10448795 -18.16709193 -12.96313935 0 0 Z M-43.75 25.125 C-47.75555266 30.24320617 -50.91075676 36.18441263 -50.5078125 42.88671875 C-49.23405652 48.18750326 -46.41097949 53.10991114 -42.1015625 56.48828125 C-35.99728768 59.80582191 -30.00257196 60.81334866 -23.3125 58.875 C-18.08940142 56.88824477 -15.23691616 53.94372539 -12.25 49.25 C-9.86004625 43.03612026 -9.2919266 38.10760553 -11.5625 31.75 C-13.67117987 27.09934988 -15.67363639 24.71458109 -20 22 C-28.76123627 18.7145364 -36.33411701 19.39454496 -43.75 25.125 Z " fill="#3B4BB1" transform="translate(180,13)"/>
<path d="M0 0 C1.67578125 2.02197266 1.67578125 2.02197266 3.3125 4.6640625 C3.91320312 5.62183594 4.51390625 6.57960938 5.1328125 7.56640625 C5.74898438 8.57574219 6.36515625 9.58507812 7 10.625 C7.61617188 11.61113281 8.23234375 12.59726563 8.8671875 13.61328125 C12.02113662 18.68261148 15.08202395 23.79141274 18 29 C16.76636719 29.14695313 16.76636719 29.14695313 15.5078125 29.296875 C8.34520178 30.25630092 1.35940131 31.37527024 -5 35 C-7.21977505 37.6809607 -7.21977505 37.6809607 -6.890625 40.0234375 C-5.32788094 43.49163264 -2.32852381 44.35634079 0.9921875 45.8984375 C9.83280155 49.13616888 19.6779555 49.36173389 29 50 C26.33695544 55.32608913 22.92939031 59.62313576 19.07470703 64.15307617 C15.77292343 68.04226026 12.60340074 72.01334446 9.5 76.0625 C9.07895996 76.6105127 8.65791992 77.15852539 8.22412109 77.72314453 C6.40333389 80.10738451 4.66493706 82.50259441 3 85 C-1.88454762 84.34446489 -6.37303091 82.98482308 -11.0078125 81.3671875 C-11.79005188 81.09855392 -12.57229126 80.82992035 -13.37823486 80.55314636 C-15.96201757 79.66479917 -18.5434846 78.76991232 -21.125 77.875 C-22.94205059 77.24877566 -24.75927386 76.62305216 -26.57666016 75.99780273 C-29.43021167 75.01598913 -32.28362633 74.03379434 -35.13644409 73.04985046 C-42.02714248 70.67398098 -48.9253619 68.32103576 -55.828125 65.98046875 C-57.77848435 65.31852591 -59.72884244 64.65657932 -61.67919922 63.99462891 C-64.48565876 63.04227248 -67.29229974 62.09047555 -70.09967041 61.14080811 C-75.23119347 59.4041858 -80.35701087 57.65243356 -85.4744873 55.87481689 C-87.20091769 55.27679556 -88.92894729 54.68337644 -90.6583252 54.09393311 C-93.26971687 53.20084454 -95.87358896 52.2883873 -98.4765625 51.37109375 C-99.65392471 50.97398949 -99.65392471 50.97398949 -100.85507202 50.56886292 C-105.61295627 48.86362546 -108.72708196 47.02860899 -112 43 C-112.3125 40.5 -112.3125 40.5 -111 38 C-103.5617021 32.37803066 -94.80575961 29.94917114 -86.0625 27.0625 C-84.38781741 26.50092807 -82.71350789 25.93824252 -81.03955078 25.37451172 C-77.51268679 24.18781925 -73.98422193 23.00606926 -70.45458984 21.82763672 C-62.28595022 19.09608467 -54.13739148 16.30567715 -45.98776245 13.51803589 C-43.46255459 12.65492595 -40.93660516 11.79402505 -38.41040039 10.93383789 C-37.60931351 10.66066238 -36.80822662 10.38748688 -35.98286438 10.10603333 C-34.39851261 9.56602137 -32.81379135 9.02709211 -31.22868347 8.48930359 C-26.96347626 7.03643837 -22.71778589 5.54106075 -18.48535156 3.99511719 C-17.57516266 3.66603363 -16.66497375 3.33695007 -15.72720337 2.99789429 C-13.97371973 2.36225274 -12.22333839 1.71796721 -10.47665405 1.06387329 C-9.68723419 0.77902069 -8.89781433 0.49416809 -8.08447266 0.20068359 C-7.04403305 -0.18381454 -7.04403305 -0.18381454 -5.98257446 -0.57608032 C-3.61711071 -1.08187047 -2.25142009 -0.85386267 0 0 Z " fill="#A1A1A1" transform="translate(125,117)"/>
<path d="M0 0 C0.97582031 0.00902344 1.95164063 0.01804688 2.95703125 0.02734375 C4.06111328 0.04474609 4.06111328 0.04474609 5.1875 0.0625 C3.8675 0.3925 2.5475 0.7225 1.1875 1.0625 C1.1875 10.6325 1.1875 20.2025 1.1875 30.0625 C-3.7625 31.5475 -3.7625 31.5475 -8.8125 33.0625 C-14.11404954 36.98103662 -16.9354749 42.74233932 -18.234375 49.140625 C-18.59806903 54.27275188 -16.77434391 57.39903988 -13.90625 61.3984375 C-12.8125 63.0625 -12.8125 63.0625 -12.8125 65.0625 C-8.19762186 66.99777148 -3.6042549 68.46524837 1.1875 70.0625 C1.1875 96.7925 1.1875 123.5225 1.1875 151.0625 C-2.21531271 147.65968729 -4.58174155 145.2190693 -7.1171875 141.3671875 C-7.69726562 140.4915918 -8.27734375 139.61599609 -8.875 138.71386719 C-9.473125 137.79766602 -10.07125 136.88146484 -10.6875 135.9375 C-11.61949219 134.52452637 -11.61949219 134.52452637 -12.5703125 133.08300781 C-16.22763482 127.52595242 -19.85061008 121.94858837 -23.37890625 116.30859375 C-24.77744328 114.11742538 -26.25660911 112.00219074 -27.75 109.875 C-39.84024175 91.73963738 -51.37789715 66.2389331 -48.8125 44.0625 C-45.74630633 29.12716954 -39.37471076 16.81998849 -26.4375 8.25 C-18.0371896 3.22148086 -9.87054768 -0.11892226 0 0 Z " fill="#4057E3" transform="translate(148.8125,2.9375)"/>
<path d="M0 0 C1.5 1.375 1.5 1.375 3 3 C3 3.66 3 4.32 3 5 C7.63292642 6.93028834 12.36605037 8.52397252 17.1171875 10.1328125 C18.02617798 10.44182495 18.93516846 10.7508374 19.8717041 11.06921387 C21.84124868 11.73857172 23.81100367 12.40731068 25.78094482 13.07550049 C28.9098834 14.1368324 32.0382637 15.19979517 35.16650391 16.26318359 C40.66584082 18.13234244 46.16563072 20.00016459 51.66552734 21.86767578 C60.22972434 24.77591605 68.79322477 27.68620124 77.35601807 30.59857178 C80.29549157 31.59796781 83.23537729 32.59614389 86.17529297 33.59423828 C88.02056136 34.2215222 89.86577753 34.84895973 91.7109375 35.4765625 C92.58942352 35.77499054 93.46790955 36.07341858 94.37301636 36.38088989 C98.56371894 37.80922196 102.74488526 39.2585461 106.91113281 40.75683594 C108.0699144 41.17260391 108.0699144 41.17260391 109.25210571 41.59677124 C110.67974081 42.11127298 112.10582005 42.63012451 113.52987671 43.15444946 C121.23654926 45.93454783 128.40025802 46.20950129 136.5 46.25 C138.00046875 46.2809375 138.00046875 46.2809375 139.53125 46.3125 C153.58146171 46.38418475 166.16826815 42.13747945 179.21212769 37.41790771 C183.58899884 35.83486361 187.97587142 34.28011637 192.36328125 32.7265625 C193.69396385 32.25478073 193.69396385 32.25478073 195.05152893 31.77346802 C205.34504517 28.14286399 215.73584883 24.82033582 226.14941406 21.55273438 C232.20681703 19.64028534 238.06987774 17.63202227 243.82495117 14.93359375 C249.0487061 12.69140732 254.63349109 11.2924622 260.09179688 9.73242188 C267.03252613 7.63629286 270.8843254 5.1156746 276 0 C276.61802575 10.7639485 276.61802575 10.7639485 274.5 15 C267.61658464 20.50673229 259.07447969 22.77652989 250.8125 25.4375 C248.1116464 26.31927491 245.41294048 27.20748471 242.71484375 28.09765625 C242.00990784 28.33000977 241.30497192 28.56236328 240.57867432 28.80175781 C233.08044715 31.28477938 225.63578951 33.91551031 218.19125366 36.55429077 C205.43631882 41.07369765 192.66172763 45.53104657 179.83404541 49.84014893 C178.30513269 50.35426437 176.77690554 50.87042422 175.24945068 51.38885498 C163.12653545 55.49838084 151.1212279 59.55615805 138.1875 59.4375 C137.42630859 59.45748047 136.66511719 59.47746094 135.88085938 59.49804688 C119.75016417 59.48492182 103.58140458 52.31766067 88.5625 47.125 C86.35991616 46.36883774 84.15711343 45.61331279 81.95410156 44.85839844 C77.47824343 43.32377659 73.0035653 41.78578592 68.52978516 40.24511719 C62.39251794 38.13286938 56.25009641 36.03603849 50.10546875 33.9453125 C48.2499172 33.31364351 46.39436703 32.68197043 44.53881836 32.05029297 C43.65402802 31.7491156 42.76923767 31.44793823 41.8576355 31.13763428 C40.56685593 30.69825531 40.56685593 30.69825531 39.25 30.25 C38.4163089 29.96626526 37.5826178 29.68253052 36.72366333 29.39019775 C32.16993323 27.83939605 27.61840242 26.28248536 23.07089233 24.71353149 C21.68890367 24.2373636 20.30627048 23.7630623 18.92300415 23.2906189 C16.97905841 22.62560252 15.03805096 21.95263982 13.09765625 21.27734375 C12.00718994 20.90085693 10.91672363 20.52437012 9.79321289 20.13647461 C5.53566769 18.40420707 2.11155562 16.22311124 0 12 C-0.07065617 9.95944995 -0.08421976 7.91665743 -0.0625 5.875 C-0.05347656 4.77929688 -0.04445313 3.68359375 -0.03515625 2.5546875 C-0.02355469 1.71164063 -0.01195312 0.86859375 0 0 Z " fill="#8D8D8C" transform="translate(12,158)"/>
<path d="M0 0 C4.84767686 0.65312587 9.30227999 1.99119243 13.90234375 3.59765625 C14.67669769 3.86364624 15.45105164 4.12963623 16.24887085 4.40368652 C18.81328305 5.28556812 21.37537794 6.17398905 23.9375 7.0625 C26.67436263 8.00631992 29.41174388 8.9486251 32.14915466 9.89085388 C34.07493485 10.55383952 36.00051902 11.21739475 37.92591858 11.88148499 C45.18924521 14.38466788 52.46332989 16.85488352 59.7421875 19.3125 C61.85947616 20.02850597 63.97674519 20.74456999 66.09399414 21.46069336 C69.17703069 22.50339543 72.2604161 23.54498146 75.34518433 24.58255005 C104.31415035 34.33070357 104.31415035 34.33070357 111 40 C110.7920686 43.63879955 110.13569807 44.86578845 107.50390625 47.46875 C103.72026003 50.48384308 99.63406269 51.8746392 95.0625 53.3125 C94.28970703 53.57611328 93.51691406 53.83972656 92.72070312 54.11132812 C84.42615543 56.81073714 78.21099271 56.09086502 70.140625 53.140625 C69.29007538 52.83986053 68.43952576 52.53909607 67.5632019 52.22921753 C64.78856093 51.24588756 62.01946363 50.24780701 59.25 49.25 C57.32971785 48.56757014 55.4089769 47.88642999 53.48779297 47.20654297 C49.57156872 45.82016348 45.65688004 44.42957621 41.74316406 43.03613281 C33.97747379 40.27677533 26.19044673 37.5802606 18.39538574 34.90515137 C16.16379665 34.13833133 13.93389903 33.36673816 11.70410156 32.59472656 C10.34709738 32.12798715 8.99000613 31.66150074 7.6328125 31.1953125 C6.46637207 30.79328613 5.29993164 30.39125977 4.09814453 29.97705078 C1.39941367 29.12596166 -1.21547652 28.48440668 -4 28 C-4.33 28.99 -4.66 29.98 -5 31 C-9.8333472 31.08333357 -14.23692563 30.95261487 -19 30 C-13.4902012 19.53415103 -7.02137661 9.51283283 0 0 Z " fill="#D6D825" transform="translate(176,116)"/>
<path d="M0 0 C4.75580767 0.6456743 9.12205555 1.93408455 13.6328125 3.51953125 C14.3705188 3.77421677 15.1082251 4.02890228 15.86828613 4.29130554 C18.2886445 5.12756764 20.70677919 5.97007898 23.125 6.8125 C26.55115949 7.99877543 29.9785719 9.18140177 33.40625 10.36328125 C34.28060699 10.66513336 35.15496399 10.96698547 36.05581665 11.27798462 C42.05529424 13.34441702 48.06839417 15.36583265 54.09375 17.35546875 C54.90109589 17.62237015 55.70844177 17.88927155 56.54025269 18.16426086 C59.65114363 19.19170512 62.76230713 20.21818481 65.87652588 21.23550415 C90.16142748 29.16958976 90.16142748 29.16958976 97 35 C96.65238897 37.5723216 96.2228621 39.60671393 94.9375 41.875 C91.7717373 43.71318479 88.45091335 42.65873441 85 42 C82.40874964 41.22509888 79.92051268 40.4134977 77.390625 39.48046875 C76.67826187 39.22582855 75.96589874 38.97118835 75.23194885 38.70883179 C73.7000087 38.16062542 72.16932119 37.60890804 70.63980103 37.0539856 C66.52542471 35.5622096 62.40106028 34.09852966 58.27734375 32.6328125 C57.4292363 32.33075394 56.58112885 32.02869537 55.70732117 31.71748352 C46.78148206 28.54806625 37.80383411 25.54010416 28.8125 22.5625 C28.09316284 22.32405365 27.37382568 22.0856073 26.63269043 21.8399353 C23.17715664 20.69488669 19.72089743 19.5520542 16.26416016 18.41064453 C8.83743276 15.95652124 1.41933535 13.47635947 -6 11 C-6 7.39426104 -5.18292538 6.58663434 -3 3.8125 C-2.443125 3.09707031 -1.88625 2.38164063 -1.3125 1.64453125 C-0.879375 1.10183594 -0.44625 0.55914062 0 0 Z " fill="#A4A4A2" transform="translate(190,121)"/>
<path d="M0 0 C1.67578125 2.02197266 1.67578125 2.02197266 3.3125 4.6640625 C3.91320312 5.62183594 4.51390625 6.57960938 5.1328125 7.56640625 C6.05707031 9.08041016 6.05707031 9.08041016 7 10.625 C7.92425781 12.10419922 7.92425781 12.10419922 8.8671875 13.61328125 C12.02113662 18.68261148 15.08202395 23.79141274 18 29 C17.14277344 29.12117188 16.28554687 29.24234375 15.40234375 29.3671875 C13.68724609 29.61855469 13.68724609 29.61855469 11.9375 29.875 C10.24947266 30.11863281 10.24947266 30.11863281 8.52734375 30.3671875 C4.98910962 30.91086719 4.98910962 30.91086719 1.67456055 32.13232422 C-2.44192733 33.10435252 -4.33543099 32.79025244 -8.3203125 31.515625 C-9.5362207 31.13212891 -10.75212891 30.74863281 -12.00488281 30.35351562 C-13.33770986 29.90566713 -14.66937819 29.45435867 -16 29 C-16.70185425 28.76273193 -17.4037085 28.52546387 -18.12683105 28.28100586 C-23.39534249 26.49025854 -28.63660964 24.62667148 -33.875 22.75 C-35.44907764 22.18970757 -37.0232957 21.62980949 -38.59765625 21.0703125 C-42.40006565 19.71806536 -46.20055595 18.36055551 -50 17 C-50 16.34 -50 15.68 -50 15 C-45.86048173 13.52301244 -41.72022519 12.04811679 -37.5793457 10.57495117 C-36.17811179 10.07614193 -34.77706245 9.57681383 -33.3762207 9.0769043 C-29.27890862 7.61494565 -25.1777261 6.16474724 -21.07147217 4.72808838 C-19.67216053 4.23625337 -18.27427745 3.7403378 -16.87774658 3.24066162 C-14.82943108 2.50847334 -12.77675031 1.79000853 -10.72265625 1.07421875 C-8.92646851 0.43939575 -8.92646851 0.43939575 -7.09399414 -0.20825195 C-2.62325364 -1.35230714 -2.62325364 -1.35230714 0 0 Z " fill="#A1A19F" transform="translate(125,117)"/>
<path d="M0 0 C2.11389841 0.47354737 4.22697541 0.95109857 6.33544922 1.44824219 C10.87087726 2.38740907 15.45284656 2.73364459 20.0625 3.125 C21.02349609 3.21136719 21.98449219 3.29773438 22.97460938 3.38671875 C25.31599448 3.59639503 27.65771078 3.8007244 30 4 C27.47321848 8.64973951 24.85274773 12.60350019 21.375 16.625 C17.62799277 21.01558256 14.01140528 25.48100139 10.5 30.0625 C10.07895996 30.6105127 9.65791992 31.15852539 9.22412109 31.72314453 C7.40333389 34.10738451 5.66493706 36.50259441 4 39 C-1.76065111 38.32058766 -6.95115325 36.39116805 -12.375 34.4375 C-13.30183594 34.10814453 -14.22867188 33.77878906 -15.18359375 33.43945312 C-17.45735647 32.6307437 -19.7293813 31.81748642 -22 31 C-22 27.0086531 -20.07911579 25.16424639 -17.6875 22.1875 C-17.24543213 21.62579102 -16.80336426 21.06408203 -16.34790039 20.48535156 C-15.40093454 19.28328673 -14.45087179 18.08365641 -13.49804688 16.88623047 C-11.963138 14.95358608 -10.4409779 13.01149333 -8.921875 11.06640625 C-1.24350993 1.24350993 -1.24350993 1.24350993 0 0 Z " fill="#D6D825" transform="translate(124,163)"/>
<path d="M0 0 C0.495 0.99 0.495 0.99 1 2 C2.96029144 2.69987462 2.96029144 2.69987462 5.42578125 3.23828125 C10.61843698 4.57319954 15.66409235 6.17597187 20.73046875 7.91796875 C21.49747101 8.18167267 22.26447327 8.44537659 23.05471802 8.71707153 C25.43322537 9.53793245 27.81038428 10.36261888 30.1875 11.1875 C31.82345595 11.75227694 33.45952289 12.31673253 35.09570312 12.88085938 C39.0650903 14.25020747 43.03295364 15.62388597 47 17 C44.65558082 19.34441918 43.98730119 19.31657059 40.78833008 19.59423828 C39.91594193 19.67417023 39.04355377 19.75410217 38.14472961 19.8364563 C37.19591415 19.91362885 36.24709869 19.99080139 35.26953125 20.0703125 C34.28691818 20.15626678 33.30430511 20.24222107 32.29191589 20.33078003 C30.20157492 20.51150294 28.11084134 20.68773139 26.01977539 20.85986328 C22.86949383 21.12028848 19.72095269 21.39681189 16.57226562 21.67578125 C-14.72373381 24.38400226 -14.72373381 24.38400226 -25.5 20.125 C-26.96830475 19.58472589 -28.43704913 19.04564496 -29.90625 18.5078125 C-30.58945312 18.25032227 -31.27265625 17.99283203 -31.9765625 17.72753906 C-34.94596059 16.65987421 -37.9551308 15.82531981 -41 15 C-38.20850477 13.13900318 -36.10246348 12.25578806 -32.94921875 11.23046875 C-31.94632813 10.90111328 -30.9434375 10.57175781 -29.91015625 10.23242188 C-28.84667969 9.88759766 -27.78320312 9.54277344 -26.6875 9.1875 C-24.51394245 8.47381394 -22.34076351 7.75897375 -20.16796875 7.04296875 C-18.58508057 6.52162354 -18.58508057 6.52162354 -16.97021484 5.98974609 C-11.27752368 4.09280626 -5.63430363 2.06326612 0 0 Z " fill="#EAEBEF" transform="translate(74,132)"/>
<path d="M0 0 C6.6288142 -0.22333743 11.92614382 1.07982162 18.13339233 3.30535889 C19.07926712 3.63118454 20.02514191 3.95701019 20.99967957 4.29270935 C23.99345921 5.32819923 26.9792053 6.38500708 29.96542358 7.44207764 C31.97992874 8.14069655 33.99489952 8.83797433 36.01034546 9.53387451 C51.62306054 14.9555063 51.62306054 14.9555063 58.77792358 18.12957764 C56.71784699 21.73471167 54.42660948 24.93288776 51.77792358 28.12957764 C43.88858027 26.08066297 36.17390959 23.67274468 28.46151733 21.03973389 C27.32440811 20.65393661 26.18729889 20.26813934 25.01573181 19.87065125 C22.62773094 19.05955456 20.24028143 18.2468329 17.85336304 17.43255615 C14.2236193 16.19487224 10.59173988 14.96361949 6.95956421 13.73309326 C4.6267517 12.93985631 2.29406511 12.14624894 -0.03848267 11.35223389 C-1.11167252 10.98856216 -2.18486237 10.62489044 -3.29057312 10.25019836 C-9.68382651 8.06437271 -15.97694693 5.70885095 -22.22207642 3.12957764 C-22.22207642 2.79957764 -22.22207642 2.46957764 -22.22207642 2.12957764 C-18.16183115 1.20925538 -14.186564 0.83814004 -10.03457642 0.56707764 C-8.80352173 0.48328857 -7.57246704 0.39949951 -6.30410767 0.31317139 C-3.15148593 0.16781209 -3.15148593 0.16781209 0 0 Z " fill="#E7E9ED" transform="translate(49.222076416015625,164.87042236328125)"/>
<path d="M0 0 C0.94302979 0.28697754 1.88605957 0.57395508 2.85766602 0.86962891 C3.64842529 1.15241699 4.43918457 1.43520508 5.25390625 1.7265625 C6.12724609 2.0359375 7.00058594 2.3453125 7.90039062 2.6640625 C8.77888672 2.98117188 9.65738281 3.29828125 10.5625 3.625 C11.93245117 4.11226562 11.93245117 4.11226562 13.33007812 4.609375 C15.55511941 5.40153629 17.77832175 6.1984659 20 7 C15.88723249 11.11276751 8.93728565 12.52224041 3.49975586 14.44262695 C1.88632459 15.01847145 0.27742657 15.60719338 -1.32641602 16.20922852 C-11.03812226 19.85249801 -18.05541201 22.43931276 -28 18 C-29.59406406 17.45423678 -31.19167303 16.91869699 -32.79296875 16.39453125 C-34.25928894 15.87130687 -35.72416796 15.3440242 -37.1875 14.8125 C-38.32928711 14.40354492 -38.32928711 14.40354492 -39.49414062 13.98632812 C-41.33075754 13.32791829 -43.16558451 12.66451863 -45 12 C-43.36755345 8.7351069 -39.84303141 8.26728924 -36.5625 7.109375 C-35.80839844 6.84110901 -35.05429688 6.57284302 -34.27734375 6.29644775 C-32.67482817 5.73083215 -31.07076894 5.16957438 -29.46533203 4.61230469 C-27.02981079 3.76042699 -24.60729431 2.87703841 -22.18359375 1.9921875 C-20.62309456 1.44591655 -19.06191487 0.90158495 -17.5 0.359375 C-16.78400635 0.09284119 -16.0680127 -0.17369263 -15.33032227 -0.44830322 C-9.69271363 -2.34103141 -5.61931921 -1.75634826 0 0 Z " fill="#E8EAEE" transform="translate(203,177)"/>
<path d="M0 0 C5.13481494 0.67330146 9.75223859 2.14269585 14.6171875 3.8359375 C15.43317413 4.11595612 16.24916077 4.39597473 17.08987427 4.68447876 C19.68645852 5.57691017 22.28068854 6.47598595 24.875 7.375 C26.61053662 7.97176283 28.34621245 8.56812094 30.08203125 9.1640625 C31.76054152 9.7418249 33.43893094 10.31993855 35.1171875 10.8984375 C35.8882785 11.16417572 36.65936951 11.42991394 37.4538269 11.70370483 C42.33224681 13.39488067 47.17210558 15.16943762 52 17 C52 17.33 52 17.66 52 18 C47.01078464 18.80286224 42.02052929 19.4391962 37 20 C35.21335937 20.22236328 35.21335937 20.22236328 33.390625 20.44921875 C19.50197187 21.35824004 6.82210566 15.76185311 -6 11 C-6 7.39426104 -5.18292538 6.58663434 -3 3.8125 C-2.443125 3.09707031 -1.88625 2.38164063 -1.3125 1.64453125 C-0.879375 1.10183594 -0.44625 0.55914062 0 0 Z " fill="#ECEEEF" transform="translate(190,121)"/>
<path d="M0 0 C0.66 1.32 1.32 2.64 2 4 C1.06027344 4.19916016 1.06027344 4.19916016 0.1015625 4.40234375 C-0.71570313 4.57894531 -1.53296875 4.75554687 -2.375 4.9375 C-3.18710938 5.11152344 -3.99921875 5.28554687 -4.8359375 5.46484375 C-7.029463 5.92330693 -7.029463 5.92330693 -9 7 C-8.67 7.99 -8.34 8.98 -8 10 C-1.25134508 12.99828799 7.35477655 13.27357156 14.46484375 11.32421875 C16.53661045 10.47239359 16.53661045 10.47239359 19 9 C19 8.34 19 7.68 19 7 C15.7 5.68 12.4 4.36 9 3 C9.33 2.01 9.66 1.02 10 0 C24.3266055 0.85137615 24.3266055 0.85137615 29.72265625 5.4765625 C31 7 31 7 31 9 C29.538732 11.922536 27.95222009 12.61810975 25 14 C18.31630295 16.07111157 12.09605187 16.33425734 5.125 16.3125 C4.10019531 16.32861328 3.07539063 16.34472656 2.01953125 16.36132812 C-5.64246205 16.36619597 -13.53821593 15.88482006 -19.625 10.8125 C-20.07875 10.214375 -20.5325 9.61625 -21 9 C-19.53113762 5.12754464 -17.68378216 3.80096017 -14 2 C-9.17982003 0.30401075 -5.09949669 -0.20814272 0 0 Z " fill="#CED02B" transform="translate(145,148)"/>
<path d="M0 0 C0 0.66 0 1.32 0 2 C-0.86882812 2.17015625 -1.73765625 2.3403125 -2.6328125 2.515625 C-11.46126981 4.35392863 -11.46126981 4.35392863 -19 9 C-19.04289755 10.93109581 -19.04289755 10.93109581 -18 13 C-10.16654883 17.06736888 -2.93901095 17.2079451 5.6875 17.25 C6.72583984 17.270625 7.76417969 17.29125 8.83398438 17.3125 C15.74682359 17.34717255 21.51152509 16.36113335 28 14 C28.99 13.67 29.98 13.34 31 13 C30.88658466 10.59122743 30.88658466 10.59122743 30 8 C26.27616599 5.26188676 22.67212466 4.26378402 18.1875 3.3125 C17.02605469 3.06113281 15.86460937 2.80976563 14.66796875 2.55078125 C13.78753906 2.36902344 12.90710938 2.18726563 12 2 C12 1.34 12 0.68 12 0 C17.19754386 -0.18802484 21.60171099 0.42000495 26.625 1.75 C27.89601562 2.07484375 29.16703125 2.3996875 30.4765625 2.734375 C34.02912083 4.01046025 36.22988666 5.47399626 39 8 C39 10.68600749 38.59356736 12.39765206 36.6796875 14.33984375 C24.27829456 23.17113872 5.51322366 22.07851088 -8.9375 20.3125 C-15.57616126 19.15323629 -22.15827403 16.84172597 -27 12 C-27 9.625 -27 9.625 -26 7 C-18.68797083 0.62541047 -9.38486147 -0.53913034 0 0 Z " fill="#273BB6" transform="translate(144,146)"/>
<path d="M0 0 C1.66333008 1.91772461 1.66333008 1.91772461 3.26953125 4.40234375 C3.84767578 5.29244141 4.42582031 6.18253906 5.02148438 7.09960938 C5.61251953 8.03611328 6.20355469 8.97261719 6.8125 9.9375 C7.42287109 10.87013672 8.03324219 11.80277344 8.66210938 12.76367188 C11.96097507 17.90722459 11.96097507 17.90722459 13 20 C12.67 20.66 12.34 21.32 12 22 C-0.54 17.71 -13.08 13.42 -26 9 C-26 8.34 -26 7.68 -26 7 C-21.67571087 5.30904923 -17.34227896 3.64421125 -13 2 C-12.10023437 1.65839844 -11.20046875 1.31679687 -10.2734375 0.96484375 C-9.11714844 0.54912109 -9.11714844 0.54912109 -7.9375 0.125 C-6.93009766 -0.24238281 -6.93009766 -0.24238281 -5.90234375 -0.6171875 C-3.49753992 -1.10111106 -2.29692163 -0.88010121 0 0 Z " fill="#E8EAEC" transform="translate(125,117)"/>
<path d="M0 0 C-1.40976705 3.03852705 -3.08870228 5.5939595 -5.125 8.25 C-5.66382813 8.95640625 -6.20265625 9.6628125 -6.7578125 10.390625 C-7.16773438 10.92171875 -7.57765625 11.4528125 -8 12 C-15.65590185 10.52240282 -22.7567703 8.07301905 -30.0625 5.375 C-31.21427734 4.95476562 -32.36605469 4.53453125 -33.55273438 4.1015625 C-36.37036794 3.07271705 -39.18601184 2.03876545 -42 1 C-42 0.67 -42 0.34 -42 0 C-39.1875 -0.3125 -36.375 -0.625 -33.5625 -0.9375 C-32.3878418 -1.06801758 -32.3878418 -1.06801758 -31.18945312 -1.20117188 C-29.59623899 -1.37819567 -28.00297649 -1.55478476 -26.40966797 -1.73095703 C-24.79893009 -1.91079828 -23.18857335 -2.09408557 -21.57861328 -2.28076172 C-5.20457167 -4.16365733 -5.20457167 -4.16365733 0 0 Z " fill="#E6E8EC" transform="translate(124,162)"/>
<path d="M0 0 C6.39802971 0.49215613 12.46557393 3.46557393 17 8 C16.79417868 10.67567717 16.26004093 12.54110424 14.9375 14.875 C11.75193121 16.72468511 8.46039215 15.70766995 5 15 C1.44576442 13.9549799 -2.02296127 12.71359343 -5.5 11.4375 C-6.87671875 10.9434668 -6.87671875 10.9434668 -8.28125 10.43945312 C-10.52359298 9.63361112 -12.76293768 8.82036271 -15 8 C-15 7.34 -15 6.68 -15 6 C-13.06441401 5.32779649 -11.12645628 4.66241923 -9.1875 4 C-8.10855469 3.62875 -7.02960938 3.2575 -5.91796875 2.875 C-3 2 -3 2 0 2 C0 1.34 0 0.68 0 0 Z " fill="#E9EBEB" transform="translate(270,148)"/>
<path d="M0 0 C1.01771484 0.37705078 2.03542969 0.75410156 3.08398438 1.14257812 C5.57920181 2.06803436 8.07186119 2.99980651 10.5625 3.9375 C10.5625 4.2675 10.5625 4.5975 10.5625 4.9375 C4.64815025 6.2143458 -1.23058994 6.1213184 -7.25 6.125 C-8.29220703 6.13724609 -9.33441406 6.14949219 -10.40820312 6.16210938 C-16.74084858 6.17403526 -22.31218797 5.55683537 -28.4375 3.9375 C-27.70267012 0.66110256 -27.17344858 -0.98695281 -24.4375 -3.0625 C-15.88974298 -6.9478441 -8.22270895 -3.0975592 0 0 Z " fill="#E7E9ED" transform="translate(156.4375,199.0625)"/>
<path d="M0 0 C4.22454643 0.86399665 8.14966717 2.08202556 12.20874023 3.51391602 C12.97569717 3.77885361 13.74265411 4.0437912 14.53285217 4.3167572 C16.95946492 5.15651653 19.38292642 6.00497907 21.80639648 6.85375977 C23.46049219 7.42790735 25.11478728 8.00148089 26.76928711 8.57446289 C30.80482609 9.97343425 34.83756427 11.38021417 38.86889648 12.79125977 C34.37104334 15.78982853 29.79291784 17.2976577 24.35961914 16.35668945 C21.74449259 15.57149632 19.2244991 14.65962915 16.68139648 13.66625977 C15.81836914 13.35688477 14.9553418 13.04750977 14.06616211 12.72875977 C9.18377302 10.92074422 5.17117164 8.76052456 0.86889648 5.79125977 C-1.38963818 4.93086393 -1.38963818 4.93086393 -3.50610352 4.54125977 C-4.70235352 4.29375977 -5.89860352 4.04625977 -7.13110352 3.79125977 C-4.79563276 0.70843837 -3.96648431 -0.26443229 0 0 Z " fill="#E7E9EA" transform="translate(175.131103515625,144.208740234375)"/>
<path d="M0 0 C6.20639163 -0.09672299 10.65374862 0.2145447 16.1328125 3.203125 C11.51191373 6.28372418 6.31877956 7.81766321 1.10839844 9.68139648 C-0.86364286 10.38935249 -2.83017714 11.1113384 -4.796875 11.83398438 C-6.03695312 12.27935547 -7.27703125 12.72472656 -8.5546875 13.18359375 C-9.69292969 13.59504639 -10.83117187 14.00649902 -12.00390625 14.43041992 C-14.8671875 15.203125 -14.8671875 15.203125 -17.8671875 14.203125 C-16.32068001 12.04402037 -14.75689234 9.90212233 -13.1796875 7.765625 C-12.74462891 7.15396484 -12.30957031 6.54230469 -11.86132812 5.91210938 C-9.91614878 3.30412817 -8.5098222 1.43634742 -5.40234375 0.30859375 C-3.60018585 0.23361954 -1.79920735 0.12746428 0 0 Z " fill="#E7E9EB" transform="translate(161.8671875,165.796875)"/>
<path d="M0 0 C0.91330078 0.32484375 1.82660156 0.6496875 2.76757812 0.984375 C4.99261941 1.77653629 7.21582175 2.5734659 9.4375 3.375 C6.87185189 5.94064811 4.95829438 6.51140893 1.4375 7.375 C-4.82034418 6.89052174 -10.51515798 4.93466341 -16.4375 2.9375 C-17.39914063 2.62490234 -18.36078125 2.31230469 -19.3515625 1.99023438 C-20.26421875 1.68537109 -21.176875 1.38050781 -22.1171875 1.06640625 C-22.94718262 0.78998291 -23.77717773 0.51355957 -24.63232422 0.22875977 C-26.5625 -0.625 -26.5625 -0.625 -27.5625 -2.625 C-25.8609375 -3.429375 -25.8609375 -3.429375 -24.125 -4.25 C-23.48691406 -4.55164063 -22.84882813 -4.85328125 -22.19140625 -5.1640625 C-14.86640135 -6.44838728 -6.78519368 -2.44924086 0 0 Z " fill="#E7E9EB" transform="translate(248.5625,168.625)"/>
<path d="M0 0 C14.3266055 0.85137615 14.3266055 0.85137615 19.72265625 5.4765625 C21 7 21 7 21 9 C19.538732 11.922536 17.95222009 12.61810975 15 14 C10.66270068 15.41071756 6.58860116 16.28678757 2 16 C3.87949705 12.42895561 5.17053157 10.45255699 9 9 C9 8.34 9 7.68 9 7 C4.05 5.02 4.05 5.02 -1 3 C-0.67 2.01 -0.34 1.02 0 0 Z " fill="#9FA0A2" transform="translate(155,148)"/>
<path d="M0 0 C5.19754386 -0.18802484 9.60171099 0.42000495 14.625 1.75 C15.89601562 2.07484375 17.16703125 2.3996875 18.4765625 2.734375 C22.02912083 4.01046025 24.22988666 5.47399626 27 8 C27 10.1875 27 10.1875 26 13 C20.64114773 18.04362566 14.07124759 19.12909267 7 20 C6.67 19.01 6.34 18.02 6 17 C6.68707031 16.79503906 7.37414062 16.59007812 8.08203125 16.37890625 C8.98308594 16.10949219 9.88414062 15.84007812 10.8125 15.5625 C11.70582031 15.29566406 12.59914062 15.02882812 13.51953125 14.75390625 C15.35473055 14.19612127 17.18033726 13.60655425 19 13 C18.88658466 10.59122743 18.88658466 10.59122743 18 8 C14.27616599 5.26188676 10.67212466 4.26378402 6.1875 3.3125 C5.02605469 3.06113281 3.86460937 2.80976563 2.66796875 2.55078125 C1.78753906 2.36902344 0.90710938 2.18726563 0 2 C0 1.34 0 0.68 0 0 Z " fill="#253AB7" transform="translate(156,146)"/>
<path d="M0 0 C1.921875 2.50390625 1.921875 2.50390625 3.75 5.5625 C4.67039063 7.08037109 4.67039063 7.08037109 5.609375 8.62890625 C6.06828125 9.41136719 6.5271875 10.19382812 7 11 C5 12 5 12 2.93701172 11.47094727 C2.10959473 11.17244873 1.28217773 10.8739502 0.4296875 10.56640625 C-0.46621094 10.24736328 -1.36210938 9.92832031 -2.28515625 9.59960938 C-3.22230469 9.25736328 -4.15945312 8.91511719 -5.125 8.5625 C-6.06988281 8.22412109 -7.01476562 7.88574219 -7.98828125 7.53710938 C-10.32802766 6.6981094 -12.66502009 5.85215708 -15 5 C-15 4.34 -15 3.68 -15 3 C-13.25531628 2.29911844 -11.50398839 1.61475991 -9.75 0.9375 C-8.77546875 0.55464844 -7.8009375 0.17179687 -6.796875 -0.22265625 C-2.65760487 -1.37309585 -2.65760487 -1.37309585 0 0 Z " fill="#DADC28" transform="translate(125,117)"/>
<path d="M0 0 C0 0.66 0 1.32 0 2 C0.66 2 1.32 2 2 2 C2 1.34 2 0.68 2 0 C8.625 -0.25 8.625 -0.25 12 2 C12 2.99 12 3.98 12 5 C5.53203651 7.72335305 -0.91392525 7.85133096 -7.625 6 C-8.40875 5.67 -9.1925 5.34 -10 5 C-9.625 3.0625 -9.625 3.0625 -9 1 C-6.04335481 -0.4783226 -3.25770263 -0.06032783 0 0 Z " fill="#D0D328" transform="translate(149,153)"/>
<path d="M0 0 C4.60473492 0.81161081 8.9681136 2.34448587 13.375 3.875 C14.20193359 4.15666016 15.02886719 4.43832031 15.88085938 4.72851562 C17.90162338 5.41767792 19.91983282 6.1143231 21.9375 6.8125 C21.9375 7.1425 21.9375 7.4725 21.9375 7.8125 C19.3755143 8.0623764 16.81515869 8.28791116 14.25 8.5 C13.1681543 8.60924805 13.1681543 8.60924805 12.06445312 8.72070312 C7.28752334 9.09151503 4.8155243 8.55943388 0.9375 5.8125 C-1.254091 5.05664243 -1.254091 5.05664243 -3.375 4.625 C-5.2003125 4.2228125 -5.2003125 4.2228125 -7.0625 3.8125 C-4.76038398 0.77370686 -3.910229 -0.23940178 0 0 Z " fill="#A4A4A3" transform="translate(175.0625,144.1875)"/>
<path d="M0 0 C1.34887017 0.41352224 2.70266249 0.81160996 4.0625 1.1875 C5.031875 1.455625 6.00125 1.72375 7 2 C7 2.66 7 3.32 7 4 C-3.395 4.495 -3.395 4.495 -14 5 C-13 0 -13 0 -11.5 -2 C-7.35162592 -3.65934963 -3.99671569 -1.55576852 0 0 Z " fill="#E6E8EB" transform="translate(27,155)"/>
<path d="M0 0 C9.24 0 18.48 0 28 0 C27 2 27 2 25.18115234 2.61450195 C21.67927525 3.23342561 18.16944582 3.18445494 14.625 3.1875 C13.8825 3.19974609 13.14 3.21199219 12.375 3.22460938 C7.85322517 3.23659288 4.25941878 2.7105285 0 1 C0 0.67 0 0.34 0 0 Z " fill="#374BA9" transform="translate(136,164)"/>
<path d="M0 0 C1.60495567 0.11442461 3.20898119 0.24194694 4.8125 0.375 C5.70582031 0.44460937 6.59914062 0.51421875 7.51953125 0.5859375 C10 1 10 1 13 3 C11.82421875 4.55078125 11.82421875 4.55078125 10 6 C7.51953125 5.85546875 7.51953125 5.85546875 4.8125 5.1875 C3.91144531 4.97480469 3.01039063 4.76210937 2.08203125 4.54296875 C1.39496094 4.36378906 0.70789063 4.18460938 0 4 C0 2.68 0 1.36 0 0 Z " fill="#D0D229" transform="translate(155,148)"/>
<path d="M0 0 C-2.31 2.97 -4.62 5.94 -7 9 C-7.99 8.01 -8.98 7.02 -10 6 C-8.20404732 1.26521567 -5.07984355 -1.69328118 0 0 Z " fill="#9FA0A2" transform="translate(134,151)"/>
<path d="M0 0 C0.66 0.33 1.32 0.66 2 1 C-1.72346836 5.42094803 -5.29521038 9.57833482 -10 13 C-10.66 12.67 -11.32 12.34 -12 12 C-10.75479583 10.55834372 -9.50362077 9.12184348 -8.25 7.6875 C-7.55390625 6.88699219 -6.8578125 6.08648437 -6.140625 5.26171875 C-4.20854665 3.22034399 -2.30056874 1.60107149 0 0 Z " fill="#3548E8" transform="translate(121,12)"/>
<path d="M0 0 C-1.05078125 1.48828125 -1.05078125 1.48828125 -3 3 C-6.35546875 3.29296875 -6.35546875 3.29296875 -10.1875 3.1875 C-11.45980469 3.16042969 -12.73210937 3.13335937 -14.04296875 3.10546875 C-15.01878906 3.07066406 -15.99460938 3.03585938 -17 3 C-13.98491736 0.39765489 -11.89591909 -0.43953576 -7.9375 -0.75 C-7.08027344 -0.82734375 -6.22304687 -0.9046875 -5.33984375 -0.984375 C-3 -1 -3 -1 0 0 Z " fill="#D7D923" transform="translate(160,161)"/>
<path d="M0 0 C0 0.33 0 0.66 0 1 C-0.84884766 1.16435547 -0.84884766 1.16435547 -1.71484375 1.33203125 C-2.81505859 1.56986328 -2.81505859 1.56986328 -3.9375 1.8125 C-4.66839844 1.96332031 -5.39929688 2.11414063 -6.15234375 2.26953125 C-6.76207031 2.51058594 -7.37179688 2.75164062 -8 3 C-8.33 3.99 -8.66 4.98 -9 6 C-6.36 6.66 -3.72 7.32 -1 8 C-6.13942384 9.28485596 -7.37835584 8.22194431 -12 6 C-12 4.68 -12 3.36 -12 2 C-8.09971775 -0.60018816 -4.52565431 -0.15085514 0 0 Z " fill="#3F519E" transform="translate(148,152)"/>
<path d="M0 0 C1.32 0.33 2.64 0.66 4 1 C3.02142864 3.93571407 2.30705349 4.84647326 -0.5 6.25 C-5.04535236 7.22400408 -9.37139834 7.16465381 -14 7 C-14 6.67 -14 6.34 -14 6 C-7.07 5.01 -7.07 5.01 0 4 C0 2.68 0 1.36 0 0 Z " fill="#3548A9" transform="translate(161,154)"/>
</svg>
