<svg width="50" height="50" viewBox="0 0 50 50" fill="none" xmlns="http://www.w3.org/2000/svg">
<mask id="mask0_646_4329" style="mask-type:alpha" maskUnits="userSpaceOnUse" x="0" y="0" width="50" height="50">
<circle cx="25" cy="25" r="25" fill="white"/>
</mask>
<g mask="url(#mask0_646_4329)">
<ellipse cx="26.7855" cy="25" rx="28.9286" ry="26.4286" fill="#0073E6"/>
<path d="M21.7584 35.5611H28.5845C28.511 34.5896 26.2503 34.4363 26.1779 31.9805L25.1714 32.098L24.165 31.9805C24.0924 34.4363 21.8319 34.5896 21.7584 35.5611Z" fill="white"/>
<path d="M10.1386 32.431H40.2046C41.4019 32.431 42.3726 31.75 42.3726 30.9101V18.5297C42.3726 17.6898 41.4019 17.0088 40.2046 17.0088H10.1386C8.94129 17.0088 7.97061 17.6898 7.97061 18.5297V30.9101C7.97061 31.75 8.94129 32.431 10.1386 32.431Z" fill="white"/>
<path d="M10.0171 15.8071H40.3258C41.4563 15.8071 42.3726 16.4499 42.3726 17.243V29.6054H7.97061V17.243C7.97061 16.4499 8.88691 15.8071 10.0171 15.8071Z" fill="white"/>
<path d="M24.316 30.9133C24.316 31.2447 24.699 31.5135 25.1713 31.5135C25.6437 31.5135 26.0266 31.2448 26.0266 30.9133C26.0266 30.5819 25.6437 30.3133 25.1713 30.3133C24.699 30.3133 24.316 30.5819 24.316 30.9133Z" fill="white"/>
<path d="M9.24869 29.6053H40.9656V16.923C40.9656 16.7338 40.7469 16.5805 40.4773 16.5805H9.73697C9.46715 16.5805 9.24869 16.7339 9.24869 16.923V29.6053Z" fill="#0073E6"/>
<path d="M21.6912 35.9195H28.6521C28.7541 35.9195 28.8367 35.8616 28.8367 35.7901V35.6905C28.8367 35.619 28.7541 35.561 28.6521 35.561H21.6912C21.5892 35.561 21.5066 35.619 21.5066 35.6905V35.7901C21.5066 35.8616 21.5892 35.9195 21.6912 35.9195Z" fill="white"/>
<path d="M10.1211 17.8261H39.9802C40.2068 17.8261 40.3906 17.6971 40.3906 17.5382V17.3168C40.3906 17.1579 40.2068 17.0289 39.9802 17.0289H10.1211C9.89453 17.0289 9.71073 17.1579 9.71073 17.3168V17.5382C9.71092 17.6971 9.89453 17.8261 10.1211 17.8261Z" fill="#CCE3FA"/>
<path d="M12.6331 17.4276C12.6331 17.5238 12.7443 17.6018 12.8815 17.6018C13.0187 17.6018 13.1299 17.5238 13.1299 17.4276C13.1299 17.3313 13.0187 17.2533 12.8815 17.2533C12.7443 17.2533 12.6331 17.3312 12.6331 17.4276Z" fill="#D7E2FF"/>
<path d="M11.8463 17.4276C11.8463 17.5238 11.9575 17.6018 12.0949 17.6018C12.2322 17.6018 12.3433 17.5238 12.3433 17.4276C12.3433 17.3313 12.232 17.2533 12.0949 17.2533C11.9577 17.2533 11.8463 17.3312 11.8463 17.4276Z" fill="#D7E2FF"/>
<path d="M11.0601 17.4276C11.0601 17.5238 11.1714 17.6018 11.3087 17.6018C11.4461 17.6018 11.5571 17.5238 11.5571 17.4276C11.5571 17.3313 11.4459 17.2533 11.3087 17.2533C11.1716 17.2533 11.0601 17.3312 11.0601 17.4276Z" fill="#D7E2FF"/>
<path d="M35.284 23.3411C33.8199 22.9157 33.1246 21.7381 33.7311 20.711C34.3376 19.6838 36.0162 19.1961 37.4803 19.6215C38.9444 20.047 39.6397 21.2246 39.0332 22.2517C38.4267 23.2789 36.7482 23.7666 35.284 23.3411Z" fill="#CCE3FA"/>
<path d="M33.8389 25.3484H38.9303C39.109 25.3484 39.2539 25.2468 39.2539 25.1214V24.9469C39.2539 24.8215 39.109 24.7198 38.9303 24.7198H33.8389C33.6602 24.7198 33.5153 24.8215 33.5153 24.9469V25.1214C33.5153 25.2469 33.6602 25.3484 33.8389 25.3484Z" fill="#3A79B8"/>
<path d="M33.5153 25.8607H39.2542V27.6302H33.5153V25.8607Z" fill="#CCE3FA"/>
<path d="M23.3874 20.2159H30.7866C30.9992 20.2159 31.1714 20.0951 31.1714 19.946V19.7385C31.1714 19.5893 30.9992 19.4685 30.7866 19.4685H23.3874C23.1748 19.4685 23.0025 19.5893 23.0025 19.7385V19.946C23.0025 20.095 23.1748 20.2159 23.3874 20.2159Z" fill="#3A79B8"/>
<path d="M17.3492 21.8552H30.7861C30.9987 21.8552 31.1709 21.7343 31.1709 21.5852V21.3777C31.1709 21.2286 30.9987 21.1077 30.7861 21.1077H17.3492C17.1366 21.1077 16.9644 21.2286 16.9644 21.3777V21.5852C16.9644 21.7343 17.1368 21.8552 17.3492 21.8552Z" fill="#CCE3FA"/>
<path d="M23.0025 22.7469H31.1714V26.395H23.0025V22.7469Z" fill="#CCE3FA"/>
<path d="M23.3874 27.6849H30.7866C30.9992 27.6849 31.1714 27.564 31.1714 27.4149V27.2074C31.1714 27.0583 30.9992 26.9374 30.7866 26.9374H23.3874C23.1748 26.9374 23.0025 27.0583 23.0025 27.2074V27.4149C23.0025 27.564 23.1748 27.6849 23.3874 27.6849Z" fill="#3A79B8"/>
<path d="M12.9156 22.7469H21.0845V26.395H12.9156V22.7469Z" fill="#CCE3FA"/>
<path d="M13.3004 27.6849H20.6996C20.9122 27.6849 21.0845 27.564 21.0845 27.4149V27.2074C21.0845 27.0583 20.9122 26.9374 20.6996 26.9374H13.3004C13.0878 26.9374 12.9156 27.0583 12.9156 27.2074V27.4149C12.9156 27.564 13.0878 27.6849 13.3004 27.6849Z" fill="#3A79B8"/>
<path opacity="0.2" d="M35.2178 15.8071L31.1334 29.6054H23.2653L28.1145 15.8071H35.2178Z" fill="white"/>
<path opacity="0.2" d="M25.3665 15.8071L21.2819 29.6054H16.9657L21.8147 15.8071H25.3665Z" fill="white"/>
</g>
</svg>
