<svg width="50" height="50" viewBox="0 0 50 50" fill="none" xmlns="http://www.w3.org/2000/svg">
<mask id="mask0_646_4364" style="mask-type:alpha" maskUnits="userSpaceOnUse" x="0" y="0" width="50" height="50">
<circle cx="25" cy="25" r="25" fill="white"/>
</mask>
<g mask="url(#mask0_646_4364)">
<ellipse cx="26.7855" cy="25" rx="28.9286" ry="26.4286" fill="#F55B3F"/>
<path d="M24.8293 18.5102C30.9242 18.5765 36.0104 20.1984 40.0153 23.4427C40.5623 23.8857 40.4955 24.5005 39.885 24.868C39.3032 25.2187 38.438 25.1742 37.9029 24.7383C36.447 23.5524 34.759 22.5705 32.7811 21.8422C26.5794 19.559 19.1616 20.1187 13.819 23.2897C13.0827 23.7267 12.4274 24.2335 11.7637 24.7272C11.1888 25.1549 10.3405 25.2234 9.73284 24.856C9.13266 24.4933 9.0872 23.8754 9.63471 23.4303C12.9913 20.7012 17.2144 19.088 22.3044 18.5946C22.7031 18.5559 23.105 18.5259 23.5067 18.5131C23.9469 18.4995 24.3885 18.5102 24.8293 18.5102Z" fill="#263238"/>
<path d="M25.3328 22.4748C29.1853 22.5448 32.8069 23.6992 35.6569 26.0096C36.2191 26.4653 36.1532 27.0534 35.5294 27.4295C34.9353 27.7876 34.0754 27.7393 33.5268 27.2938C32.0398 26.0861 30.2373 25.2004 28.0398 24.7842C23.5616 23.9361 19.6897 24.7095 16.4474 27.0349C16.3268 27.1215 16.2153 27.2142 16.1008 27.3049C15.5658 27.7277 14.7001 27.7844 14.1151 27.4348C13.4983 27.066 13.4343 26.4567 13.9738 26.0106C15.2437 24.9604 16.7556 24.1253 18.5149 23.5129C20.5083 22.8188 22.6213 22.4812 25.3328 22.4748Z" fill="#263238"/>
<path d="M31.6712 29.2364C31.6706 29.6479 31.3161 30.012 30.7708 30.1612C30.2219 30.3113 29.612 30.2113 29.2009 29.8848C28.5952 29.4035 27.8966 29.0143 27.0494 28.7625C24.7366 28.075 22.185 28.5021 20.4652 29.865C20.0571 30.1882 19.5481 30.3055 18.9596 30.1802C18.3935 30.0598 18.067 29.7738 17.9796 29.364C17.9181 29.0754 18.042 28.8191 18.3068 28.5952C21.2525 26.1034 26.6718 25.7506 30.2158 27.828C30.6186 28.0641 30.9967 28.3282 31.3299 28.6119C31.5259 28.7788 31.6105 29.01 31.7452 29.2123C31.7205 29.2203 31.6958 29.2284 31.6712 29.2364Z" fill="#263238"/>
<path d="M24.8245 34.4274C23.2441 34.428 21.9891 33.5484 21.9902 32.4408C21.9911 31.3508 23.2538 30.4647 24.812 30.4605C26.3775 30.4562 27.648 31.3498 27.6438 32.4523C27.6399 33.5499 26.3883 34.4269 24.8245 34.4274Z" fill="#263238"/>
<path d="M24.842 11.5825C13.7267 11.5825 4.68384 17.9264 4.68384 25.724C4.68384 33.5218 13.7267 39.8657 24.842 39.8657C35.9571 39.8657 45 33.5218 45 25.724C45.0002 17.9264 35.9574 11.5825 24.842 11.5825ZM7.4563 25.724C7.4563 18.9986 15.2556 13.5273 24.8423 13.5273C29.3671 13.5273 33.4924 14.7471 36.5886 16.7414L12.0379 33.9646C9.19501 31.7925 7.4563 28.8985 7.4563 25.724ZM24.842 37.9209C20.7766 37.9209 17.0359 36.9343 14.0716 35.2881L38.4748 18.1683C40.8215 20.2477 42.2278 22.872 42.2278 25.724C42.2281 32.4495 34.4288 37.9209 24.842 37.9209Z" fill="white"/>
</g>
</svg>
