<svg width="50" height="50" viewBox="0 0 50 50" fill="none" xmlns="http://www.w3.org/2000/svg">
<mask id="mask0_646_4356" style="mask-type:alpha" maskUnits="userSpaceOnUse" x="0" y="0" width="50" height="50">
<circle cx="25" cy="25" r="25" fill="white"/>
</mask>
<g mask="url(#mask0_646_4356)">
<ellipse cx="26.7855" cy="25" rx="28.9286" ry="26.4286" fill="#FFCF73"/>
<path d="M39.1423 18.8838H18.8781C18.6277 18.8838 18.3851 18.9379 18.193 19.0367L15.7156 20.9012L40.2107 30.0252V19.5412C40.2107 19.1781 39.7324 18.8838 39.1423 18.8838Z" fill="white"/>
<path d="M38.1033 28.3346V14.9759H21.4829V28.4252L38.1033 28.3346Z" fill="#D2DFFF"/>
<path d="M39.0791 30.523H12.0085C11.3836 30.523 10.8769 30.2112 10.8769 29.8267L5 21.5975C5 21.213 5.50669 20.9012 6.1316 20.9012H34.3338L40.2107 29.8266C40.2107 30.2112 39.704 30.523 39.0791 30.523Z" fill="white"/>
</g>
</svg>
