<svg width="850" height="1040" viewBox="0 0 850 1040" fill="none" xmlns="http://www.w3.org/2000/svg">
<g clip-path="url(#clip0_648_7154)">
<rect width="850" height="1040" fill="#FF595A" fill-opacity="0.2"/>
<mask id="mask0_648_7154" style="mask-type:luminance" maskUnits="userSpaceOnUse" x="-163" y="-194" width="1013" height="1320">
<path d="M850 -193.644H-163V1125.64H850V-193.644Z" fill="white"/>
</mask>
<g mask="url(#mask0_648_7154)">
<path d="M1032.34 -148.963L-271.188 831.208L-241.789 1299.82L327.652 1495.04L1367.76 1108.2L1032.34 -148.963Z" fill="#FFFCFB"/>
<path d="M788.274 524.812L750.523 553.396L722.069 543.34L710.656 550.23L699.963 542.168L734.743 515.84L748.16 525.926L768.892 510.241L747.574 494.204L720.403 499.716L678.6 531.349L669.911 524.812L632.16 553.396L641.592 560.491L628.783 570.166L656.607 591.098L651.654 594.851L581.622 542.168L616.402 515.84L629.819 525.926L650.551 510.241L629.233 494.204L602.062 499.716L560.169 531.408L552.966 551.93L632.295 611.562L600.734 606.813L531.175 554.481L510.442 570.166L569.804 614.816L564.379 618.921L564.762 619.214L465.42 604.233L446.016 618.921L509.474 666.65L498.354 668.878L491.33 674.213L431.969 629.563L411.236 645.248L470.598 689.898L456.551 700.541L407.184 663.395L380.013 668.878L316.487 716.958L375.871 761.609L354.283 777.939L357.434 768.938L312.435 735.106L285.264 740.588L229.143 783.069L288.528 827.72L285.466 830.007L300.549 853.871L188.443 813.882L167.125 830.007L204.944 889.844L185.044 904.883L135.677 867.768L108.506 873.25L62.1561 908.343L54.975 928.836L105.107 966.538L91.0603 977.151L89.6646 976.125L69.3146 980.259L68.9994 980.054L74.4471 964.691L41.6709 940.035L14.5001 945.517L-41.6201 987.998L-55.6671 998.641L-76.3998 1014.33L-89.8389 1024.65L-184.341 1095.8L-219.12 1121.22L-226.301 1141.74L-140.466 1206.27H-22.1255L5.04538 1200.78L51.3958 1165.69L58.5768 1145.2L54.7949 1142.36L81.8758 1141.5L102.586 1125.82L43.2242 1081.17L147.608 1091.75L167.013 1077.07L153.461 1066.89L181.06 1066.42L237.18 1023.97L244.383 1003.45L230.967 993.364H259.151L286.322 987.911L332.672 952.817L338.232 936.927H352.369L352.639 936.224L352.774 936.458L373.215 921.008L363.692 906.144L369.253 891.104L368.442 890.664L382.759 879.817H427.196L427.286 879.612L427.691 879.758L448.132 864.308L441.243 861.845H451.441L451.621 861.347L451.823 861.494L472.556 845.809L460.648 836.867L467.063 819.423H507.628L507.696 819.218L530.432 802.008L515.17 798.901L516.453 795.441H539.504L539.662 795.031L602.67 747.331L609.874 726.838L606.25 724.112H634.366L634.771 723.056L654.648 708.016L643.415 699.544L644.001 697.961H669.146L669.618 696.671L689.428 681.689L678.218 673.246L686.006 652.137L678.218 647.974H733.775L733.933 647.535L734.428 647.623L753.832 632.934L742.464 624.374L745.233 616.81H757.029L757.164 616.458L784.335 610.976L826.228 579.254L833.409 558.761L788.274 524.812Z" fill="#C2BACA"/>
<path d="M697.555 -414.903L-201.989 366.848L-253.134 877.764L1006.88 -69.6602L697.555 -414.903Z" fill="#EBE5ED"/>
<path d="M409.007 581.893H329.926L251.52 522.935L353.247 446.446L409.007 581.893Z" fill="#C2BACA"/>
<path d="M409.007 470.31L332.109 412.496L409.007 354.682L485.883 412.496L409.007 470.31Z" fill="#FFFCFB"/>
<path d="M409.007 581.893L332.109 524.078V412.496L409.007 470.31V581.893Z" fill="#C2BACA"/>
<path d="M485.882 524.078L409.007 581.893V470.31L485.882 412.496V524.078Z" fill="#EBE5ED"/>
<path d="M177.931 638.094L173.069 647.006C173.699 648.033 174.239 649.088 174.712 650.143L186.058 653.691V665.007L174.262 668.701C173.744 669.728 173.159 670.783 172.461 671.78L177.188 680.311L166.631 688.315L154.767 684.621C153.416 685.09 152.021 685.5 150.625 685.823L145.965 694.383H130.973L126.043 685.442C124.67 685.061 123.297 684.591 121.946 684.093L110.623 687.64L99.9976 679.637L104.86 670.724C104.23 669.669 103.712 668.643 103.239 667.558L91.9161 664.011L91.8711 652.694L103.667 648.971C104.185 647.945 104.77 646.889 105.468 645.892L100.718 637.332L111.276 629.328L123.117 633.022C124.49 632.582 125.885 632.172 127.304 631.82L131.963 623.289H146.956L151.908 632.201C153.281 632.582 154.655 633.051 156.005 633.55L167.306 630.002L177.931 638.006V638.094Z" fill="#C2BACA"/>
<path d="M225.834 699.631L220.972 708.544C221.602 709.57 222.143 710.625 222.615 711.68L233.961 715.228V726.544L222.165 730.238C221.647 731.265 221.062 732.32 220.364 733.317L225.092 741.848L214.534 749.852L202.67 746.158C201.32 746.627 199.924 747.037 198.528 747.36L193.869 755.921H178.876L173.946 746.979C172.573 746.598 171.2 746.129 169.849 745.63L158.526 749.178L147.901 741.174L152.763 732.261C152.133 731.206 151.615 730.18 151.143 729.095L139.819 725.548L139.774 714.231L151.57 710.508C152.088 709.482 152.673 708.426 153.371 707.429L148.621 698.869L159.179 690.865L171.02 694.559C172.393 694.119 173.789 693.709 175.207 693.357L179.867 684.826H194.859L199.812 693.738C201.185 694.119 202.558 694.588 203.909 695.087L215.209 691.539L225.834 699.543V699.631Z" fill="#C2BACA"/>
<path d="M163.209 599.336C158.436 602.913 150.715 602.913 145.965 599.336C141.193 595.759 141.193 589.955 145.965 586.378C150.737 582.801 158.459 582.801 163.209 586.378C167.981 589.955 167.981 595.759 163.209 599.336Z" fill="#FFFCFB"/>
<path d="M166.765 587.727V660.317C166.788 662.691 165.595 665.066 163.186 666.884C158.414 670.46 150.692 670.46 145.943 666.884C143.579 665.125 142.408 662.809 142.363 660.493V587.902C142.386 590.219 143.579 592.535 145.943 594.294C150.715 597.87 158.436 597.87 163.186 594.294C165.595 592.476 166.788 590.101 166.765 587.727Z" fill="#C2BACA"/>
<path d="M121.067 584.414L121.022 605.933L116.272 597.401L116.317 575.882L121.067 584.414Z" fill="#C2BACA"/>
<path d="M193.508 576.586L193.463 598.105L188.601 607.017L188.646 585.498L193.508 576.586Z" fill="#F4EDF6"/>
<path d="M118.839 606.049L118.794 627.568L107.493 624.05L107.516 602.531L118.839 606.049Z" fill="#C2BACA"/>
<path d="M201.68 603.499L201.658 625.018L189.817 628.712L187.498 616.106L189.862 607.193L201.68 603.499Z" fill="#EBE5ED"/>
<path d="M120.46 609.216L120.415 630.735C119.784 629.68 119.267 628.654 118.794 627.569L118.839 606.05C119.312 607.135 119.829 608.161 120.46 609.216Z" fill="#C2BACA"/>
<path d="M189.862 607.193L189.816 628.712C189.299 629.738 188.713 630.793 188.016 631.79L188.061 610.271C188.736 609.274 189.344 608.219 189.862 607.193Z" fill="#C2BACA"/>
<path d="M141.643 623.963L141.598 645.482C140.225 645.101 138.852 644.632 137.501 644.133L137.546 622.614C138.874 623.142 140.27 623.582 141.643 623.963Z" fill="#C2BACA"/>
<path d="M170.367 623.112L170.322 644.631C168.972 645.1 167.576 645.511 166.18 645.833L166.225 624.314C167.621 623.963 169.017 623.581 170.367 623.112Z" fill="#C2BACA"/>
<path d="M137.546 622.585L137.501 644.104L126.178 647.651L126.223 626.132L137.546 622.585Z" fill="#EBE5ED"/>
<path d="M126.223 626.132L126.178 647.651L115.553 639.647L115.598 618.128L126.223 626.132Z" fill="#C2BACA"/>
<path d="M182.23 626.806L182.185 648.325L170.322 644.631L170.367 623.112L182.23 626.806Z" fill="#C2BACA"/>
<path d="M192.788 618.803L192.743 640.322L182.185 648.325L182.23 626.806L192.788 618.803Z" fill="#F4EDF6"/>
<path d="M166.225 624.344L166.18 645.863L161.52 654.395L161.565 632.876L166.225 624.344Z" fill="#F4EDF6"/>
<path d="M146.572 632.875L146.527 654.394L141.575 645.453L141.642 623.963L146.572 632.875Z" fill="#C2BACA"/>
<path d="M161.565 632.875L161.52 654.395H146.528L146.573 632.875H161.565Z" fill="#EBE5ED"/>
<path d="M193.508 576.586L188.646 585.498C189.276 586.524 189.816 587.58 190.289 588.635L201.635 592.182V603.499L189.839 607.193C189.321 608.219 188.736 609.275 188.038 610.271L192.765 618.803L182.208 626.806L170.344 623.112C168.994 623.581 167.598 623.992 166.202 624.314L161.542 632.875H146.55L141.62 623.933C140.247 623.552 138.874 623.083 137.523 622.585L126.2 626.132L115.575 618.128L120.437 609.216C119.807 608.161 119.289 607.134 118.816 606.05L107.493 602.502L107.448 591.186L119.244 587.462C119.762 586.436 120.347 585.381 121.045 584.384L116.295 575.823L126.853 567.82L138.694 571.514C140.067 571.074 141.463 570.663 142.881 570.312L147.541 561.78H162.533L167.485 570.693C168.859 571.074 170.232 571.543 171.582 572.041L182.883 568.494L193.508 576.498V576.586Z" fill="#FFFCFB"/>
<path d="M161.475 601.74C157.671 604.613 151.48 604.613 147.653 601.74C143.849 598.867 143.849 594.235 147.653 591.362C151.457 588.489 157.648 588.489 161.475 591.362C165.279 594.235 165.279 598.867 161.475 601.74Z" fill="#C2BACA"/>
<path d="M211.112 660.873C206.339 664.45 198.618 664.45 193.868 660.873C189.096 657.296 189.096 651.491 193.868 647.914C198.641 644.338 206.362 644.338 211.112 647.914C215.862 651.491 215.884 657.296 211.112 660.873Z" fill="#FFFCFB"/>
<path d="M214.691 649.292V721.883C214.714 724.257 213.521 726.632 211.112 728.45C206.339 732.026 198.618 732.026 193.868 728.45C191.505 726.691 190.334 724.375 190.289 722.058V649.468C190.312 651.784 191.505 654.101 193.868 655.86C198.641 659.436 206.362 659.436 211.112 655.86C213.521 654.042 214.714 651.667 214.691 649.292Z" fill="#C2BACA"/>
<path d="M168.971 645.98L168.926 667.499L164.176 658.938L164.221 637.419L168.971 645.98Z" fill="#C2BACA"/>
<path d="M241.434 638.123L241.389 659.642L236.527 668.555L236.572 647.036L241.434 638.123Z" fill="#F4EDF6"/>
<path d="M166.743 667.616L166.698 689.135L155.397 685.587L155.419 664.068L166.743 667.616Z" fill="#C2BACA"/>
<path d="M249.583 665.036L249.561 686.555L237.72 690.249L235.401 677.643L237.788 668.73L249.583 665.036Z" fill="#EBE5ED"/>
<path d="M168.363 670.783L168.318 692.302C167.688 691.246 167.17 690.22 166.697 689.135L166.742 667.616C167.215 668.701 167.733 669.727 168.363 670.783Z" fill="#C2BACA"/>
<path d="M237.787 668.73L237.742 690.249C237.225 691.275 236.639 692.331 235.941 693.327L235.986 671.808C236.662 670.812 237.27 669.756 237.787 668.73Z" fill="#C2BACA"/>
<path d="M189.546 685.5L189.501 707.019C188.128 706.638 186.755 706.169 185.404 705.67L185.449 684.151C186.777 684.679 188.173 685.119 189.546 685.5Z" fill="#C2BACA"/>
<path d="M218.293 684.679L218.248 706.198C216.897 706.667 215.502 707.077 214.106 707.4L214.151 685.881C215.547 685.529 216.942 685.148 218.293 684.679Z" fill="#C2BACA"/>
<path d="M185.449 684.122L185.404 705.641L174.104 709.189L174.149 687.699L185.449 684.122Z" fill="#EBE5ED"/>
<path d="M174.149 687.698L174.104 709.188L163.456 701.214L163.501 679.695L174.149 687.698Z" fill="#C2BACA"/>
<path d="M230.133 688.343L230.088 709.862L218.225 706.198L218.293 684.679L230.133 688.343Z" fill="#C2BACA"/>
<path d="M240.714 680.34L240.669 701.859L230.089 709.863L230.134 688.344L240.714 680.34Z" fill="#F4EDF6"/>
<path d="M214.129 685.881L214.084 707.4L209.424 715.961L209.469 694.442L214.129 685.881Z" fill="#F4EDF6"/>
<path d="M194.476 694.413L194.431 715.932L189.501 707.019L189.546 685.5L194.476 694.413Z" fill="#C2BACA"/>
<path d="M209.469 694.442L209.424 715.961L194.432 715.932L194.477 694.413L209.469 694.442Z" fill="#EBE5ED"/>
<path d="M241.434 638.123L236.572 647.035C237.202 648.061 237.743 649.117 238.215 650.172L249.561 653.72V665.036L237.765 668.73C237.247 669.756 236.662 670.812 235.964 671.809L240.692 680.34L230.134 688.344L218.271 684.65C216.92 685.119 215.524 685.529 214.128 685.852L209.469 694.412H194.476L189.546 685.47C188.173 685.089 186.8 684.62 185.449 684.122L174.126 687.669L163.501 679.666L168.363 670.753C167.733 669.698 167.215 668.672 166.743 667.587L155.42 664.039L155.375 652.723L167.17 649C167.688 647.973 168.273 646.918 168.971 645.921L164.221 637.36L174.779 629.357L186.62 633.051C187.993 632.611 189.389 632.201 190.807 631.849L195.467 623.317H210.459L215.412 632.23C216.785 632.611 218.158 633.08 219.509 633.579L230.809 630.031L241.434 638.035V638.123Z" fill="#FFFCFB"/>
<path d="M209.401 663.307C205.596 666.18 199.406 666.18 195.579 663.307C191.774 660.433 191.774 655.801 195.579 652.928C199.383 650.055 205.574 650.055 209.401 652.928C213.205 655.801 213.205 660.433 209.401 663.307Z" fill="#C2BACA"/>
<path d="M748.16 359.462L747.8 526.747L734.383 516.662L734.743 349.376L748.16 359.462Z" fill="#C2BACA"/>
<path d="M768.893 343.776L768.533 511.062L747.8 526.747L748.16 359.461L768.893 343.776Z" fill="#EBE5ED"/>
<path d="M734.743 349.376L734.383 516.662L699.603 542.989L699.963 375.704L734.743 349.376Z" fill="#EBE5ED"/>
<path d="M785.416 387.459L785.056 554.774L768.037 567.644L768.397 400.359L785.416 387.459Z" fill="#EBE5ED"/>
<path d="M768.398 400.359L768.037 567.645L750.141 554.188L750.524 386.902L768.398 400.359Z" fill="#C2BACA"/>
<path d="M804.797 402.03L804.415 569.315L785.055 554.774L785.415 387.459L804.797 402.03Z" fill="#C2BACA"/>
<path d="M833.409 392.268L833.049 559.582L825.868 580.075L826.228 412.79L833.409 392.268Z" fill="#F4EDF6"/>
<path d="M826.229 412.79L825.868 580.076L783.953 611.797L784.335 444.512L826.229 412.79Z" fill="#EBE5ED"/>
<path d="M784.335 444.512L783.953 611.797L756.804 617.28L757.164 449.994L784.335 444.512Z" fill="#D3CADC"/>
<path d="M833.41 392.268L826.229 412.79L784.335 444.511L757.164 449.994L671.33 385.437L678.511 364.944L720.404 333.222L747.575 327.74L768.893 343.776L748.16 359.461L734.743 349.376L699.964 375.703L769.996 428.357L804.798 402.03L785.416 387.459L768.397 400.359L750.524 386.902L788.275 358.347L833.41 392.268Z" fill="#FFFCFB"/>
<path d="M757.164 449.994L756.804 617.279L670.969 552.751L671.329 385.437L757.164 449.994Z" fill="#C2BACA"/>
<path d="M696.294 454.45L695.934 621.765L628.423 570.987L628.783 403.701L696.294 454.45Z" fill="#C2BACA"/>
<path d="M622.21 464.213L621.85 631.498L621.557 631.733L621.917 464.447L622.21 464.213Z" fill="#EBE5ED"/>
<path d="M734.428 481.129L734.068 648.415L621.85 631.498L622.21 464.213L734.428 481.129Z" fill="#C2BACA"/>
<path d="M753.833 466.441L753.472 633.726L734.068 648.415L734.428 481.129L753.833 466.441Z" fill="#EBE5ED"/>
<path d="M668.695 530.881L668.335 698.196L564.019 619.742L564.379 452.457L668.695 530.881Z" fill="#C2BACA"/>
<path d="M689.429 515.195L689.069 682.481L668.336 698.195L668.696 530.88L689.429 515.195Z" fill="#EBE5ED"/>
<path d="M753.832 466.441L734.428 481.129L622.21 464.213L621.917 464.447L689.428 515.196L668.695 530.881L564.379 452.456L583.783 437.768L696.001 454.685L696.294 454.45L628.783 403.701L649.516 388.017L753.832 466.441Z" fill="#FFFCFB"/>
<path d="M654.649 541.522L654.266 708.808L633.534 724.493L633.916 557.207L654.649 541.522Z" fill="#EBE5ED"/>
<path d="M633.916 557.207L633.533 724.493L529.216 646.069L529.599 478.783L633.916 557.207Z" fill="#C2BACA"/>
<path d="M654.648 541.523L633.916 557.208L529.599 478.783L550.332 463.099L654.648 541.523Z" fill="#FFFCFB"/>
<path d="M512.694 518.538L512.311 685.853L473.097 715.522L473.457 548.237L512.694 518.538Z" fill="#EBE5ED"/>
<path d="M581.24 570.108L580.88 737.393L512.311 685.853L512.694 518.538L581.24 570.108Z" fill="#C2BACA"/>
<path d="M609.874 560.345L609.514 727.63L602.31 748.153L602.67 580.867L609.874 560.345Z" fill="#F4EDF6"/>
<path d="M539.166 628.918L538.806 796.204L434.49 717.78L434.85 550.494L539.166 628.918Z" fill="#C2BACA"/>
<path d="M602.671 580.867L602.31 748.153L538.807 796.204L539.167 628.919L602.671 580.867Z" fill="#EBE5ED"/>
<path d="M609.874 560.344L602.671 580.837L539.167 628.918L434.851 550.494L498.354 502.413L525.525 496.931L609.874 560.344ZM542.003 599.776L581.218 570.078L512.671 518.538L473.457 548.236L542.003 599.776Z" fill="#FFFCFB"/>
<path d="M447.164 612.237L446.804 779.522L417.584 757.534L417.945 590.249L447.164 612.237Z" fill="#C2BACA"/>
<path d="M417.944 590.249L417.584 757.534L385.753 781.633L386.114 614.348L417.944 590.249Z" fill="#EBE5ED"/>
<path d="M475.776 602.474L475.415 769.759L468.234 790.281L468.595 622.967L475.776 602.474Z" fill="#F4EDF6"/>
<path d="M446.083 640L445.723 807.315L432.847 817.048L433.207 649.763L446.083 640Z" fill="#EBE5ED"/>
<path d="M530.433 635.515L530.072 802.83L507.269 820.068L507.629 652.783L530.433 635.515Z" fill="#EBE5ED"/>
<path d="M507.629 652.782L507.269 820.068L445.723 807.315L446.083 640L507.629 652.782Z" fill="#C2BACA"/>
<path d="M451.824 695.03L451.463 862.315L347.147 783.891L347.507 616.605L451.824 695.03Z" fill="#C2BACA"/>
<path d="M472.556 679.344L472.196 846.63L451.463 862.315L451.824 695.029L472.556 679.344Z" fill="#EBE5ED"/>
<path d="M507.629 652.783L446.084 640L433.207 649.734L472.534 679.315L451.801 695L347.485 616.576L403.605 574.095L430.776 568.612L475.776 602.445L468.595 622.967L530.433 635.515L507.629 652.783ZM415.333 636.306L447.164 612.207L417.945 590.249L386.114 614.348L415.333 636.306Z" fill="#FFFCFB"/>
<path d="M322.52 675.093L322.137 842.379L321.867 842.584L322.227 675.299L322.52 675.093Z" fill="#EBE5ED"/>
<path d="M373.079 693.681L372.719 860.966L322.137 842.379L322.519 675.093L373.079 693.681Z" fill="#C2BACA"/>
<path d="M448.132 697.814L447.772 865.1L427.332 880.58L427.692 713.294L448.132 697.814Z" fill="#EBE5ED"/>
<path d="M427.691 713.294L427.331 880.579L396.986 869.615L397.347 702.329L427.691 713.294Z" fill="#C2BACA"/>
<path d="M397.347 702.329L396.986 869.615L358.2 898.961L358.56 731.676L397.347 702.329Z" fill="#EBE5ED"/>
<path d="M352.774 769.994L352.414 937.279L285.106 830.828L285.466 663.542L352.774 769.994Z" fill="#C2BACA"/>
<path d="M373.215 754.515L372.855 921.8L352.415 937.28L352.775 769.994L373.215 754.515Z" fill="#EBE5ED"/>
<path d="M427.692 713.294L397.347 702.33L358.56 731.676L373.192 754.544L352.752 769.994L285.444 663.543L306.762 647.418L448.109 697.844L427.669 713.324L427.692 713.294ZM346.877 713.529L373.08 693.71L322.497 675.123L322.204 675.328L346.877 713.529Z" fill="#FFFCFB"/>
<path d="M241.187 722.939L240.827 890.225L201.59 919.924L201.95 752.609L241.187 722.939Z" fill="#EBE5ED"/>
<path d="M311.219 775.594L310.859 942.879L240.827 890.225L241.187 722.939L311.219 775.594Z" fill="#C2BACA"/>
<path d="M339.853 765.831L339.493 933.116L332.29 953.638L332.672 786.353L339.853 765.831Z" fill="#F4EDF6"/>
<path d="M332.673 786.353L332.29 953.639L285.939 988.702L286.322 821.417L332.673 786.353Z" fill="#EBE5ED"/>
<path d="M259.151 826.899L258.79 994.184L172.956 929.657L173.316 762.371L259.151 826.899Z" fill="#C2BACA"/>
<path d="M286.322 821.417L285.939 988.702L258.791 994.184L259.151 826.899L286.322 821.417Z" fill="#D3CADC"/>
<path d="M339.854 765.83L332.673 786.353L286.322 821.446L259.174 826.928L173.339 762.4L180.52 741.907L226.87 706.814L254.041 701.332L339.876 765.86L339.854 765.83ZM271.983 805.292L311.219 775.593L241.187 722.939L201.95 752.638L271.983 805.292Z" fill="#FFFCFB"/>
<path d="M170.728 812.886L170.367 980.171L146.821 962.463L147.181 795.178L170.728 812.886Z" fill="#C2BACA"/>
<path d="M192.811 798.197L192.451 965.483L187.003 980.845L187.363 813.56L192.811 798.197Z" fill="#F4EDF6"/>
<path d="M147.181 795.178L146.82 962.463L114.99 986.562L115.35 819.277L147.181 795.178Z" fill="#EBE5ED"/>
<path d="M215.727 846.718L215.367 1014.03L188.263 993.628L188.623 826.342L215.727 846.718Z" fill="#C2BACA"/>
<path d="M188.624 826.342L188.264 993.628L156.433 1017.73L156.793 850.441L188.624 826.342Z" fill="#EBE5ED"/>
<path d="M244.384 836.984L244.001 1004.27L236.82 1024.76L237.18 857.477L244.384 836.984Z" fill="#F4EDF6"/>
<path d="M237.181 857.477L236.82 1024.76L180.7 1067.24L181.06 899.958L237.181 857.477Z" fill="#EBE5ED"/>
<path d="M244.383 836.985L237.18 857.477L181.06 899.958L76.7432 821.534L132.863 779.053L160.034 773.571L192.81 798.227L187.363 813.589L187.655 813.824L208.005 809.661L244.361 837.014L244.383 836.985ZM183.919 870.817L215.749 846.718L188.623 826.313L156.793 850.412L183.919 870.817ZM138.919 836.985L170.75 812.886L147.203 795.178L115.372 819.277L138.919 836.985Z" fill="#FFFCFB"/>
<path d="M181.06 899.958L180.7 1067.24L76.3833 988.819L76.7435 821.504L181.06 899.958Z" fill="#C2BACA"/>
<path d="M109.475 898.609L109.092 1065.89L41.5811 1015.15L41.9637 847.832L109.475 898.609Z" fill="#C2BACA"/>
<path d="M35.3907 908.343L35.0305 1075.63L34.7153 1075.86L35.0755 908.578L35.3907 908.343Z" fill="#EBE5ED"/>
<path d="M147.608 925.289L147.226 1092.57L35.0303 1075.63L35.3905 908.343L147.608 925.289Z" fill="#C2BACA"/>
<path d="M167.013 910.601L166.63 1077.89L147.226 1092.57L147.608 925.289L167.013 910.601Z" fill="#EBE5ED"/>
<path d="M81.8759 975.011L81.5157 1142.33L-22.8008 1063.87L-22.4406 896.587L81.8759 975.011Z" fill="#C2BACA"/>
<path d="M102.587 959.326L102.226 1126.64L81.5161 1142.33L81.8763 975.011L102.587 959.326Z" fill="#EBE5ED"/>
<path d="M167.013 910.601L147.609 925.289L35.3906 908.344L35.0755 908.578L102.586 959.327L81.8761 975.012L-22.4404 896.587L-3.05836 881.899L109.16 898.845L109.475 898.61L41.9639 847.832L62.6966 832.147L167.013 910.601Z" fill="#FFFCFB"/>
<path d="M29.965 988.468L29.5824 1155.75L-40.4497 1103.1L-40.0895 935.813L29.965 988.468Z" fill="#C2BACA"/>
<path d="M58.5774 978.705L58.1947 1146.02L51.0361 1166.51L51.3963 999.227L58.5774 978.705Z" fill="#F4EDF6"/>
<path d="M51.3956 999.228L51.0354 1166.51L4.68506 1201.58L5.04523 1034.29L51.3956 999.228Z" fill="#EBE5ED"/>
<path d="M5.04524 1034.29L4.68507 1201.58L-22.4858 1207.09L-22.1257 1039.8L5.04524 1034.29Z" fill="#D3CADC"/>
<path d="M58.5768 978.705L51.3957 999.198L5.04533 1034.29L-22.1256 1039.77L-107.96 975.246L-100.779 954.723L-54.429 919.63L-27.2806 914.148L58.5542 978.676L58.5768 978.705ZM-9.27174 1018.14L29.9651 988.439L-40.0669 935.784L-79.3038 965.483L-9.27174 1018.14Z" fill="#FFFCFB"/>
<path d="M863.395 -577.702L-227.111 -222.55L-258.627 277.577L-221.776 256.497L-226.031 401.472L615.502 -231.287L863.395 -577.702Z" fill="#001333"/>
<path d="M1071.1 530.177L203.458 1182.61L967.058 1156.93L1071.1 530.177Z" fill="#FF595A"/>
<path d="M37.0333 65.0244L-9.47461 37.5832L13.3517 15.7124L59.8596 43.1242L37.0333 65.0244Z" fill="#FFFAF5"/>
<path d="M30.0106 77.7191L-20.9771 70.1259L-14.4488 45.3232L36.5388 52.9165L30.0106 77.7191Z" fill="#FFFAF5"/>
<path d="M87.9091 25.7684L69.0898 -10.6732L100.448 -19.8203L119.245 16.6213L87.9091 25.7684Z" fill="#FFFAF5"/>
<path d="M668.741 1001.13C647.13 1017.4 647.13 1043.76 668.741 1060C690.351 1076.27 725.424 1076.27 747.034 1060C768.645 1043.73 768.645 1017.37 747.034 1001.13C725.424 984.861 690.351 984.861 668.741 1001.13ZM733.415 1049.77C719.323 1060.35 696.474 1060.35 682.382 1049.77C668.29 1039.19 668.29 1021.98 682.382 1011.39C696.474 1000.81 719.323 1000.81 733.415 1011.39C747.507 1021.98 747.507 1039.19 733.415 1049.77Z" fill="#B23C68"/>
<path d="M671.33 1050.62C667.75 1050.62 661.695 1041.62 659.984 1031.48C658.746 1024.26 658.836 1010.89 673.085 1002.42C673.378 1002.25 673.738 1002.42 673.896 1002.8C674.031 1003.18 673.896 1003.65 673.603 1003.86C660.119 1011.89 660.029 1024.41 661.177 1031.15C662.843 1040.89 668.606 1049.07 671.352 1049.07C671.735 1049.07 672.253 1048.89 672.478 1047.57C672.545 1047.16 672.86 1046.87 673.198 1046.96C673.536 1047.04 673.738 1047.45 673.671 1047.89C673.401 1049.62 672.568 1050.62 671.397 1050.65L671.33 1050.62Z" fill="#FFFCFB"/>
<path d="M753.81 1052.88C753.382 1052.88 753.09 1052.67 752.909 1052.47C752.099 1051.59 752.234 1049.62 752.369 1048.04C752.414 1047.54 752.437 1047.04 752.437 1046.84C752.392 1046.4 752.639 1046.02 752.977 1045.99C753.292 1045.93 753.607 1046.25 753.63 1046.69C753.652 1047.07 753.63 1047.57 753.585 1048.22C753.517 1049.09 753.382 1050.94 753.697 1051.29C753.742 1051.35 753.9 1051.35 754.08 1051.29C755.026 1050.94 761.171 1043.76 763.512 1033.64C765.448 1025.26 764.097 1017.58 759.55 1010.78C759.325 1010.45 759.348 1009.96 759.618 1009.66C759.865 1009.37 760.248 1009.4 760.473 1009.75C765.246 1016.87 766.709 1025.29 764.683 1034.11C762.297 1044.52 755.813 1052.32 754.418 1052.85C754.215 1052.94 754.013 1052.96 753.855 1052.96L753.81 1052.88Z" fill="#FFFCFB"/>
<path d="M678.712 986.591L673.985 990.138C672.95 990.93 672.95 992.19 673.985 992.982L677.137 995.357L685.646 988.965L682.494 986.591C681.459 985.799 679.77 985.799 678.712 986.591Z" fill="#FF73A1"/>
<path d="M750.275 989.054L755.003 992.601C756.038 993.393 756.038 994.653 755.003 995.445L751.851 997.82L743.342 991.428L746.493 989.054C747.529 988.262 749.217 988.262 750.275 989.054Z" fill="#FF73A1"/>
<path d="M746.922 989.434C727.9 975.127 698.072 975.127 679.051 989.434C668.538 997.321 662.527 1008.96 662.505 1021.3C662.505 1033.67 668.538 1045.28 679.051 1053.17C688.573 1060.32 700.774 1063.9 712.997 1063.9C725.221 1063.9 737.422 1060.32 746.944 1053.17C757.457 1045.25 763.49 1033.65 763.49 1021.3C763.49 1008.96 757.457 997.321 746.944 989.434H746.922ZM738.457 1034.11C724.636 1044.49 701.314 1044.49 687.492 1034.11C682.36 1030.24 679.411 1025.58 679.411 1021.3C679.411 1017.02 682.36 1012.36 687.492 1008.49C694.403 1003.3 703.678 1000.69 712.975 1000.69C722.272 1000.69 731.547 1003.3 738.457 1008.49C743.59 1012.36 746.539 1017.02 746.539 1021.3C746.539 1025.58 743.59 1030.24 738.457 1034.11Z" fill="#FFFCFB"/>
<path d="M698.32 980.492C691.319 982.222 684.701 985.183 679.051 989.434C676.484 991.369 672.14 995.356 670.542 997.877C674.323 993.304 685.151 1000.34 685.444 1010.22C686.097 1009.63 686.772 1009.08 687.515 1008.52C692.4 1004.86 698.478 1002.48 704.916 1001.4C707.077 996.412 705.839 981.899 698.32 980.492Z" fill="#FF73A1"/>
<path d="M700.481 1040.27C695.709 1038.98 691.251 1036.93 687.515 1034.11C684.746 1032.03 682.63 1029.72 681.257 1027.37C677.452 1024.82 668.155 1031.3 668.83 1042.26C671.487 1046.37 674.931 1050.06 679.073 1053.2C681.909 1055.34 687.875 1059.12 694.988 1061.26C694.133 1051.03 697.419 1042.82 700.503 1040.27H700.481Z" fill="#FF73A1"/>
<path d="M735.418 982.985C731.209 981.46 724.433 989.845 725.941 1002.48C730.533 1003.77 734.833 1005.79 738.457 1008.52C740.326 1009.93 741.879 1011.45 743.139 1013.01C744.175 1002.45 755.093 997.497 758.312 1002.3C755.543 997.438 748.677 988.203 735.418 983.014V982.985Z" fill="#FF73A1"/>
<path d="M743.184 1029.6C741.924 1031.18 740.348 1032.68 738.457 1034.11C734.72 1036.93 730.286 1038.98 725.513 1040.27C729.543 1040.04 734.36 1051.47 732.694 1060.68C737.804 1058.92 742.644 1056.42 746.921 1053.2C751.694 1049.62 755.543 1045.25 758.312 1040.42C759.482 1031.74 747.799 1022.91 743.184 1029.63V1029.6Z" fill="#FF73A1"/>
<path d="M744.288 993.656C727.202 980.815 699.491 980.815 682.405 993.656C665.319 1006.5 665.319 1027.34 682.405 1040.18C699.491 1053.02 727.202 1053.02 744.288 1040.18C761.374 1027.34 761.374 1006.5 744.288 993.656ZM740.101 1037.05C725.311 1048.16 701.359 1048.16 686.569 1037.05C671.78 1025.93 671.78 1007.9 686.569 996.793C701.359 985.682 725.311 985.682 740.101 996.793C754.891 1007.9 754.891 1025.93 740.101 1037.05Z" fill="#FFFCFB"/>
<path d="M27.0165 90.355C-1.00984 85.0779 -64.8739 70.9762 -43.826 44.5318C-40.9671 40.9551 -37.5679 38.1406 -35.0241 34.1828C-32.4804 30.2249 -34.0111 16.2991 -35.5194 15.8886C-37.6129 15.3316 -94.7011 25.8566 -105.281 49.4279C-127.95 99.9126 7.25174 107.682 34.6478 107.125C40.163 107.007 28.7048 90.6775 27.0165 90.355Z" fill="#0C3675"/>
<path d="M40.9286 95.6918C38.655 93.1118 35.7736 90.6491 35.0307 86.8672L31.0237 88.8608C27.6471 90.5612 25.1934 94.2845 24.1128 98.7701C23.7752 100.148 23.3024 101.497 22.8072 102.757C20.286 109.207 14.2079 117.269 12.1369 123.778C11.5066 125.772 11.6192 128.967 11.8668 130.228C12.0919 131.371 12.7447 132.133 14.0054 132.397C18.8452 133.365 27.1743 127.589 29.9207 123.954C31.2038 122.253 32.0592 120.084 33.1173 118.149C36.0437 112.784 42.707 106.129 42.3468 100.558C42.2568 98.9753 42.2343 97.187 40.9061 95.6918H40.9286Z" fill="#EBE5ED"/>
<path d="M39.7129 92.6129C37.4392 90.0329 35.7959 86.5442 35.0306 82.7622L24.2027 88.186C25.2157 91.5868 24.0677 95.398 22.807 98.6523C18.8001 108.913 6.86916 126.885 14.0052 128.292C18.8451 129.26 27.1742 123.484 29.9205 119.849C31.2037 118.148 32.0591 115.979 33.1171 114.044C36.8764 107.184 45.7233 99.4732 39.6904 92.6129H39.7129Z" fill="#FFFCFB"/>
<path d="M35.4811 81.941C28.6602 66.4906 24.9009 47.6688 21.7268 37.9061C18.6203 28.3486 12.1821 21.4003 7.70241 12.8396C3.26772 4.36687 0.768986 -5.54243 -1.32455 -15.4224C-3.84579 -27.384 -8.05537 -45.2383 -10.419 -54.9424L-40.1787 -49.4307C-37.9501 -42.072 -24.5785 -0.353207 -20.8867 11.2272C-19.9412 14.159 -18.9282 17.0907 -17.4875 19.6706C-14.4485 25.0943 -9.87876 29.4626 -6.11941 34.0069C1.06164 42.6555 13.2852 68.0738 21.4342 90.619C24.113 98.007 38.7452 89.2703 35.5036 81.9117L35.4811 81.941Z" fill="#221C3A"/>
<path d="M228.919 456.208C221.648 456.208 214.354 454.332 206.993 450.608C129.645 411.294 70.3279 180.653 55.7632 65.8751L55.3129 62.3571C51.486 31.8962 43.4946 -31.4882 24.7429 -41.6614C24.1801 -41.9839 23.8875 -42.8341 24.1351 -43.567C24.3827 -44.3 25.0355 -44.6811 25.5983 -44.3586C45.4981 -33.5405 53.6021 30.9287 57.5191 61.9173L57.9693 65.4354C72.4664 179.627 131.288 409.036 207.803 447.911C228.333 458.348 248.638 453.57 268.156 433.751C269.709 432.168 271.442 429.94 273.356 427.125C289.113 403.759 289.766 380.892 290.329 360.75C290.847 342.192 291.297 326.156 304.196 316.129C304.714 315.719 305.411 315.953 305.749 316.628C306.064 317.331 305.884 318.211 305.366 318.65C293.526 327.856 293.12 342.427 292.603 360.868C292.062 380.51 291.364 404.932 275.066 429.089C273.063 432.051 271.217 434.396 269.551 436.096C256.337 449.553 242.74 456.296 228.941 456.296L228.919 456.208Z" fill="#FFFCFB"/>
<path d="M115.306 -29.4658H85.0731L78.77 -24.7164L123.657 9.02805H148.397L115.306 -29.4658Z" fill="#0C3675"/>
<path d="M108.079 -66.2L105.58 -66.5518V-40.9869L106.345 -40.4006V-22.6049L148.396 9.02871V-35.5339L108.079 -66.2Z" fill="#221C3A"/>
<path d="M148.441 -35.5627L147.631 -34.9471V-9.3529L148.396 -9.93924V9.02917L153.551 5.12994V-39.4033L148.441 -35.5627Z" fill="#221C3A"/>
<path d="M822.829 862.695C822.649 862.695 822.446 862.637 822.266 862.49L-101.815 167.666H-126.015C-126.195 167.666 -126.352 167.607 -126.51 167.519L-165.094 142.892C-165.567 142.599 -165.792 141.075 -165.702 140.166C-165.251 136.237 -160.772 131.898 -160.772 131.898L-163.811 139.55L-125.767 164.763H-101.523C-101.32 164.763 -101.14 164.822 -100.96 164.969L823.369 859.998C823.909 860.409 824.089 861.288 823.774 861.992C823.572 862.461 823.189 862.725 822.806 862.725L822.829 862.695Z" fill="#FFFCFB"/>
<path d="M494.684 1032.21L470.845 1038.19L458.622 1051.88V1069.74L477.959 1083.63H505.805L513.931 1051.88L494.684 1032.21Z" fill="#B23C68"/>
<path d="M553.529 1046.4L550.219 1037.02L542.926 1026.35L517.758 1009.31L501.956 1010.92L484.577 1026.35L478.747 1033.5L468.639 1058.92L505.828 1083.87L544.457 1067.48L555.284 1057.72L553.529 1046.4Z" fill="#E5608C"/>
<path d="M504.207 1054.05L481.943 1044.87L478.747 1033.5L468.639 1058.92L480.615 1075.6L505.828 1083.87L504.207 1054.05Z" fill="#B23C68"/>
<path d="M542.926 1026.35L528.542 1038.75L536.533 1048.74L546.123 1055.93L553.529 1046.4L550.265 1036.96L542.926 1026.35Z" fill="#FD729F"/>
<path d="M517.758 1009.31L501.955 1010.92L484.577 1026.35L494.999 1033.73L508.461 1042.06L528.541 1038.75L542.925 1026.35L533.201 1014.38L517.758 1009.31Z" fill="#FF73A1"/>
<path d="M806.238 872.458L774.453 880.432L758.155 898.697V922.503L783.93 941.032H821.073L831.901 898.697L806.238 872.458Z" fill="#B23C68"/>
<path d="M885.117 890.459L880.638 877.794L870.823 863.399L836.831 840.414L815.513 842.584L792.056 863.399L784.177 873.044L770.558 907.375L820.758 941.032L872.871 918.897L887.481 905.763L885.117 890.459Z" fill="#E5608C"/>
<path d="M818.552 900.778L788.522 888.406L784.177 873.044L770.558 907.375L786.699 929.861L820.758 941.031L818.552 900.778Z" fill="#B23C68"/>
<path d="M862.179 893.655L857.767 888.084L818.552 900.779L820.758 941.032L872.872 918.897L875.123 903.33L862.179 893.655Z" fill="#CC4E78"/>
<path d="M836.831 840.414L815.513 842.584L792.057 863.399L806.126 873.367L824.293 884.596L851.396 880.139L870.823 863.399L857.699 847.274L836.831 840.414Z" fill="#FF73A1"/>
<path d="M819.34 916.728C819.34 916.728 819.115 916.728 819.025 916.669L788.365 904.737C788.185 904.59 788.027 904.444 787.847 904.297L777.784 889.609C777.514 889.228 777.312 888.759 777.289 888.26C777.154 885.006 779.788 882.221 780.306 882.807L778.73 886.765L789.31 902.04L819.317 913.708L862.719 893.303L876.135 871.52C876.518 870.904 877.239 870.787 877.711 871.285C878.206 871.784 878.274 872.722 877.891 873.338L864.295 895.443C864.115 895.59 863.957 895.766 863.799 895.912L819.745 916.61C819.633 916.669 819.498 916.698 819.362 916.698L819.34 916.728Z" fill="#FFFCFB"/>
<path d="M437.731 231.724C434.602 230.669 431.653 228.88 428.457 228.147C425.868 227.561 423.212 228.235 420.6 228.646C417.989 229.056 415.198 229.115 412.879 227.473L411.528 236.474C411.979 238.115 413.937 237.353 415.108 238.203C415.49 238.496 415.783 238.966 416.098 239.376C418.754 242.982 423.076 243.187 426.903 243.129C431.698 243.07 432.734 240.168 431.563 239.229C430.37 238.291 428.096 239.493 427.331 237.939C426.791 236.825 427.736 235.418 428.727 235.096C429.717 234.773 436.606 237.588 437.214 237.793C439.375 238.467 439.532 236.005 437.349 234.597C440.185 234.89 439.104 232.193 437.709 231.724H437.731Z" fill="#FCBE9F"/>
<path d="M415.378 242.894C416.323 242.894 416.436 242.806 416.976 242.865C420.42 243.129 421.906 227.444 417.336 226.975C416.841 226.916 415.873 226.828 415.873 226.828C413.172 226.476 412.361 241.809 415.4 242.894H415.378Z" fill="#FFFCFB"/>
<path d="M347.822 496.519C344.175 492.708 343.612 490.92 340.236 486.727C338.705 484.822 337.107 482.652 336.364 480.16C335.801 478.255 334.765 476.613 333.302 475.88L324.996 471.775C323.15 478.724 319.931 478.284 319.616 481.714C319.616 481.919 319.48 485.496 319.48 485.731C319.525 488.076 321.056 490.773 325.378 495.171C331.569 501.445 334.473 510.328 343.23 511.237C347.732 511.706 352.414 509.419 352.324 504.992C352.324 504.787 352.347 501.474 352.324 501.269C352.077 499.099 350.703 499.568 347.799 496.519H347.822Z" fill="#EBE5ED"/>
<path d="M347.822 492.796C344.175 488.984 343.613 487.196 340.236 483.004C338.323 480.658 336.364 477.873 335.981 474.59C335.914 473.915 335.599 473.3 335.103 473.065L324.973 468.081C321.799 480.101 314.146 480.101 325.379 491.476C331.569 497.75 334.473 506.634 343.23 507.542C350.051 508.246 357.232 502.676 347.8 492.825L347.822 492.796Z" fill="#221C3A"/>
<path d="M307.167 462.394C305.749 460.782 298.883 457 297.127 453.687C296.654 452.778 296.339 451.781 296.136 450.726C295.484 447.149 293.21 444.452 290.576 443.133L285.781 440.729C285.016 440.729 281.347 447.794 280.964 448.791C279.456 452.719 278.06 457.996 280.626 460.283C286.682 465.648 296.069 475.646 300.526 478.226C305.321 481.011 309.621 477.903 310.454 474.033C310.454 474.033 310.836 470.251 310.319 467.407C309.801 464.564 308.27 463.655 307.167 462.394Z" fill="#EBE5ED"/>
<path d="M308.63 462.453C307.212 460.84 298.883 452.719 297.127 449.407C295.934 447.178 295.731 444.247 295.979 441.549L285.782 436.448C285.016 436.448 282.743 443.162 282.382 444.129C280.874 448.058 278.06 453.687 280.649 455.974C286.705 461.339 296.744 473.505 301.449 475.147C311.332 478.607 311.804 466 308.653 462.423L308.63 462.453Z" fill="#221C3A"/>
<path d="M304.691 335.156C303.498 335.508 302.35 335.684 301.292 335.567C303.048 360.956 304.803 384.82 303.633 390.713C303.273 392.56 290.441 417.099 283.711 438.09C281.414 445.214 294.561 454.42 296.632 447.178C304.939 418.242 316.397 408.391 319.863 399.655C320.696 397.573 323.353 391.856 326.459 384.439C319.661 367.699 312.457 351.222 304.713 335.186L304.691 335.156Z" fill="#171742"/>
<path d="M344.333 411.498C344.333 404.491 338.255 379.953 335.306 366.877C334.203 362.01 333.1 357.114 332.379 352.13C331.524 346.296 331.186 340.345 330.849 334.423C330.669 331.286 330.489 328.178 330.308 325.041L302.755 343.628C307.955 366.525 315.023 388.689 323.825 409.651C324.433 411.088 325.063 412.583 325.221 414.195C325.401 416.101 324.951 417.977 324.546 419.824C320.854 436.858 325.086 453.452 322.835 470.925C321.867 478.547 336.702 481.831 336.769 474.062C335.891 445.184 344.288 417.831 344.288 411.557L344.333 411.498Z" fill="#221C3A"/>
<path d="M330.353 374.559C335.463 361.044 340.258 345.036 339.268 333.778C339.178 332.84 337.264 318.68 333.888 318.299C328.485 317.712 319.525 326.595 311.376 331.873C318.085 345.828 324.388 360.076 330.353 374.588V374.559Z" fill="#221C3A"/>
<path d="M308.923 236.972C304.33 239.64 299.355 242.806 297.284 248.787C294.921 255.588 297.149 263.387 298.973 270.452C301.089 278.632 302.642 287.046 303.655 295.577C304.173 300.004 304.533 304.578 303.813 308.946C303.002 313.783 300.909 318.093 299.535 322.725C296.947 331.433 297.014 341.049 297.082 350.401C297.082 352.834 297.149 355.414 298.095 357.525C299.4 360.428 302.034 361.776 304.555 362.626C313.988 365.822 315.789 372.887 324.815 368.138C329.43 356.968 331.546 343.277 330.803 333.778C331.029 329.439 332.874 329.204 333.212 332.429C333.527 335.508 341.181 348.525 344.873 350.372C347.642 344.655 340.933 329.761 341.181 319.295C341.541 304.93 342.982 294.405 345.908 280.508C349.173 265.029 353.472 248.64 349.69 233.366C347.507 224.512 342.622 218.003 335.531 221.375C326.481 225.655 317.724 231.841 308.923 236.972Z" fill="#0C3675"/>
<path d="M297.802 246.558C293.435 255.969 288.01 264.53 281.752 271.918C277.137 277.371 271.352 284.436 267.322 290.622C260.884 300.502 255.977 319.881 245.126 335.243C241.029 342.983 252.24 352.981 257.08 344.654C274.638 312.61 278.915 303.024 278.915 303.024C282.044 300.62 288.122 296.896 309.035 276.814C319.458 269.719 307.55 232.486 297.825 246.558H297.802Z" fill="#0C3675"/>
<path d="M332.469 227.59C333.505 223.104 336.859 220.114 340.461 220.407C348.7 221.052 354.058 223.163 361.261 222.43C367.474 221.814 375.893 221.14 382.106 221.55C392.056 222.225 400.475 225.831 416.503 226.095C420.15 227.121 418.777 244.095 414.68 243.451C389.625 240.959 381.093 241.046 381.093 241.046C377.604 242.366 359.37 245.561 345.278 251.601C336.296 255.647 329.723 239.434 332.447 227.59H332.469Z" fill="#0C3675"/>
<path d="M245.217 336.768C244.699 337.794 244.676 337.941 244.339 338.498C241.66 343.98 251.992 352.072 254.221 347.85C254.491 347.322 255.121 346.355 255.121 346.355C256.877 343.658 247.603 334.13 245.217 336.768Z" fill="#FFFCFB"/>
<path d="M335.801 296.75C338.795 284.173 342.825 256.644 343.883 241.78C344.851 228.469 338.21 222.547 330.218 224.805C324.41 226.447 317.995 230.756 313.155 233.512C306.582 237.206 304.848 244.242 310.814 253.565C311.467 254.591 329.656 284.73 335.801 296.779V296.75Z" fill="#0D3A89"/>
<path d="M311.129 242.425C313.29 249.989 328.462 274.381 332.492 292.499C336.184 309.063 328.507 312.992 330.781 333.778L333.19 332.429C331.276 323.136 334.54 308.829 336.319 291.356C338.502 270.012 340.168 248.435 340.798 243.627C342.352 231.988 338.975 223.105 330.061 227.15C316.509 233.278 309.26 235.858 311.129 242.425Z" fill="#FFFCFB"/>
<path d="M318.31 229.965L315.969 233.102C315.046 234.861 314.686 237.412 315.159 239.464C317.59 250.135 325.041 253.565 325.041 253.565L329.476 244.594L329.656 240.695L318.333 229.965H318.31Z" fill="#E8E3E7"/>
<path d="M328.89 225.89C326.684 225.509 325.626 230.757 326.212 233.337C327.27 237.969 328.35 242.308 330.961 243.129C332.92 243.745 337.782 245.65 337.782 245.65C337.692 245.005 337.49 244.39 337.332 243.774C336.544 241.106 335.554 238.526 334.541 236.005C333.865 234.334 333.167 232.692 332.447 231.079C331.839 229.731 331.254 227.825 330.331 226.799C329.813 226.213 329.318 225.919 328.89 225.861V225.89Z" fill="#E8E3E7"/>
<path d="M335.194 242.132C334.856 244.125 333.978 246.031 332.763 247.467L332.155 244.711C333.1 243.509 333.911 242.102 334.496 240.578C334.699 240.9 335.194 242.044 335.194 242.132ZM325.311 247.291C326.414 248.435 327.9 248.992 329.431 248.816L328.688 246.148C327.45 246.207 326.234 245.972 325.154 245.415C325.154 245.855 325.266 247.233 325.311 247.291Z" fill="#221C3A"/>
<path d="M332.988 225.215C326.865 224.512 320.359 221.199 314.934 218.355C317.027 223.691 316.622 230.756 316.622 233.952C316.622 238.115 318.468 245.562 325.086 245.268C326.819 245.18 327.495 243.949 328.598 243.304L330.601 247.878L331.254 241.926C333.618 241.252 335.059 238.555 334.586 236.18C333.933 233.014 333.19 228.528 332.988 225.245V225.215Z" fill="#F1A782"/>
<path d="M324.861 251.338L328.598 243.246C322.295 244.917 316.284 239.318 316.645 230.757L315.722 233.249C315.091 234.978 314.934 236.972 315.384 238.79C316.667 243.862 319.278 249.168 324.861 251.308V251.338Z" fill="#FFFCFB"/>
<path d="M333.955 232.868C334.135 233.219 333.91 238.936 331.254 241.868L337.399 243.803C337.399 243.803 335.711 237.089 333.955 232.868Z" fill="#FFFCFB"/>
<path d="M332.335 247.497L329.858 249.109L329.971 252.246C329.948 284.407 361.757 298.861 361.757 298.861L371.324 297.923C371.752 298.011 372.089 297.307 371.864 296.721C371.864 296.721 367.092 287.867 366.597 287.544C363.152 285.404 334.136 274.381 332.312 247.467L332.335 247.497Z" fill="#221C3A"/>
<path d="M327.765 246.676C327.247 248.084 328.44 252.041 330.016 252.188C332.537 252.393 334.541 249.901 333.528 243.95C333.437 243.364 332.177 244.595 330.759 245.328C329.43 245.973 328.012 246.031 327.765 246.706V246.676Z" fill="#221C3A"/>
<path d="M336.319 215.101L336.725 216.479L347.327 227.091L347.845 225.743L336.319 215.101Z" fill="#221C3A"/>
<path d="M339.043 201.938C335.846 196.485 331.997 194.315 326.774 194.813C325.356 194.96 323.195 196.924 321.912 197.745C317.185 200.824 317.23 211.642 317.59 217.71C318.04 225.362 319.031 233.63 323.375 238.966C331.794 249.315 340.349 249.403 340.641 241.956C340.664 241.282 340.641 240.49 341.069 240.109C341.227 239.992 341.407 239.933 341.587 239.845C342.375 239.405 342.487 237.998 342.397 236.884C342.307 235.887 342.172 234.92 341.969 233.952C341.812 233.219 341.609 232.457 341.632 231.695C341.632 229.994 342.577 228.587 343.14 227.063C344.468 223.398 343.793 218.092 343.207 214.28C342.51 209.824 341.181 205.544 339.065 201.908L339.043 201.938Z" fill="#FFC0A1"/>
<path d="M334.608 242.014C331.997 241.809 328.08 239.141 327.405 237.236C326.887 235.74 326.594 230.58 326.144 230.698C325.266 230.962 323.758 231.02 324.096 232.134C324.703 234.128 324.838 235.77 324.681 236.268C324.208 237.939 322.542 237.06 321.507 236.18C322.137 237.617 323.78 239.786 325.424 241.692C327.517 244.125 329.903 246.119 332.56 247.35C333.73 247.907 334.766 248.171 335.869 248.142C337.962 248.083 339.943 246.412 340.641 243.832C340.934 242.747 341.091 241.487 341.046 240.138C340.191 240.783 339.223 240.959 338.503 241.164C337.287 241.604 336.342 242.161 334.586 242.014H334.608Z" fill="#AC8979"/>
<path d="M339.74 198.126C333.82 191.412 326.279 191.881 321.551 196.66C308.855 202.699 310.791 222.342 319.773 233.893C318.647 230.639 321.912 228.264 322.497 229.261C324.208 232.134 324.703 234.538 326.121 234.45C327.269 234.392 326.256 231.665 329.385 229.378C329.926 228.968 339.538 227.443 343.477 221.902C343.792 221.463 343.972 220.935 344.085 220.378C344.58 217.505 346.989 206.364 339.74 198.126Z" fill="#221C3A"/>
<path d="M321.102 228.675L322.047 230.375L335.554 238.144L336.094 236.708L321.102 228.675Z" fill="#221C3A"/>
<path d="M321.057 227.444C318.423 225.099 314.101 229.76 321.574 236.298C322.34 236.972 323.308 237.559 324.208 236.796C326.189 235.096 322.587 228.822 321.034 227.444H321.057Z" fill="#FFC0A1"/>
<path d="M347.845 225.391L343.545 229.349C343.298 229.584 343.005 229.994 342.847 230.346C342.69 230.346 342.465 230.434 342.149 230.727C341.902 230.962 341.609 231.314 341.317 231.665C341.317 231.46 341.182 231.489 341.024 231.665L336.724 235.623C336.477 235.828 336.184 236.268 336.026 236.62L334.833 239.317C334.631 239.757 334.563 240.109 334.631 240.255C334.653 240.343 334.721 240.373 334.811 240.343C334.923 240.343 335.104 240.197 335.306 240.021L338.233 237.324C338.863 236.737 339.651 235.623 340.033 234.714L341.069 232.369C341.249 232.105 341.429 231.959 341.609 231.753C341.767 231.577 341.924 231.343 342.06 231.226C342.33 230.991 342.487 230.903 342.555 230.962L341.722 232.809C341.744 232.985 341.789 233.131 341.812 233.278C341.812 233.19 341.879 233.043 341.924 232.926L343.118 230.229C343.118 230.229 343.32 229.906 343.433 229.789L347.687 225.86L346.539 228.44C346.247 229.085 345.594 230.024 345.121 230.463L342.195 233.161C342.014 233.336 341.879 233.395 341.834 233.337C341.857 233.483 341.902 233.63 341.924 233.776C341.992 233.718 342.037 233.718 342.105 233.659L345.031 230.962C345.661 230.375 346.449 229.261 346.832 228.353L348.025 225.655C348.115 225.45 348.16 225.274 348.115 225.186C348.07 225.098 347.957 225.128 347.8 225.274L347.845 225.391ZM339.741 234.802C339.448 235.447 338.795 236.385 338.323 236.825L335.396 239.522C335.171 239.728 335.036 239.786 334.991 239.698C334.968 239.61 335.058 239.405 335.104 239.259L336.297 236.561C336.297 236.561 336.499 236.239 336.612 236.122L340.866 232.193L339.718 234.773L339.741 234.802Z" fill="#221C3A"/>
<path d="M253.591 347C251.227 340.199 244.676 337.853 244.046 341.43C243.303 345.535 240.737 349.287 238.576 352.277C237.202 354.183 235.739 356.059 234.929 358.434C234.231 360.545 234.096 362.861 233.983 365.148C233.758 369.78 233.533 374.588 234.794 378.927C234.861 379.191 234.951 379.455 235.109 379.66C235.492 380.129 236.099 379.953 236.55 379.601C237.45 378.898 238.035 377.608 238.08 376.23C238.08 375.468 237.968 374.705 238.035 373.943C238.125 373.181 238.418 372.477 238.711 371.832C240.331 368.285 242.11 364.825 244.046 361.571C244.856 360.193 245.937 358.698 247.265 358.874C247.197 361.395 245.464 363.447 245.306 365.969C245.261 366.79 245.442 367.728 245.982 368.138C246.455 368.49 247.085 368.314 247.513 367.874C247.963 367.464 248.255 366.848 248.548 366.262C249.246 364.825 249.944 363.418 250.664 361.982C251.497 360.31 252.33 358.61 252.758 356.675C253.095 355.151 253.14 353.509 253.14 351.955C253.14 350.255 253.658 348.496 253.546 346.971L253.591 347Z" fill="#FCBE9F"/>
<path d="M342.127 303.522C342.127 303.522 341.812 306.601 341.722 307.949C340.956 317.536 335.689 322.725 325.424 324.572L325.109 324.631C322.115 325.188 312.998 326.859 304.714 319.794C302.417 317.859 302.868 313.842 303.903 308.243C299.829 313.754 300.954 320.087 303.498 322.256C308.045 326.126 313.425 328.09 319.548 328.09C321.439 328.09 323.398 327.915 325.424 327.533L325.716 327.475C338.975 324.162 341.767 318.826 342.757 312.435C343.5 307.627 342.127 303.493 342.127 303.493V303.522Z" fill="#FFFCFB"/>
<path d="M477.576 320.938C478.927 320.469 480.66 320.381 481.988 320.88C480.66 319.707 475.483 314.195 475.258 312.29C474.807 308.478 482.146 315.72 484.735 317.831C486.491 319.267 488.292 320.733 489.642 322.785C489.687 321.877 489.62 320.088 490.115 319.531C490.723 318.857 491.781 319.209 492.276 321.789C492.951 325.277 493.604 328.033 496.193 329.499L493.469 339.467C491.938 340.171 490.205 339.731 488.787 338.705C487.369 337.679 486.198 336.183 485.073 334.688C483.947 333.193 482.799 331.639 481.403 330.584C479.895 331.991 479.377 334.571 478.859 336.916C478.747 337.385 478.612 337.943 478.252 338.118C476.721 338.91 475.955 332.255 479.039 327.828C477.351 329.88 475.91 332.343 474.83 335.011C473.839 337.473 472.646 336.741 472.556 335.011C472.421 332.402 475.708 326.978 477.261 325.189C475.1 325.952 473.052 327.3 471.273 329.118C470.958 329.44 470.598 329.792 470.215 329.646C468.684 329.059 470.305 323.401 477.576 320.938Z" fill="#FFC0A1"/>
<path d="M494.73 342.017C497.656 343.102 501.505 330.114 498.601 329.147C498.421 329.059 496.575 328.238 496.575 328.238C493.019 326.919 489.462 339.818 492.276 340.903L494.73 342.047V342.017Z" fill="#FFFCFB"/>
<path d="M570.3 376.935C569.332 376.935 550.85 374.56 540.81 371.159C522.891 366.087 505.4 347.646 494.302 343.542C490.498 342.487 495.766 326.86 499.345 328.004C508.799 330.965 541.238 349.64 542.656 349.992C544.119 350.344 545.605 350.226 547.091 350.168C557.198 349.669 585.45 345.741 584.639 352.806L570.3 376.964V376.935Z" fill="#0C3675"/>
<path d="M534.552 643.518C537.05 642.638 540.585 642.551 542.34 641.554C544.231 640.469 545.785 638.622 546.865 636.335C549.792 630.003 551.728 622.908 552.493 615.608C552.583 614.699 553.078 613.966 553.776 613.761L559.696 611.943C561.25 611.474 562.871 612.148 563.906 613.702C565.122 615.52 567.44 614.406 568.453 616.517C569.039 617.748 568.858 621.413 568.881 622.673C568.926 628.038 564.221 633.579 560.935 640.352C559.089 644.134 558.031 648.121 555.757 651.346C553.934 653.955 551.277 655.362 548.599 655.802C539.752 657.18 534.507 652.9 534.281 649.059C534.191 647.417 534.034 645.306 534.552 643.606V643.518Z" fill="#EBE5ED"/>
<path d="M510.465 582.186C511.456 580.368 515.103 575.794 516.161 574.035C518.614 569.96 519.335 564.243 518.007 559.347L527.957 548.881C527.596 551.021 529.195 552.868 530.793 553.63C532.369 554.393 533.922 551.842 535.183 553.278C536.038 554.246 536.984 557.852 537.164 559.054C538.087 565.093 531.446 573.742 528.767 578.873C525.593 585 523.522 592.241 519.267 597.167C515.688 601.33 511.073 600.362 509.565 598.193C507.652 595.437 506.796 588.811 510.42 582.156L510.465 582.186Z" fill="#EBE5ED"/>
<path d="M537.028 640.586C538.807 639.56 540.563 638.211 542.318 637.185C544.209 636.1 545.763 634.253 546.843 631.967C549.77 625.634 551.706 618.539 552.471 611.239C552.561 610.33 553.056 609.597 553.754 609.392L559.674 607.574C561.228 607.105 562.849 607.78 563.884 609.333C565.1 611.151 566.991 612.5 567.981 614.581C571.155 621.148 564.965 627.628 560.913 635.954C559.067 639.736 558.009 643.723 555.735 646.948C553.912 649.557 551.255 650.994 548.577 651.404C536.263 653.339 530.59 644.309 537.028 640.645V640.586Z" fill="#221C3A"/>
<path d="M512.086 575.502C513.077 573.684 514.225 572.013 515.283 570.254C517.736 566.179 518.457 560.462 517.129 555.566L527.078 545.1C526.718 547.24 528.317 549.087 529.915 549.849C531.491 550.611 533.292 550.846 534.552 552.312C539.73 558.175 531.108 568.935 527.911 575.091C524.737 581.219 522.666 588.46 518.412 593.386C514.832 597.549 509.97 596.904 508.912 594.294C507.606 591.04 508.439 582.098 512.064 575.472L512.086 575.502Z" fill="#221C3A"/>
<path d="M499.142 488.37C500.448 484.794 503.352 480.572 505.783 478.197C523.747 460.46 539.077 447.091 557.086 432.051C557.198 431.963 567.688 441.081 577.503 449.671C587.025 457.997 591.483 473.242 588.624 487.696C587.521 493.237 586.463 498.69 585.179 503.645C581.668 517.336 577.053 529.737 574.869 543.399C572.888 555.771 573.249 569.404 571.718 581.336C570.345 592.066 567.463 599.953 566.99 611.709C566.653 619.273 551.66 617.015 552.358 609.745C558.256 564.009 549.905 541.347 561.745 478.168C555.195 480.455 529.307 494.967 519.537 496.579C518.929 496.667 524.782 521.352 529.307 548.852C530.072 553.484 520.753 564.068 516.926 557.941C511.05 539.119 508.372 525.486 499.457 501.886C497.881 497.723 497.611 492.533 499.119 488.341L499.142 488.37Z" fill="#221C3A"/>
<path d="M553.821 429.471C555.915 426.041 557.018 421.761 558.053 417.569C564.289 392.678 560.462 388.573 561.43 372.537C561.813 366.087 564.649 362.803 567.508 357.526C570.367 352.22 575.342 348.497 580.249 349.493C580.249 349.493 612.215 362.246 618.473 371.569C622.12 376.993 625.654 386.257 624.079 390.948C622.931 394.378 608.726 415.516 601.838 429.647C598.979 435.511 597.29 442.166 596.908 449.114C596.593 454.948 592.225 489.602 591.122 499.833C580.745 493.237 574.532 482.565 555.172 486.435C556.725 479.458 564.109 468.933 569.377 455.974C570.322 446.094 561.993 447.853 560.079 448.469C560.079 448.469 544.502 469.929 537.974 474.034C530.117 472.334 530.005 459.141 523.972 457.147C527.528 456.18 552.268 432.11 553.866 429.501L553.821 429.471Z" fill="#0C3675"/>
<path d="M577.504 428.357C575.005 414.373 571.493 378.869 570.39 367.377C569.985 363.272 570.728 358.963 572.844 355.884C572.979 355.708 573.114 355.503 573.249 355.327C577.031 350.314 582.726 348.643 587.904 350.607C594.117 352.982 600.848 358.347 605.958 361.806C612.891 366.497 614.332 374.325 607.308 383.882C606.521 384.938 584.91 415.868 577.504 428.328V428.357Z" fill="#0D3A89"/>
<path d="M607.646 371.745C604.832 379.749 586.553 405.724 580.003 422.64C573.519 439.439 572.551 447.736 569.332 455.915C564.695 453.658 561.836 451.107 560.035 448.41C563.322 441.374 566.023 433.839 567.599 425.836C569.017 418.682 569.963 411.353 570.48 403.965C571.651 387.195 575.59 374.149 575.275 369.986C574.307 357.174 578.494 347.851 587.971 353.158C602.334 361.191 610.077 364.767 607.646 371.716V371.745Z" fill="#FFFCFB"/>
<path d="M600.577 357.467L602.941 361.132C603.841 363.155 604.089 365.969 603.436 368.139C600.149 379.485 591.843 382.475 591.843 382.475L587.543 372.243L587.588 367.963L600.554 357.438L600.577 357.467Z" fill="#E8E3E7"/>
<path d="M589.299 351.956C591.73 351.751 592.54 357.585 591.752 360.312C590.334 365.237 588.871 369.869 585.989 370.485C583.828 370.954 578.426 372.537 578.426 372.537C578.561 371.863 578.808 371.188 579.034 370.543C580.047 367.729 581.285 365.032 582.545 362.393C583.378 360.663 584.234 358.934 585.134 357.233C585.877 355.855 586.62 353.803 587.7 352.806C588.308 352.249 588.848 351.956 589.321 351.927L589.299 351.956Z" fill="#E8E3E7"/>
<path d="M582.321 367.348C582.861 369.077 583.649 370.69 584.617 372.097L583.806 375.029C582.568 373.358 581.713 371.188 581.488 368.989C581.488 368.901 582.096 367.699 582.343 367.348H582.321ZM592.203 373.563C590.988 374.032 589.659 374.179 588.309 374.003L587.341 376.817C588.984 377.169 590.65 376.729 591.91 375.586C591.955 375.527 592.181 374.061 592.203 373.563Z" fill="#221C3A"/>
<path d="M584.909 350.783C591.617 350.636 598.911 347.734 604.966 345.154C602.378 350.753 602.378 358.493 602.175 361.953C601.905 366.497 599.451 374.383 592.293 373.387C590.402 373.123 589.749 371.715 588.578 370.865L586.125 375.644L585.787 369.106C583.266 368.109 581.847 365.031 582.523 362.539C583.423 359.138 584.504 354.36 584.909 350.783Z" fill="#F1A782"/>
<path d="M592.158 380.042L588.579 370.866C595.332 373.328 602.198 367.846 602.333 358.494L603.188 361.308C603.774 363.272 603.841 365.442 603.211 367.377C601.523 372.771 598.348 378.254 592.158 380.042Z" fill="#FFFCFB"/>
<path d="M583.401 359.021C583.176 359.403 583.086 365.618 585.787 369.107L578.966 370.573C578.966 370.573 581.195 363.448 583.378 359.021H583.401Z" fill="#FFFCFB"/>
<path d="M584.954 375.498L587.228 379.046L585.877 382.681C573.383 420.618 543.669 429.589 543.669 429.589C543.646 429.589 532.075 425.455 532.075 425.455C531.535 425.25 531.423 424.224 531.895 423.667L540.337 414.08C540.922 413.406 541.643 413.054 542.341 412.995C547.248 412.731 572.325 405.988 584.932 375.439L584.954 375.498Z" fill="#221C3A"/>
<path d="M589.276 374.677C589.749 376.26 588.218 380.452 586.507 380.423C583.761 380.365 581.712 377.462 583.176 371.1C583.311 370.485 584.594 371.95 586.124 372.859C587.52 373.709 589.073 373.885 589.299 374.648L589.276 374.677Z" fill="#221C3A"/>
<path d="M584.864 328.942C585.135 328.121 585.405 327.3 585.697 326.45C591.843 327.183 598.934 334.981 601.86 341.753C603.301 345.066 604.382 348.115 606.318 350.49C605.327 351.663 604.314 352.806 603.301 353.92C600.217 357.233 596.818 362.246 593.013 363.888C589.772 365.266 586.53 364.885 583.109 364.944C579.529 365.032 576.4 362.364 577.436 356.676C578.201 352.366 578.629 349.112 579.687 345.506C580.542 342.604 581.263 340.522 581.51 337.444C581.735 334.835 582.996 334.072 583.874 331.991C584.257 331.111 584.527 329.909 584.842 328.971L584.864 328.942Z" fill="#FFC0A1"/>
<path d="M583.851 354.096C584.504 354.887 585.292 355.474 586.148 355.738C590.267 356.969 593.779 355.62 596.278 351.604C596.525 351.223 596.615 350.842 596.638 350.46C597.133 350.607 597.651 350.46 598.123 349.845C598.596 349.2 599.384 347.558 600.082 347.323C600.645 347.148 601.703 348.056 601.928 348.672C602.108 349.2 602.378 349.522 602.693 349.728C600.847 351.604 598.641 353.011 598.056 356.295C597.831 357.467 598.236 358.523 598.866 359.05C597.02 361.132 595.084 363.008 593.013 363.888C589.772 365.266 586.53 364.885 583.109 364.943C579.529 365.031 576.4 362.363 577.436 356.676C577.886 354.125 578.224 351.985 578.651 349.874C581.218 350.959 582.816 352.806 583.851 354.067V354.096Z" fill="#AC8979"/>
<path d="M607.826 349.142C607.826 349.142 607.758 349.259 607.713 349.288C606.925 350.373 606.362 349.611 605.372 349.494C604.224 349.347 603.053 349.728 602.085 350.549C600.825 351.634 599.969 353.363 598.776 354.536C598.078 355.21 597.02 355.65 596.368 354.888C595.152 353.451 596.683 350.52 597.155 349.083C600.577 338.206 592.203 331.082 585.067 328.356C585.292 325.658 586.215 323.284 587.566 321.613C596.705 310.443 611.36 316.394 613.453 329.821C614.084 333.897 613.386 338.06 611.945 341.695C611.225 343.571 610.302 345.331 609.289 346.943C608.816 347.705 608.343 348.409 607.826 349.112V349.142Z" fill="#221C3A"/>
<path d="M607.848 351.662C607.556 356.969 602.918 360.34 598.866 358.963C596.66 355.796 600.037 352.777 602.04 350.636C603.661 348.907 608.073 348.056 607.871 351.662H607.848Z" fill="#FFC0A1"/>
<path d="M613.949 367.201C625.339 364.797 633.263 366.878 643.528 364.972C659.759 354.946 667.953 358.845 679.411 357.057C683.215 356.119 684.408 373.005 680.762 373.768C671.172 375.791 649.268 382.563 647.873 382.944C646.432 383.355 645.081 384.205 643.731 385.026C634.546 390.567 609.919 398.981 608.321 401.473L613.949 367.201Z" fill="#0C3675"/>
<path d="M683.71 371.716C686.704 370.983 685.759 357.145 682.855 357.937C682.675 357.937 680.739 358.259 680.739 358.259C677.092 359.109 678.263 372.742 681.144 372.097L683.733 371.716H683.71Z" fill="#FFFCFB"/>
<path d="M706.806 346.151C707.234 346.093 707.729 346.151 708 346.532C708.517 347.295 707.909 348.438 707.324 349.112C706.086 350.461 704.713 351.634 703.25 352.542C701.651 353.539 699.378 355.591 698.905 356.412C702.507 356.412 709.913 358.113 709.125 362.041C708.472 363.8 706.559 361.983 705.321 361.426C703.407 360.605 701.404 360.165 699.4 360.165C700.954 361.66 705.636 365.208 706.199 368.814C706.379 369.928 705.883 370.924 705.006 370.866C703.61 370.778 702.012 366.644 699.423 365.237C700.661 366.82 701.989 368.667 701.944 370.895C701.922 372.684 700.886 373.329 700.256 372.772C699.896 372.449 699.783 371.804 699.58 371.276C698.072 367.113 693.705 370.045 689.518 370.485C687.469 370.69 685.308 370.778 683.913 370.631C681.504 370.367 681.054 359.579 683.327 358.259C685.353 357.057 687.694 353.92 688.888 345.682C689.315 342.692 693.3 344.861 691.251 351.546L690.576 353.569C694.358 355.24 702.867 346.62 706.806 346.093V346.151Z" fill="#FFC0A1"/>
<path d="M-31.7828 727.307L-65.2793 702.123L-31.7828 676.939L1.69126 702.123L-31.7828 727.307Z" fill="#FFFCFB"/>
<path d="M1.69083 750.732L-31.7832 775.916V727.307L1.69083 702.124V750.732Z" fill="#EBE5ED"/>
<path d="M832.419 325.452H805.225L778.257 305.193L813.239 278.896L832.419 325.452Z" fill="#C2BACA"/>
<path d="M832.419 287.105L805.968 267.227L832.419 247.35L858.847 267.227L832.419 287.105Z" fill="#FFFCFB"/>
<path d="M832.419 325.452L805.968 305.575V267.228L832.419 287.105V325.452Z" fill="#C2BACA"/>
<path d="M858.847 305.575L832.419 325.452V287.105L858.847 267.228V305.575Z" fill="#EBE5ED"/>
<path d="M515.957 898.961H508.123L500.334 893.097L510.419 885.504L515.957 898.961Z" fill="#C2BACA"/>
<path d="M515.957 887.879L508.326 882.133L515.957 876.387L523.611 882.133L515.957 887.879Z" fill="#FFFCFB"/>
<path d="M515.957 898.961L508.326 893.215V882.133L515.957 887.879V898.961Z" fill="#C2BACA"/>
<path d="M523.611 893.215L515.957 898.961V887.879L523.611 882.133V893.215Z" fill="#EBE5ED"/>
<path d="M696.924 241.956L692.062 250.868C692.692 251.894 693.232 252.95 693.705 254.005L705.051 257.553V268.869L693.255 272.563C692.737 273.589 692.152 274.645 691.454 275.642L696.181 284.173L685.624 292.177L673.76 288.483C672.41 288.952 671.014 289.362 669.618 289.685L664.958 298.245H649.966L645.036 289.303C643.663 288.922 642.29 288.453 640.939 287.955L629.616 291.502L618.991 283.499L623.853 274.586C623.223 273.531 622.705 272.505 622.232 271.42L610.909 267.872L610.864 256.556L622.66 252.833C623.178 251.806 623.763 250.751 624.461 249.754L619.711 241.193L630.269 233.19L642.11 236.884C643.483 236.444 644.879 236.034 646.297 235.682L650.957 227.15H665.949L670.901 236.063C672.275 236.444 673.648 236.913 674.998 237.412L686.299 233.864L696.924 241.868V241.956Z" fill="#C2BACA"/>
<path d="M682.202 203.198C677.429 206.775 669.708 206.775 664.958 203.198C660.186 199.622 660.186 193.817 664.958 190.24C669.731 186.663 677.452 186.663 682.202 190.24C686.974 193.817 686.974 199.622 682.202 203.198Z" fill="#FFFCFB"/>
<path d="M685.781 191.619V264.209C685.803 266.583 684.61 268.958 682.202 270.776C677.429 274.353 669.708 274.353 664.958 270.776C662.594 269.017 661.424 266.701 661.379 264.385V191.795C661.401 194.111 662.594 196.427 664.958 198.186C669.731 201.762 677.452 201.762 682.202 198.186C684.61 196.368 685.803 193.993 685.781 191.619Z" fill="#C2BACA"/>
<path d="M640.06 188.305L640.015 209.824L635.266 201.264L635.311 179.745L640.06 188.305Z" fill="#C2BACA"/>
<path d="M712.524 180.448L712.479 201.967L707.617 210.88L707.662 189.361L712.524 180.448Z" fill="#F4EDF6"/>
<path d="M637.832 209.941L637.787 231.46L626.487 227.913L626.509 206.394L637.832 209.941Z" fill="#C2BACA"/>
<path d="M720.673 207.361L720.651 228.88L708.81 232.574L706.491 219.968L708.855 211.055L720.673 207.361Z" fill="#EBE5ED"/>
<path d="M639.453 213.108L639.408 234.627C638.778 233.572 638.26 232.546 637.787 231.461L637.832 209.942C638.305 211.027 638.823 212.053 639.453 213.108Z" fill="#C2BACA"/>
<path d="M708.855 211.055L708.81 232.574C708.292 233.6 707.707 234.656 707.009 235.652L707.054 214.133C707.729 213.137 708.337 212.081 708.855 211.055Z" fill="#C2BACA"/>
<path d="M660.636 227.825L660.591 249.344C659.218 248.963 657.845 248.494 656.494 247.996L656.539 226.477C657.867 227.004 659.263 227.444 660.636 227.825Z" fill="#C2BACA"/>
<path d="M689.36 227.003L689.315 248.522C687.965 248.992 686.569 249.402 685.173 249.724L685.218 228.205C686.614 227.854 688.01 227.472 689.36 227.003Z" fill="#C2BACA"/>
<path d="M656.539 226.447L656.494 247.966L645.171 251.513L645.238 230.024L656.539 226.447Z" fill="#EBE5ED"/>
<path d="M645.239 230.024L645.171 251.513L634.546 243.539L634.591 222.02L645.239 230.024Z" fill="#C2BACA"/>
<path d="M701.223 230.668L701.178 252.187L689.315 248.522L689.36 227.003L701.223 230.668Z" fill="#C2BACA"/>
<path d="M711.804 222.665L711.759 244.184L701.179 252.188L701.224 230.669L711.804 222.665Z" fill="#F4EDF6"/>
<path d="M685.218 228.207L685.173 249.726L680.513 258.286L680.558 236.767L685.218 228.207Z" fill="#F4EDF6"/>
<path d="M665.566 236.738L665.521 258.257L660.591 249.344L660.636 227.825L665.566 236.738Z" fill="#C2BACA"/>
<path d="M680.558 236.767L680.513 258.286L665.521 258.256L665.566 236.737L680.558 236.767Z" fill="#EBE5ED"/>
<path d="M712.524 180.448L707.661 189.36C708.292 190.387 708.832 191.442 709.305 192.497L720.65 196.045V207.361L708.854 211.055C708.337 212.081 707.751 213.137 707.054 214.134L711.781 222.665L701.223 230.669L689.36 226.975C688.009 227.444 686.613 227.854 685.218 228.177L680.558 236.737H665.566L660.636 227.796C659.263 227.415 657.889 226.945 656.539 226.447L645.216 229.994L634.59 221.991L639.453 213.078C638.822 212.023 638.305 210.997 637.832 209.912L626.509 206.365L626.464 195.048L638.26 191.325C638.777 190.299 639.363 189.243 640.061 188.246L635.311 179.686L645.868 171.682L657.709 175.376C659.082 174.936 660.478 174.526 661.896 174.174L666.556 165.643H681.549L686.501 174.555C687.874 174.936 689.247 175.405 690.598 175.904L701.899 172.356L712.524 180.36V180.448Z" fill="#FFFCFB"/>
<path d="M680.469 205.632C676.664 208.505 670.474 208.505 666.647 205.632C662.842 202.759 662.842 198.127 666.647 195.253C670.451 192.38 676.642 192.38 680.469 195.253C684.273 198.127 684.273 202.759 680.469 205.632Z" fill="#C2BACA"/>
<path d="M280.852 625.78H265.341L249.966 614.229L269.911 599.219L280.852 625.78Z" fill="#C2BACA"/>
<path d="M280.851 603.881L265.769 592.564L280.851 581.218L295.956 592.564L280.851 603.881Z" fill="#FFFCFB"/>
<path d="M280.851 625.781L265.769 614.435V592.564L280.851 603.881V625.781Z" fill="#C2BACA"/>
<path d="M295.956 614.435L280.851 625.781V603.881L295.956 592.564V614.435Z" fill="#EBE5ED"/>
<path d="M781.499 173.382H772.134L762.86 166.405L774.881 157.346L781.499 173.382Z" fill="#C2BACA"/>
<path d="M781.499 160.16L772.382 153.329L781.499 146.498L790.593 153.329L781.499 160.16Z" fill="#FFFCFB"/>
<path d="M781.499 173.382L772.382 166.522V153.329L781.499 160.16V173.382Z" fill="#C2BACA"/>
<path d="M790.594 166.522L781.499 173.382V160.16L790.594 153.329V166.522Z" fill="#EBE5ED"/>
</g>
</g>
<defs>
<clipPath id="clip0_648_7154">
<rect width="850" height="1040" fill="white"/>
</clipPath>
</defs>
</svg>
